<?xml version="1.0" encoding="UTF-8"?>
<svg id="Layer_1" data-name="Layer 1" xmlns="http://www.w3.org/2000/svg" version="1.1" viewBox="0 0 500 500">
  <defs>
    <style>
      .cls-1 {
        fill: #97d5ee;
      }

      .cls-1, .cls-2 {
        stroke-width: 0px;
      }

      .cls-2 {
        fill: #5a9ab9;
      }
    </style>
  </defs>
  <ellipse class="cls-2" cx="250.5" cy="348.2" rx="126.9" ry="53.2"/>
  <path class="cls-1" d="M188.5,387.1c14.9,6.2,27.2,6.6,34.2,6.2,9-.5,20.3-1.1,24.8-8.5.6-1,1.6-3,2-18.9.1-5.9,0-10.8,0-14.3-.3-61-.7-122-1-183.1,0-4.7,0-12-1.3-20.8-2.3-16.3-4.8-33.9-17.6-43.6-7.1-5.4-14.5-6.3-22.2-7.2-22.3-2.6-40.8,5.9-50.8,11.7-5.1.5-12.2,1.7-19.9,4.9-12.3,5.1-20.2,12.8-24.4,17.6-5,.5-12.2,2.1-19.2,6.8-20.2,13.6-19.9,40.4-19.9,43-3.5,5-7.4,11.6-10.4,19.9-6.7,18.5-5.4,35-3.9,44-3.4,4.7-8.9,13.5-10.7,25.7-3.3,21,6.2,37.2,9.1,41.7-1.2,4.6-3.7,16.8,1.3,30.9,5.6,15.8,17.1,23.9,20.8,26.4,1.5,4.3,5.6,13.7,15.3,20.8,16.8,12.4,36.3,7.6,39.1,6.8,3.2,2,12.8,7.4,25.7,6.2,17.4-1.7,27.3-14.1,29-16.3Z"/>
  <path class="cls-1" d="M222.7,393.3c9-.5,20.3-1.1,24.8-8.5.6-1,1.6-3,2-18.9.1-5.9,0-10.8,0-14.3,0-5.3,0-10.5,0-15.8-21.9,16.9-46.3,23.4-65.1,15.2-4.1-1.8-8.9-4.8-13.7-9.8-4,.6-22,2.8-35.8-9.1-4-3.4-6.6-7.2-8.5-10.4-4.4.4-11.6.4-19.5-2.6-8.3-3.2-13.7-8.3-16.9-11.7-10.6-11.3-24.6-32.7-37.3-51.6-1.9,4.2-3.5,9.1-4.4,14.8-3.3,21,6.2,37.2,9.1,41.7-1.2,4.6-3.7,16.8,1.3,30.9,5.6,15.8,17.1,23.9,20.8,26.4,1.5,4.3,5.6,13.7,15.3,20.8,16.8,12.4,36.3,7.6,39.1,6.8,3.2,2,12.8,7.4,25.7,6.2,17.4-1.7,27.3-14.1,29-16.3,14.9,6.2,27.2,6.6,34.2,6.2Z"/>
  <g>
    <path class="cls-2" d="M155.8,405.5c-10,0-17.9-3.6-22.3-6.2-5.3,1.2-23.9,4.5-39.9-7.4-8.9-6.6-13.5-15-15.8-21.1-5.9-3.9-15.9-12.4-21.1-27-4.7-13.1-3.1-24.9-1.6-31.3-4.8-7.8-11.9-23.1-9-42.3,1.4-9.2,5.1-18.1,10.6-25.9-2.3-15.1-.9-30.3,4.1-44.2,2.5-7,6-13.6,10.3-19.8,0-5.2.9-30.7,20.7-44,5.7-3.8,12.2-6.2,19.3-7.1,6.9-7.6,15.4-13.7,24.6-17.5,6.4-2.7,13.1-4.3,20-5,11.8-6.8,30.3-14.2,51.6-11.8,7.7.9,15.6,1.8,23.1,7.6,13.4,10.3,16,28.7,18.3,44.9,1,7,1.4,14.1,1.3,21.2l1,183c0,4.7,0,9.6,0,14.4-.3,16.7-1.5,18.6-2.2,19.9-5,8.2-16.8,8.9-26.3,9.4-11.2.6-22.6-1.3-33.7-5.8-3.8,4.5-13.7,14.4-29.4,15.9-1.4.1-2.7.2-4,.2ZM133.8,395.3c.4,0,.7.1,1,.3,4.3,2.7,13.1,7,24.5,5.9,15.7-1.5,25.1-12.3,27.6-15.5.5-.7,1.5-1,2.3-.6,11,4.6,22.2,6.6,33.3,6,8.6-.5,19.3-1,23.2-7.5.3-.6,1.4-2.3,1.7-17.9,0-4.7,0-9.5,0-14.3l-1-183.1c.1-6.9-.3-13.8-1.3-20.6-2.3-16.3-4.7-33.1-16.8-42.4-6.7-5.1-13.7-5.9-21.2-6.8-20.5-2.4-38.3,4.9-49.6,11.5-.2.1-.5.2-.8.3-6.7.6-13.2,2.2-19.3,4.7-9,3.7-17.2,9.7-23.7,17.1-.3.4-.8.6-1.3.6-6.8.7-13,2.9-18.3,6.5-19.2,12.9-19.1,38.5-19,41.3,0,.4-.1.8-.4,1.2-4.3,6-7.7,12.6-10.2,19.4-4.9,13.4-6.2,28.3-3.8,43,0,.5,0,1-.4,1.5-5.4,7.4-9,16-10.4,24.9-2.9,18.5,4.3,33.2,8.8,40.3.3.5.4,1,.2,1.5-1.5,5.7-3.3,17,1.3,29.8,5,13.9,14.7,21.9,20.1,25.4.4.2.6.6.8,1,2,5.7,6.2,13.7,14.6,19.9,15.6,11.5,33.9,7.4,37.4,6.5.2,0,.3,0,.5,0Z"/>
    <g>
      <path class="cls-2" d="M151.6,360.9c0,0,.2,0,.3,0,1,0,1.8-.7,1.9-1.7.2-1.1-.6-2.1-1.7-2.2-4.3-.6-19-3.6-25.3-15.6-1.2-2.2-2-4.7-2.4-7.2,0-.5-.4-1-.9-1.3-.5-.3-1-.4-1.6-.3-13.1,3.4-25.9,0-32.7-8.7-3.7-4.8-4.7-10.2-5-13.9,0-.7-.5-1.3-1.1-1.6-3.7-1.9-12.9-7.5-17.5-18.9-3.8-9.4-2.6-18-1.5-22.3.3-1-.4-2.1-1.4-2.4-1.1-.3-2.1.4-2.4,1.4-1.2,4.7-2.5,14.2,1.7,24.7,4.7,11.7,13.8,17.9,18.4,20.4.6,5.7,2.5,10.8,5.7,14.9,7.3,9.5,20.8,13.6,34.7,10.6.5,2.2,1.3,4.4,2.4,6.4,7.1,13.7,23.4,17,28.2,17.6Z"/>
      <path class="cls-2" d="M108.8,370.1c-4.7,1.4-9.6,1.9-14.3,1.6-9.1-.6-17.3-4.3-24.1-9.6,3.8,3.9,7.2,6.3,9,7.5.3.8.7,1.7,1.1,2.8,4.3,1.7,8.9,2.9,13.7,3.2,3.2.2,6.5,0,9.8-.4-2.1,3.5-2.5,7-2.5,9.4,0,1.1.9,1.9,2,1.9h0c1.1,0,1.9-.9,1.9-2,0-2,.3-4.9,2.1-7.7.8-1.2,1.8-2.3,3-3.3.7-.6,1-1.6.5-2.4-.4-.8-1.4-1.2-2.3-1Z"/>
      <path class="cls-2" d="M125.6,383.2c-.6-.9-1.8-1.2-2.7-.7-.9.6-1.2,1.8-.7,2.7,2.8,4.5,6,8.7,9.7,12.4.8-.2,1.5-.3,1.8-.4,1.4.9,4.2,2.5,8,3.9-6.4-4.9-12-11-16.2-17.9Z"/>
      <path class="cls-2" d="M153.4,366.9c-.9-.6-2.1-.3-2.7.6-.6.9-.3,2.1.6,2.7,10.2,6.5,21.1,12,32.3,16.5,1.4.5,2.7,1,4.1,1.5.4-.5.7-.8.9-1.1,14.2,5.9,26.1,6.5,33.2,6.2-12.6-2.2-24.9-5.6-36.7-10.3-11-4.3-21.6-9.8-31.6-16.1Z"/>
      <path class="cls-2" d="M249.4,344.7c-4.3,2.8-9,5.2-14.1,7.3-7.9,3.2-29,11.8-50.5,5.8-7.8-2.2-15-6.2-20.7-11.6-.8-.7-2-.7-2.8,0-.7.8-.7,2,0,2.8,6.2,5.8,13.9,10.2,22.3,12.5,5.7,1.6,11.4,2.2,16.8,2.2,16.1,0,30-5.6,36.2-8.2,4.4-1.8,8.7-3.9,12.6-6.3v-4.6Z"/>
      <path class="cls-2" d="M202.8,257c-6.4,2.4-12.2,6.8-16.8,12.7-.7.8-.5,2.1.3,2.7.8.7,2.1.5,2.7-.3,4.2-5.3,9.4-9.3,15.1-11.4,15.6-5.9,31,2.6,36.8,5.8,2.8,1.5,5.5,3.3,8,5.3,0-1.6,0-3.3,0-4.9-2-1.4-4-2.7-6.1-3.8-6.2-3.4-22.8-12.5-40.1-6Z"/>
      <path class="cls-2" d="M190.8,213.1c-8.4,2.4-16.1,6.7-22.3,12.5-.8.7-.8,2,0,2.8.7.8,2,.8,2.8,0,5.7-5.4,12.9-9.4,20.7-11.6,21.4-6,42.5,2.6,50.5,5.8,2.2.9,4.4,1.9,6.5,2.9,0-1.5,0-2.9,0-4.4-1.6-.8-3.3-1.5-5-2.2-8.3-3.4-30.3-12.3-53-5.9Z"/>
      <path class="cls-2" d="M223.6,162.7c9-10.2,9.8-24.9,1.6-33.5-8.5-8.9-22.1-5.7-22.7-5.5-1,.3-1.7,1.3-1.4,2.4.3,1,1.3,1.7,2.4,1.4.1,0,12-2.8,19,4.4,7.6,8,4.9,21.4-2.5,29.1-8.6-3.8-19.4-6.5-31.1-4.4-8.4,1.5-16.6,5.4-23.6,11.4-.8.7-.9,1.9-.2,2.8.7.8,1.9.9,2.8.2,6.5-5.5,14-9.2,21.7-10.5,21.2-3.8,39.4,9.7,46.2,14.7,4.7,3.5,9,7.5,12.8,12,0-2,0-3.9,0-5.9-3.2-3.4-6.7-6.5-10.5-9.2-3-2.2-8-5.9-14.5-9.2Z"/>
      <path class="cls-2" d="M59.5,251.6c2.4,4.4,5.4,7.7,5.5,7.9,2.4,2.7,5.3,5,8.4,6.9-.1,1.1-.2,2.3-.2,3.5.1,16.5,9.1,26.4,16.8,29.8,3.1,1.4,6.6,2.1,10.1,2.1s8.8-1,13.3-3.1c3.3-1.5,6.4-3.6,9.2-6.1,1.7,6.7,7.9,25,26,32.8,9,3.9,17.6,3.8,23.6,2.9,3.3,4,15.7,17.6,34.2,17.6s2,0,3.1-.1c10.4-.8,18.1-5.7,22.8-9.6.8-.7.9-1.9.3-2.8-.7-.8-1.9-.9-2.8-.3-4.2,3.5-11.3,7.9-20.6,8.7-20.4,1.7-34-16.1-34.5-16.8-.4-.6-1.2-.9-1.9-.8-5.5.9-13.9,1.3-22.6-2.5-19.3-8.3-23.8-29.8-24.3-32.2,0,0,0-.2,0-.2,1.8-1.9,3.3-4,4.5-6.2,2.1-3.7,3.3-7.8,3.8-12.1.1-1.1-.7-2-1.7-2.2-1.1-.1-2,.7-2.2,1.7-.4,3.9-1.5,7.5-3.3,10.7-6.5,11.6-22.6,20.5-35.3,14.8-11.3-5.1-14.4-18.9-14.5-26.2-.1-16.3,12.7-26,14.2-27.1.9-.6,1.1-1.9.4-2.7-.6-.9-1.9-1.1-2.7-.4-1.4,1-11.9,9-15,22.5-2.3-1.5-4.4-3.3-6.2-5.3,0,0-2.8-3.1-4.9-7.1-2.5-4.8-4-19.4-2.9-39.6-3.5,14.6-2.3,27.2-1.1,34.6-.4.5-.8,1.1-1.2,1.7.5,2,1.1,3.8,1.8,5.1Z"/>
      <path class="cls-2" d="M97.5,159.2c3.1-1.5,10.5-4.9,18.4-1.9,6.7,2.5,9.9,8.3,12,12.1,3.7,6.7,4.3,10.9,3.2,12.1-1,1.1-4.3.4-6.1,0-.5-.1-.9-.2-1.3-.3-10.9-1.9-24.5,9.6-41.7,35.4-.6.9-.4,2.1.5,2.7.9.6,2.1.4,2.7-.5,15.8-23.6,28.9-35.3,37.8-33.7.3,0,.7.1,1.1.2,1.8.4,4.4,1,6.7.5.7,1.4,1.3,2.9,1.7,4.4,1.7,5.7,2.5,11.6,2.1,15.4-2.1,5.1-2.9,10.1-3.2,13.2-.4,5.3.1,10.5,1.6,15.6-7.1,1.5-21.2,5.9-29.2,19.2-2.1,3.5-3.6,7.3-4.5,11.3-.2,1.1.4,2.1,1.5,2.3.1,0,.3,0,.4,0,.9,0,1.7-.6,1.9-1.5.8-3.7,2.1-7.1,4-10.2,7.7-12.9,22.1-16.6,28-17.6.1,0,.2,0,.3,0,4.3,3.5,8,7.6,10.9,12.1,3.9,6.2,4.9,10.7,5.9,15.5,1,4.6,1.9,9.3,5.5,15.4,4.2,7.2,13.2,19.6,27.2,21.2,1.3.1,2.5.2,3.7.2,3.6,0,6.8-.6,9.6-1.8,4.4,7.1,12.2,16.3,24.5,20.6,3.2,1.1,7.1,2.5,11.6,2.5s4.5-.3,6.9-1.2c3.2-1.2,5.8-3,7.8-5.1,0-2.1,0-4.2,0-6.2-2,3.1-4.9,6.2-9.1,7.7-6,2.2-11.4.2-15.8-1.3-11.2-3.9-18.3-12.2-22.4-18.8,1.3-.9,2.4-1.9,3.4-3.1,4.2-5,4.8-10.7,4.7-13.7,0-1.1-.9-1.9-2-1.9-1.1,0-1.9.9-1.9,2,0,2.4-.4,7.1-3.8,11.1-3.6,4.2-9.5,6-16.9,5.2-12.3-1.4-20.5-12.6-24.3-19.2-3.2-5.6-4.1-9.8-5-14.2-1-4.9-2.1-10-6.4-16.8-3.3-5.2-7.6-9.8-12.7-13.8-1.5-4.9-2.1-9.9-1.7-14.9.4-4.4,1.8-12.7,7.1-19.1,7.2-8.8,18.2-10,33.6-11.7,12.9-1.4,26-.9,39.2,1.6,1.1.2,2.1-.5,2.3-1.6.2-1.1-.5-2.1-1.6-2.3-13.5-2.6-27.1-3.1-40.3-1.7-15.6,1.7-28,3.1-36.2,13.1-.4.4-.7.9-1,1.3-.4-3.1-1.1-6.4-2.1-9.8-.6-1.8-1.3-3.6-2.1-5.3,2.3-3,1.3-8.5-3-16.2-.3-.5-.6-1.1-1-1.8,3.9-5.9,11-13.9,22.5-18.9,13.8-6,26.6-4.4,33-2.8,1.1.3,2.1-.4,2.4-1.4.3-1-.4-2.1-1.4-2.4-6.8-1.6-20.6-3.4-35.4,3-11.5,5-18.9,12.8-23.3,19-1.2-1.6-2.6-3.3-4.3-4.8-.5-5.3.3-10.2,2.4-14.5,3.1-6.2,8.8-9.3,14.3-12.3,1.5-.8,3-1.6,4.5-2.5,22.3-13.5,64.8-25.7,90.9-4.1,3.5,2.9,6.6,6.4,9.2,10.3-.6-3-1.3-6-2.1-8.9-1.5-1.6-3-3.1-4.6-4.4-27.6-23-72.2-10.3-95.4,3.7-1.4.8-2.8,1.6-4.3,2.4-5.8,3.2-12.4,6.7-16,14-2,4.1-3,8.6-3,13.5-.8-.4-1.6-.8-2.4-1.1-9.4-3.6-18.1.5-21.4,2-9.7,4.5-14.7,12.1-17.4,16.3-1.6,2.5-3.4,5.1-5.2,7.9,0,.5,0,.8,0,1-3.5,5-7.4,11.6-10.4,19.9-.3.7-.5,1.5-.8,2.2,7.9-11.3,14.2-20.6,19.7-28.9,2.5-3.8,7.1-10.8,15.7-14.8Z"/>
    </g>
  </g>
  <g>
    <path class="cls-1" d="M311.5,387.1c-14.9,6.2-27.2,6.6-34.2,6.2-9-.5-20.3-1.1-24.8-8.5-.6-1-1.6-3-2-18.9-.1-5.9,0-10.8,0-14.3.3-61,.7-122,1-183.1,0-4.7,0-12,1.3-20.8,2.3-16.3,4.8-33.9,17.6-43.6,7.1-5.4,14.5-6.3,22.2-7.2,22.3-2.6,40.8,5.9,50.8,11.7,5.1.5,12.2,1.7,19.9,4.9,12.3,5.1,20.2,12.8,24.4,17.6,5,.5,12.2,2.1,19.2,6.8,20.2,13.6,19.9,40.4,19.9,43,3.5,5,7.4,11.6,10.4,19.9,6.7,18.5,5.4,35,3.9,44,3.4,4.7,8.9,13.5,10.7,25.7,3.3,21-6.2,37.2-9.1,41.7,1.2,4.6,3.7,16.8-1.3,30.9-5.6,15.8-17.1,23.9-20.8,26.4-1.5,4.3-5.6,13.7-15.3,20.8-16.8,12.4-36.3,7.6-39.1,6.8-3.2,2-12.8,7.4-25.7,6.2-17.4-1.7-27.3-14.1-29-16.3Z"/>
    <path class="cls-1" d="M277.3,393.3c-9-.5-20.3-1.1-24.8-8.5-.6-1-1.6-3-2-18.9-.1-5.9,0-10.8,0-14.3,0-5.3,0-10.5,0-15.8,21.9,16.9,46.3,23.4,65.1,15.2,4.1-1.8,8.9-4.8,13.7-9.8,4,.6,22,2.8,35.8-9.1,4-3.4,6.6-7.2,8.5-10.4,4.4.4,11.6.4,19.5-2.6,8.3-3.2,13.7-8.3,16.9-11.7,10.6-11.3,24.6-32.7,37.3-51.6,1.9,4.2,3.5,9.1,4.4,14.8,3.3,21-6.2,37.2-9.1,41.7,1.2,4.6,3.7,16.8-1.3,30.9-5.6,15.8-17.1,23.9-20.8,26.4-1.5,4.3-5.6,13.7-15.3,20.8-16.8,12.4-36.3,7.6-39.1,6.8-3.2,2-12.8,7.4-25.7,6.2-17.4-1.7-27.3-14.1-29-16.3-14.9,6.2-27.2,6.6-34.2,6.2Z"/>
  </g>
  <g>
    <path class="cls-2" d="M340.3,405.4c-15.7-1.5-25.7-11.4-29.4-15.9-11.1,4.4-22.5,6.4-33.7,5.8-9.5-.5-21.3-1.2-26.3-9.4-.8-1.3-1.9-3.2-2.2-19.9,0-4.8,0-9.6,0-14.4l1-183c-.1-7,.3-14.1,1.3-21.2,2.3-16.2,4.9-34.7,18.3-44.9,7.5-5.7,15.4-6.7,23.1-7.6,21.4-2.5,39.8,5,51.6,11.8,6.9.7,13.7,2.3,20,5,9.3,3.9,17.8,9.9,24.6,17.5,7.2.9,13.7,3.3,19.3,7.1,19.9,13.4,20.8,38.8,20.7,44,4.3,6.2,7.8,12.8,10.3,19.8,5,13.8,6.5,29.1,4.1,44.2,5.5,7.8,9.2,16.7,10.6,25.9,3,19.2-4.1,34.5-9,42.3,1.5,6.3,3.1,18.1-1.6,31.3-5.2,14.6-15.2,23.1-21.1,27-2.3,6.1-6.9,14.6-15.8,21.1-16,11.8-34.6,8.6-39.9,7.4-4.4,2.6-12.2,6.2-22.3,6.2s-2.6,0-4-.2ZM366.7,395.3c3.5.9,21.8,5,37.4-6.5,8.4-6.2,12.6-14.3,14.6-19.9.1-.4.4-.7.8-1,5.4-3.5,15.1-11.5,20.1-25.4,4.5-12.7,2.7-24.1,1.3-29.8-.1-.5,0-1.1.2-1.5,4.5-7.1,11.7-21.8,8.8-40.3-1.4-8.8-5-17.5-10.4-24.9-.3-.4-.4-1-.4-1.5,2.4-14.7,1.1-29.6-3.8-43-2.5-6.8-5.9-13.4-10.2-19.4-.2-.3-.4-.8-.4-1.2,0-2.9.2-28.4-19-41.3-5.3-3.6-11.5-5.8-18.3-6.5-.5,0-.9-.3-1.3-.6-6.6-7.4-14.8-13.3-23.7-17.1-6.1-2.6-12.6-4.2-19.3-4.7-.3,0-.6-.1-.8-.3-11.3-6.6-29.1-13.9-49.6-11.5-7.5.9-14.5,1.7-21.2,6.8-12.2,9.3-14.5,26.1-16.8,42.4-1,6.8-1.4,13.7-1.3,20.6l-1,183.1c0,4.7,0,9.5,0,14.3.3,15.7,1.3,17.4,1.7,17.9,3.9,6.5,14.6,7.1,23.2,7.5,11.1.6,22.3-1.4,33.3-6,.8-.3,1.8,0,2.3.6,2.5,3.3,11.9,14,27.6,15.5,11.4,1.1,20.2-3.2,24.5-5.9.3-.2.7-.3,1-.3s.3,0,.5,0Z"/>
    <g>
      <path class="cls-2" d="M348.4,360.9c0,0-.2,0-.3,0-1,0-1.8-.7-1.9-1.7-.2-1.1.6-2.1,1.7-2.2,4.3-.6,19-3.6,25.3-15.6,1.2-2.2,2-4.7,2.4-7.2,0-.5.4-1,.9-1.3.5-.3,1-.4,1.6-.3,13.1,3.4,25.9,0,32.7-8.7,3.7-4.8,4.7-10.2,5-13.9,0-.7.5-1.3,1.1-1.6,3.7-1.9,12.9-7.5,17.5-18.9,3.8-9.4,2.6-18,1.5-22.3-.3-1,.4-2.1,1.4-2.4,1.1-.3,2.1.4,2.4,1.4,1.2,4.7,2.5,14.2-1.7,24.7-4.7,11.7-13.8,17.9-18.4,20.4-.6,5.7-2.5,10.8-5.7,14.9-7.3,9.5-20.8,13.6-34.7,10.6-.5,2.2-1.3,4.4-2.4,6.4-7.1,13.7-23.4,17-28.2,17.6Z"/>
      <path class="cls-2" d="M391.2,370.1c4.7,1.4,9.6,1.9,14.3,1.6,9.1-.6,17.3-4.3,24.1-9.6-3.8,3.9-7.2,6.3-9,7.5-.3.8-.7,1.7-1.1,2.8-4.3,1.7-8.9,2.9-13.7,3.2-3.2.2-6.5,0-9.8-.4,2.1,3.5,2.5,7,2.5,9.4,0,1.1-.9,1.9-2,1.9h0c-1.1,0-1.9-.9-1.9-2,0-2-.3-4.9-2.1-7.7-.8-1.2-1.8-2.3-3-3.3-.7-.6-1-1.6-.5-2.4.4-.8,1.4-1.2,2.3-1Z"/>
      <path class="cls-2" d="M374.4,383.2c.6-.9,1.8-1.2,2.7-.7.9.6,1.2,1.8.7,2.7-2.8,4.5-6,8.7-9.7,12.4-.8-.2-1.5-.3-1.8-.4-1.4.9-4.2,2.5-8,3.9,6.4-4.9,12-11,16.2-17.9Z"/>
      <path class="cls-2" d="M346.6,366.9c.9-.6,2.1-.3,2.7.6.6.9.3,2.1-.6,2.7-10.2,6.5-21.1,12-32.3,16.5-1.4.5-2.7,1-4.1,1.5-.4-.5-.7-.8-.9-1.1-14.2,5.9-26.1,6.5-33.2,6.2,12.6-2.2,24.9-5.6,36.7-10.3,11-4.3,21.6-9.8,31.6-16.1Z"/>
      <path class="cls-2" d="M250.6,344.7c4.3,2.8,9,5.2,14.1,7.3,7.9,3.2,29,11.8,50.5,5.8,7.8-2.2,15-6.2,20.7-11.6.8-.7,2-.7,2.8,0,.7.8.7,2,0,2.8-6.2,5.8-13.9,10.2-22.3,12.5-5.7,1.6-11.4,2.2-16.8,2.2-16.1,0-30-5.6-36.2-8.2-4.4-1.8-8.7-3.9-12.6-6.3v-4.6Z"/>
      <path class="cls-2" d="M297.2,257c6.4,2.4,12.2,6.8,16.8,12.7.7.8.5,2.1-.3,2.7-.8.7-2.1.5-2.7-.3-4.2-5.3-9.4-9.3-15.1-11.4-15.6-5.9-31,2.6-36.8,5.8-2.8,1.5-5.5,3.3-8,5.3,0-1.6,0-3.3,0-4.9,2-1.4,4-2.7,6.1-3.8,6.2-3.4,22.8-12.5,40.1-6Z"/>
      <path class="cls-2" d="M309.2,213.1c8.4,2.4,16.1,6.7,22.3,12.5.8.7.8,2,0,2.8-.7.8-2,.8-2.8,0-5.7-5.4-12.9-9.4-20.7-11.6-21.4-6-42.5,2.6-50.5,5.8-2.2.9-4.4,1.9-6.5,2.9,0-1.5,0-2.9,0-4.4,1.6-.8,3.3-1.5,5-2.2,8.3-3.4,30.3-12.3,53-5.9Z"/>
      <path class="cls-2" d="M276.4,162.7c-9-10.2-9.8-24.9-1.6-33.5,8.5-8.9,22.1-5.7,22.7-5.5,1,.3,1.7,1.3,1.4,2.4-.3,1-1.3,1.7-2.4,1.4-.1,0-12-2.8-19,4.4-7.6,8-4.9,21.4,2.5,29.1,8.6-3.8,19.4-6.5,31.1-4.4,8.4,1.5,16.6,5.4,23.6,11.4.8.7.9,1.9.2,2.8-.7.8-1.9.9-2.8.2-6.5-5.5-14-9.2-21.7-10.5-21.2-3.8-39.4,9.7-46.2,14.7-4.7,3.5-9,7.5-12.8,12,0-2,0-3.9,0-5.9,3.2-3.4,6.7-6.5,10.5-9.2,3-2.2,8-5.9,14.5-9.2Z"/>
      <path class="cls-2" d="M440.5,251.6c-2.4,4.4-5.4,7.7-5.5,7.9-2.4,2.7-5.3,5-8.4,6.9.1,1.1.2,2.3.2,3.5-.1,16.5-9.1,26.4-16.8,29.8-3.1,1.4-6.6,2.1-10.1,2.1s-8.8-1-13.3-3.1c-3.3-1.5-6.4-3.6-9.2-6.1-1.7,6.7-7.9,25-26,32.8-9,3.9-17.6,3.8-23.6,2.9-3.3,4-15.7,17.6-34.2,17.6s-2,0-3.1-.1c-10.4-.8-18.1-5.7-22.8-9.6-.8-.7-.9-1.9-.3-2.8.7-.8,1.9-.9,2.8-.3,4.2,3.5,11.3,7.9,20.6,8.7,20.4,1.7,34-16.1,34.5-16.8.4-.6,1.2-.9,1.9-.8,5.5.9,13.9,1.3,22.6-2.5,19.3-8.3,23.8-29.8,24.3-32.2,0,0,0-.2,0-.2-1.8-1.9-3.3-4-4.5-6.2-2.1-3.7-3.3-7.8-3.8-12.1-.1-1.1.7-2,1.7-2.2,1.1-.1,2,.7,2.2,1.7.4,3.9,1.5,7.5,3.3,10.7,6.5,11.6,22.6,20.5,35.3,14.8,11.3-5.1,14.4-18.9,14.5-26.2.1-16.3-12.7-26-14.2-27.1-.9-.6-1.1-1.9-.4-2.7.6-.9,1.9-1.1,2.7-.4,1.4,1,11.9,9,15,22.5,2.3-1.5,4.4-3.3,6.2-5.3,0,0,2.8-3.1,4.9-7.1,2.5-4.8,4-19.4,2.9-39.6,3.5,14.6,2.3,27.2,1.1,34.6.4.5.8,1.1,1.2,1.7-.5,2-1.1,3.8-1.8,5.1Z"/>
      <path class="cls-2" d="M402.5,159.2c-3.1-1.5-10.5-4.9-18.4-1.9-6.7,2.5-9.9,8.3-12,12.1-3.7,6.7-4.3,10.9-3.2,12.1,1,1.1,4.3.4,6.1,0,.5-.1.9-.2,1.3-.3,10.9-1.9,24.5,9.6,41.7,35.4.6.9.4,2.1-.5,2.7-.9.6-2.1.4-2.7-.5-15.8-23.6-28.9-35.3-37.8-33.7-.3,0-.7.1-1.1.2-1.8.4-4.4,1-6.7.5-.7,1.4-1.3,2.9-1.7,4.4-1.7,5.7-2.5,11.6-2.1,15.4,2.1,5.1,2.9,10.1,3.2,13.2.4,5.3-.1,10.5-1.6,15.6,7.1,1.5,21.2,5.9,29.2,19.2,2.1,3.5,3.6,7.3,4.5,11.3.2,1.1-.4,2.1-1.5,2.3-.1,0-.3,0-.4,0-.9,0-1.7-.6-1.9-1.5-.8-3.7-2.1-7.1-4-10.2-7.7-12.9-22.1-16.6-28-17.6-.1,0-.2,0-.3,0-4.3,3.5-8,7.6-10.9,12.1-3.9,6.2-4.9,10.7-5.9,15.5-1,4.6-1.9,9.3-5.5,15.4-4.2,7.2-13.2,19.6-27.2,21.2-1.3.1-2.5.2-3.7.2-3.6,0-6.8-.6-9.6-1.8-4.4,7.1-12.2,16.3-24.5,20.6-3.2,1.1-7.1,2.5-11.6,2.5s-4.5-.3-6.9-1.2c-3.2-1.2-5.8-3-7.8-5.1,0-2.1,0-4.2,0-6.2,2,3.1,4.9,6.2,9.1,7.7,6,2.2,11.4.2,15.8-1.3,11.2-3.9,18.3-12.2,22.4-18.8-1.3-.9-2.4-1.9-3.4-3.1-4.2-5-4.8-10.7-4.7-13.7,0-1.1.9-1.9,2-1.9,1.1,0,1.9.9,1.9,2,0,2.4.4,7.1,3.8,11.1,3.6,4.2,9.5,6,16.9,5.2,12.3-1.4,20.5-12.6,24.3-19.2,3.2-5.6,4.1-9.8,5-14.2,1-4.9,2.1-10,6.4-16.8,3.3-5.2,7.6-9.8,12.7-13.8,1.5-4.9,2.1-9.9,1.7-14.9-.4-4.4-1.8-12.7-7.1-19.1-7.2-8.8-18.2-10-33.6-11.7-12.9-1.4-26-.9-39.2,1.6-1.1.2-2.1-.5-2.3-1.6-.2-1.1.5-2.1,1.6-2.3,13.5-2.6,27.1-3.1,40.3-1.7,15.6,1.7,28,3.1,36.2,13.1.4.4.7.9,1,1.3.4-3.1,1.1-6.4,2.1-9.8.6-1.8,1.3-3.6,2.1-5.3-2.3-3-1.3-8.5,3-16.2.3-.5.6-1.1,1-1.8-3.9-5.9-11-13.9-22.5-18.9-13.8-6-26.6-4.4-33-2.8-1.1.3-2.1-.4-2.4-1.4-.3-1,.4-2.1,1.4-2.4,6.8-1.6,20.6-3.4,35.4,3,11.5,5,18.9,12.8,23.3,19,1.2-1.6,2.6-3.3,4.3-4.8.5-5.3-.3-10.2-2.4-14.5-3.1-6.2-8.8-9.3-14.3-12.3-1.5-.8-3-1.6-4.5-2.5-22.3-13.5-64.8-25.7-90.9-4.1-3.5,2.9-6.6,6.4-9.2,10.3.6-3,1.3-6,2.1-8.9,1.5-1.6,3-3.1,4.6-4.4,27.6-23,72.2-10.3,95.4,3.7,1.4.8,2.8,1.6,4.3,2.4,5.8,3.2,12.4,6.7,16,14,2,4.1,3,8.6,3,13.5.8-.4,1.6-.8,2.4-1.1,9.4-3.6,18.1.5,21.4,2,9.7,4.5,14.7,12.1,17.4,16.3,1.6,2.5,3.4,5.1,5.2,7.9,0,.5,0,.8,0,1,3.5,5,7.4,11.6,10.4,19.9.3.7.5,1.5.8,2.2-7.9-11.3-14.2-20.6-19.7-28.9-2.5-3.8-7.1-10.8-15.7-14.8Z"/>
    </g>
  </g>
</svg>