<?xml version="1.0" encoding="UTF-8"?>
<svg id="Layer_2" data-name="Layer 2" xmlns="http://www.w3.org/2000/svg" viewBox="0 0 365.83 234.12">
  <defs>
    <style>
      .cls-1 {
        opacity: .9;
      }

      .cls-2 {
        fill: #041189;
        stroke-width: 3px;
      }

      .cls-2, .cls-3 {
        stroke: #041189;
        stroke-miterlimit: 10;
      }

      .cls-4 {
        fill: none;
      }

      .cls-3 {
        fill: #fff;
        stroke-width: 5px;
      }
    </style>
  </defs>
  <g id="Layer_1-2" data-name="Layer 1">
    <g>
      <rect class="cls-4" width="365.83" height="234.12"/>
      <g>
        <g class="cls-1">
          <rect class="cls-3" x="88.13" y="56.4" width="189.57" height="121.32"/>
        </g>
        <g>
          <path class="cls-2" d="M139.71,103.56c8.95,0,16.2-7.26,16.2-16.21s-7.25-16.21-16.2-16.21-16.2,7.26-16.2,16.21,7.25,16.21,16.2,16.21h0ZM139.71,74.73c6.96,0,12.6,5.64,12.6,12.61s-5.64,12.61-12.6,12.61-12.6-5.64-12.6-12.61c0-6.96,5.64-12.6,12.6-12.61h0Z"/>
          <path class="cls-2" d="M226.11,103.56c8.95,0,16.2-7.26,16.2-16.21s-7.25-16.21-16.2-16.21-16.2,7.26-16.2,16.21,7.25,16.21,16.2,16.21h0ZM226.11,74.73c6.96,0,12.6,5.64,12.6,12.61s-5.64,12.61-12.6,12.61-12.6-5.64-12.6-12.61c0-6.96,5.64-12.6,12.6-12.61h0Z"/>
          <path class="cls-2" d="M254.73,117.04c-4.59-3.58-9.9-6.12-15.56-7.44-4.24-1.27-8.63-1.97-13.06-2.1-4.42,0-8.82.71-13.02,2.09-2.99.77-5.88,1.88-8.62,3.29-.04,1.48-.24,2.95-.59,4.39,3.2-1.86,6.64-3.28,10.22-4.23,3.88-1.27,7.93-1.93,12.01-1.95,4.11.13,8.2.8,12.14,1.98,5.18,1.19,10.05,3.51,14.24,6.78l.15.12c1.48,1.07,2.33,2.81,2.26,4.63v13.51h3.6v-13.51c.07-2.99-1.35-5.82-3.78-7.57h0Z"/>
          <path class="cls-2" d="M161.86,116.99c-.33-1.42-.51-2.88-.54-4.34-2.75-1.3-5.61-2.32-8.56-3.06-4.24-1.27-8.63-1.97-13.05-2.1-4.42,0-8.82.71-13.02,2.09-5.63,1.54-10.94,4.08-15.67,7.51-2.33,1.79-3.69,4.57-3.7,7.51v13.51h3.6v-13.51c0-1.82.85-3.53,2.28-4.64,4.38-3.16,9.29-5.5,14.5-6.92,3.87-1.27,7.92-1.93,12-1.95,4.11.13,8.2.8,12.14,1.98,3.5.86,6.86,2.17,10.01,3.91h0Z"/>
          <path class="cls-2" d="M211.53,141.91c-4.59-3.58-9.9-6.12-15.56-7.44-4.24-1.27-8.63-1.97-13.06-2.11-4.42,0-8.81.71-13.01,2.09-5.63,1.54-10.94,4.08-15.67,7.51-2.34,1.79-3.71,4.56-3.72,7.51v13.51h3.6v-13.51c0-1.82.85-3.53,2.28-4.64,4.38-3.16,9.29-5.5,14.5-6.92,3.88-1.28,7.93-1.93,12.01-1.95,4.12.13,8.2.8,12.14,1.98,5.18,1.19,10.05,3.51,14.24,6.78l.15.12c1.48,1.07,2.33,2.81,2.26,4.63v13.51h3.6v-13.51c.07-2.99-1.35-5.82-3.78-7.56h0Z"/>
          <path class="cls-2" d="M182.91,128.43c8.95,0,16.2-7.26,16.2-16.21s-7.25-16.21-16.2-16.21-16.2,7.26-16.2,16.21,7.25,16.21,16.2,16.21h0ZM182.91,99.61c6.96,0,12.6,5.64,12.6,12.61s-5.64,12.61-12.6,12.61-12.6-5.64-12.6-12.61c0-6.96,5.64-12.61,12.6-12.62h0Z"/>
        </g>
      </g>
    </g>
  </g>
</svg>