<?xml version="1.0" encoding="UTF-8"?>
<svg id="Layer_1" data-name="Layer 1" xmlns="http://www.w3.org/2000/svg" version="1.1" viewBox="0 0 64 64">
  <defs>
    <style>
      .cls-1 {
        fill: #f6921e;
      }

      .cls-1, .cls-2, .cls-3, .cls-4 {
        stroke: #000;
        stroke-linecap: round;
        stroke-linejoin: round;
        stroke-width: 2px;
      }

      .cls-5 {
        fill: #2678db;
      }

      .cls-5, .cls-6, .cls-7, .cls-8, .cls-9, .cls-10, .cls-11, .cls-12 {
        stroke-width: 0px;
      }

      .cls-6 {
        fill: #000;
      }

      .cls-7 {
        fill: #ef8b06;
      }

      .cls-8 {
        fill: #ffc9bd;
      }

      .cls-9 {
        fill: #ffa31d;
      }

      .cls-2 {
        fill: #29aae1;
      }

      .cls-10 {
        fill: #208a43;
      }

      .cls-3 {
        fill: none;
      }

      .cls-11 {
        fill: #155b2a;
      }

      .cls-13 {
        display: none;
      }

      .cls-4 {
        fill: #754c24;
      }

      .cls-12 {
        fill: #e21119;
      }
    </style>
  </defs>
  <g id="draft" class="cls-13">
    <path class="cls-2" d="M33,28v6l-5.3,2.6c-1.3.6-1.5,2.4-.4,3.3l2.5,2.1c.7.6,1.6.9,2.6.9h15.1c.9,0,1.8-.3,2.6-.9l2.5-2.1c1.1-.9.9-2.7-.4-3.3l-5.2-2.6v-6l11.4,5.7c1.6.8,2.6,2.4,2.6,4.2h0c0,1.3-.6,2.6-1.5,3.5l-9.8,9c-.4.4-.6.9-.6,1.5v9.1h-18.1v-9.1c0-.6-.2-1.1-.6-1.5l-9.8-9c-1-.9-1.5-2.2-1.5-3.5h0c0-1.8,1-3.4,2.6-4.2l11.3-5.7Z"/>
    <circle class="cls-3" cx="17" cy="17" r="14"/>
    <circle class="cls-3" cx="17" cy="17" r="11"/>
    <circle class="cls-3" cx="17" cy="17" r="2"/>
    <path class="cls-1" d="M40,45h0c1.1,0,2-.9,2-2v-6h-4v6c0,1.1.9,2,2,2Z"/>
    <path class="cls-1" d="M40,41h0c3.9,0,7-3.6,7-8v-8h-14v8c0,4.4,3.1,8,7,8Z"/>
    <line class="cls-3" x1="44" y1="31" x2="42" y2="31"/>
    <line class="cls-3" x1="38" y1="31" x2="36" y2="31"/>
    <path class="cls-4" d="M39,19h2c3.3,0,6,2.7,6,6v4l-4-4-3,2c-2,1.3-4.3,2-6.7,2h-.3v-4c0-3.3,2.7-6,6-6Z"/>
    <line class="cls-3" x1="17" y1="15" x2="17" y2="11"/>
    <polyline class="cls-3" points="19 12 17 10 15 12"/>
    <line class="cls-3" x1="18.7" y1="18" x2="22.9" y2="21"/>
    <polyline class="cls-3" points="21.1 22.2 23.8 21.5 23.1 18.8"/>
  </g>
  <g id="color" class="cls-13">
    <path class="cls-5" d="M33,28v6l-5.3,2.6c-1.3.6-1.5,2.4-.4,3.3l2.5,2.1c.7.6,1.6.9,2.6.9h15.1c.9,0,1.8-.3,2.6-.9l2.5-2.1c1.1-.9.9-2.7-.4-3.3l-5.2-2.6v-6l11.4,5.7c1.6.8,2.6,2.4,2.6,4.2h0c0,1.3-.6,2.6-1.5,3.5l-9.8,9c-.4.4-.6.9-.6,1.5v9.1h-18.1v-9.1c0-.6-.2-1.1-.6-1.5l-9.8-9c-1-.9-1.5-2.2-1.5-3.5h0c0-1.8,1-3.4,2.6-4.2l11.3-5.7Z"/>
    <circle class="cls-7" cx="17" cy="17" r="14"/>
    <circle class="cls-9" cx="17" cy="17" r="11"/>
    <circle class="cls-5" cx="17" cy="17" r="2"/>
    <path class="cls-8" d="M40,45h0c1.1,0,2-.9,2-2v-6h-4v6c0,1.1.9,2,2,2Z"/>
    <path class="cls-8" d="M40,41h0c3.9,0,7-3.6,7-8v-8h-14v8c0,4.4,3.1,8,7,8Z"/>
    <path class="cls-9" d="M39,19h2c3.3,0,6,2.7,6,6v4l-4-4-3,2c-2,1.3-4.3,2-6.7,2h-.3v-4c0-3.3,2.7-6,6-6Z"/>
    <g>
      <path class="cls-6" d="M58.8,32.8l-8.4-4.2c-.5-.2-1.1,0-1.3.4-.2.5,0,1.1.4,1.3l8.4,4.2c1.3.6,2.1,1.9,2.1,3.3s-.4,2-1.2,2.7l-9.8,9c-.6.6-1,1.4-1,2.2v8.3h-16v-8.1c0-.8-.4-1.6-1-2.2l-9.8-9c-.8-.7-1.2-1.7-1.2-2.8s.8-2.7,2.1-3.3l8.4-4.2c.5-.2.7-.8.4-1.3s-.8-.7-1.3-.4l-8.4,4.2c-2,1-3.2,2.9-3.2,5.1s.7,3.1,1.9,4.2l9.8,9c.2.2.3.5.3.7v9.1c0,.6.4,1,1,1h18c.6,0,1-.4,1-1v-9.1c0-.3,0-.5.3-.7l9.8-9c1.2-1.1,1.9-2.6,1.9-4.2,0-2.3-1.2-4.2-3.2-5.2Z"/>
      <path class="cls-6" d="M32,17c0-8.3-6.7-15-15-15S2,8.7,2,17s6.7,15,15,15,15-6.7,15-15ZM17,30c-7.2,0-13-5.8-13-13s5.8-13,13-13,13,5.8,13,13-5.8,13-13,13Z"/>
      <path class="cls-6" d="M17,5c-6.6,0-12,5.4-12,12s5.4,12,12,12,12-5.4,12-12-5.4-12-12-12ZM17,27c-5.5,0-10-4.5-10-10s4.5-10,10-10,10,4.5,10,10-4.5,10-10,10Z"/>
      <path class="cls-6" d="M44,30h-2c-.6,0-1,.4-1,1s.4,1,1,1h2c.6,0,1-.4,1-1s-.4-1-1-1Z"/>
      <path class="cls-6" d="M38,30h-2c-.6,0-1,.4-1,1s.4,1,1,1h2c.6,0,1-.4,1-1s-.4-1-1-1Z"/>
      <path class="cls-6" d="M32,33c0,3.8,2.1,7,5,8.3v.7h-4.6c-.7,0-1.4-.2-1.9-.7l-2.5-2.1c-.3-.2-.4-.5-.4-.9s.2-.6.5-.8l2.3-1.1c.5-.2.7-.8.4-1.3-.2-.5-.8-.7-1.3-.4l-2.3,1.1c-.9.5-1.5,1.3-1.6,2.3s.3,2,1.1,2.7l2.5,2.1c.9.7,2,1.2,3.2,1.2h4.7c.4,1.2,1.5,2,2.8,2s2.4-.8,2.8-2h4.7c1.2,0,2.3-.4,3.2-1.2l2.5-2.1c.8-.7,1.2-1.6,1.1-2.7,0-1-.7-1.9-1.6-2.3l-2.3-1.1c-.5-.2-1.1,0-1.3.4-.2.5,0,1.1.4,1.3l2.3,1.1c.3.2.5.4.5.8s0,.7-.4.9l-2.5,2.1c-.5.4-1.2.7-1.9.7h-4.4v-.7c2.9-1.3,5-4.6,5-8.3v-8c0-3.9-3.1-7-7-7h-2c-3.9,0-7,3.1-7,7v8ZM41,43c0,.6-.4,1-1,1s-1-.4-1-1v-1.1c.3,0,.7,0,1,0s.7,0,1,0v1.1ZM40,40c-3.3,0-6-3.1-6-7v-3c2.3-.1,4.6-.8,6.6-2.2l2.3-1.5,3.1,3.1v3.6c0,3.9-2.7,7-6,7ZM34,25c0-2.8,2.2-5,5-5h2c2.8,0,5,2.2,5,5v1.6l-2.3-2.3c-.3-.3-.9-.4-1.3-.1l-3,2c-1.6,1-3.4,1.7-5.4,1.8v-3Z"/>
      <path class="cls-6" d="M24.8,21.2l-.8-2.7c-.1-.5-.7-.9-1.2-.7-.5.1-.9.7-.7,1.2v.2l-2.2-1.6c0-.2.1-.4.1-.6,0-1.3-.8-2.4-2-2.8v-1.8l.3.3c.2.2.5.3.7.3s.5-.1.7-.3c.4-.4.4-1,0-1.4l-2-2c-.4-.4-1-.4-1.4,0l-2,2c-.4.4-.4,1,0,1.4s1,.4,1.4,0l.3-.3v1.8c-1.2.4-2,1.5-2,2.8s1.3,3,3,3,1.4-.3,1.9-.7l2.5,1.8-.6.2c-.5.1-.9.7-.7,1.2.1.4.5.7,1,.7h.3l2.7-.7c.5-.2.8-.7.7-1.3ZM17,18c-.6,0-1-.4-1-1s.4-1,1-1,1,.4,1,1-.4,1-1,1Z"/>
    </g>
  </g>
  <g id="flat" class="cls-13">
    <path class="cls-5" d="M33,28v6l-5.3,2.6c-1.3.6-1.5,2.4-.4,3.3l2.5,2.1c.7.6,1.6.9,2.6.9h15.1c.9,0,1.8-.3,2.6-.9l2.5-2.1c1.1-.9.9-2.7-.4-3.3l-5.2-2.6v-6l11.4,5.7c1.6.8,2.6,2.4,2.6,4.2h0c0,1.3-.6,2.6-1.5,3.5l-9.8,9c-.4.4-.6.9-.6,1.5v9.1h-18.1v-9.1c0-.6-.2-1.1-.6-1.5l-9.8-9c-1-.9-1.5-2.2-1.5-3.5h0c0-1.8,1-3.4,2.6-4.2l11.3-5.7Z"/>
    <circle class="cls-7" cx="17" cy="17" r="14"/>
    <circle class="cls-9" cx="17" cy="17" r="11"/>
    <path class="cls-8" d="M40,45h0c1.1,0,2-.9,2-2v-6h-4v6c0,1.1.9,2,2,2Z"/>
    <path class="cls-8" d="M40,41h0c3.9,0,7-3.6,7-8v-8h-14v8c0,4.4,3.1,8,7,8Z"/>
    <path class="cls-9" d="M39,19h2c3.3,0,6,2.7,6,6v4l-4-4-3,2c-2,1.3-4.3,2-6.7,2h-.3v-4c0-3.3,2.7-6,6-6Z"/>
    <path class="cls-5" d="M44,30h-2c-.6,0-1,.4-1,1s.4,1,1,1h2c.6,0,1-.4,1-1s-.4-1-1-1Z"/>
    <path class="cls-5" d="M38,30h-2c-.6,0-1,.4-1,1s.4,1,1,1h2c.6,0,1-.4,1-1s-.4-1-1-1Z"/>
    <g>
      <path class="cls-5" d="M18,12.4l.3.3c.2.2.5.3.7.3s.5-.1.7-.3c.4-.4.4-1,0-1.4l-2-2c-.4-.4-1-.4-1.4,0l-2,2c-.4.4-.4,1,0,1.4s1,.4,1.4,0l.3-.3v4.6c0,.6.4,1,1,1s1-.4,1-1v-4.6Z"/>
      <path class="cls-5" d="M24.8,21.2l-.8-2.7c-.1-.5-.7-.9-1.2-.7-.5.1-.9.7-.7,1.2v.2l-4.8-3c-.4-.3-1.1-.2-1.4.2-.3.5-.2,1.1.2,1.4l5.2,3.3-.6.2c-.5.1-.9.7-.7,1.2.1.4.5.7,1,.7h.3l2.7-.7c.6-.2.9-.7.8-1.3Z"/>
    </g>
    <circle class="cls-5" cx="17" cy="17" r="2"/>
  </g>
  <g id="line" class="cls-13">
    <path class="cls-3" d="M30,35.5l-2.3,1.1c-1.3.6-1.5,2.4-.4,3.3l2.5,2.1c.7.6,1.6.9,2.6.9h5.6"/>
    <path class="cls-3" d="M50,29.5l8.4,4.2c1.6.8,2.6,2.4,2.6,4.2h0c0,1.3-.6,2.6-1.5,3.5l-9.8,9c-.4.4-.6.9-.6,1.5v9.1h-18.1v-9.1c0-.6-.2-1.1-.6-1.5l-9.8-9c-1-.9-1.5-2.2-1.5-3.5h0c0-1.8,1-3.4,2.6-4.2l8.4-4.2"/>
    <path class="cls-3" d="M42,43h5.6c.9,0,1.8-.3,2.6-.9l2.5-2.1c1.1-.9.9-2.7-.4-3.3l-2.3-1.2"/>
    <circle class="cls-3" cx="17" cy="17" r="14"/>
    <circle class="cls-3" cx="17" cy="17" r="11"/>
    <circle class="cls-3" cx="17" cy="17" r="2"/>
    <path class="cls-3" d="M38,41v2c0,1.1.9,2,2,2h0c1.1,0,2-.9,2-2v-2"/>
    <path class="cls-3" d="M33,27v6c0,4.4,3.1,8,7,8h0c3.9,0,7-3.6,7-8v-6"/>
    <line class="cls-3" x1="44" y1="31" x2="42" y2="31"/>
    <line class="cls-3" x1="38" y1="31" x2="36" y2="31"/>
    <path class="cls-3" d="M39,19h2c3.3,0,6,2.7,6,6v4l-4-4-3,2c-2,1.3-4.3,2-6.7,2h-.3v-4c0-3.3,2.7-6,6-6Z"/>
    <line class="cls-3" x1="17" y1="15" x2="17" y2="11"/>
    <polyline class="cls-3" points="19 12 17 10 15 12"/>
    <line class="cls-3" x1="19" y1="18.2" x2="22.9" y2="21"/>
    <polyline class="cls-3" points="21.1 22.2 23.8 21.5 23.1 18.8"/>
  </g>
  <path class="cls-11" d="M58.8,32.8l-8.4-4.2c-.5-.2-1.1,0-1.3.4-.2.5,0,1.1.4,1.3l8.4,4.2c1.3.6,2.1,1.9,2.1,3.3s-.4,2-1.2,2.7l-9.8,9c-.6.6-1,1.4-1,2.2v8.3h-16v-8.1c0-.8-.4-1.6-1-2.2l-9.8-9c-.8-.7-1.2-1.7-1.2-2.8s.8-2.7,2.1-3.3l8.4-4.2c.5-.2.7-.8.4-1.3s-.8-.7-1.3-.4l-8.4,4.2c-2,1-3.2,2.9-3.2,5.1s.7,3.1,1.9,4.2l9.8,9c.2.2.3.5.3.7v9.1c0,.6.4,1,1,1h18c.6,0,1-.4,1-1v-9.1c0-.3,0-.5.3-.7l9.8-9c1.2-1.1,1.9-2.6,1.9-4.2,0-2.3-1.2-4.2-3.2-5.2Z"/>
  <path class="cls-12" d="M32,17c0-8.3-6.7-15-15-15S2,8.7,2,17s6.7,15,15,15,15-6.7,15-15ZM17,30c-7.2,0-13-5.8-13-13s5.8-13,13-13,13,5.8,13,13-5.8,13-13,13Z"/>
  <path class="cls-12" d="M17,5c-6.6,0-12,5.4-12,12s5.4,12,12,12,12-5.4,12-12-5.4-12-12-12ZM17,27c-5.5,0-10-4.5-10-10s4.5-10,10-10,10,4.5,10,10-4.5,10-10,10Z"/>
  <path class="cls-11" d="M44,30h-2c-.6,0-1,.4-1,1s.4,1,1,1h2c.6,0,1-.4,1-1s-.4-1-1-1Z"/>
  <path class="cls-11" d="M38,30h-2c-.6,0-1,.4-1,1s.4,1,1,1h2c.6,0,1-.4,1-1s-.4-1-1-1Z"/>
  <path class="cls-10" d="M32,33c0,3.8,2.1,7,5,8.3v.7h-4.6c-.7,0-1.4-.2-1.9-.7l-2.5-2.1c-.3-.2-.4-.5-.4-.9s.2-.6.5-.8l2.3-1.1c.5-.2.7-.8.4-1.3-.2-.5-.8-.7-1.3-.4l-2.3,1.1c-.9.5-1.5,1.3-1.6,2.3s.3,2,1.1,2.7l2.5,2.1c.9.7,2,1.2,3.2,1.2h4.7c.4,1.2,1.5,2,2.8,2s2.4-.8,2.8-2h4.7c1.2,0,2.3-.4,3.2-1.2l2.5-2.1c.8-.7,1.2-1.6,1.1-2.7,0-1-.7-1.9-1.6-2.3l-2.3-1.1c-.5-.2-1.1,0-1.3.4-.2.5,0,1.1.4,1.3l2.3,1.1c.3.2.5.4.5.8s0,.7-.4.9l-2.5,2.1c-.5.4-1.2.7-1.9.7h-4.4v-.7c2.9-1.3,5-4.6,5-8.3v-8c0-3.9-3.1-7-7-7h-2c-3.9,0-7,3.1-7,7v8ZM41,43c0,.6-.4,1-1,1s-1-.4-1-1v-1.1c.3,0,.7,0,1,0s.7,0,1,0v1.1ZM40,40c-3.3,0-6-3.1-6-7v-3c2.3-.1,4.6-.8,6.6-2.2l2.3-1.5,3.1,3.1v3.6c0,3.9-2.7,7-6,7ZM34,25c0-2.8,2.2-5,5-5h2c2.8,0,5,2.2,5,5v1.6l-2.3-2.3c-.3-.3-.9-.4-1.3-.1l-3,2c-1.6,1-3.4,1.7-5.4,1.8v-3Z"/>
  <path class="cls-12" d="M24.8,21.2l-.8-2.7c-.1-.5-.7-.9-1.2-.7-.5.1-.9.7-.7,1.2v.2l-2.2-1.6c0-.2.1-.4.1-.6,0-1.3-.8-2.4-2-2.8v-1.8l.3.3c.2.2.5.3.7.3s.5-.1.7-.3c.4-.4.4-1,0-1.4l-2-2c-.4-.4-1-.4-1.4,0l-2,2c-.4.4-.4,1,0,1.4s1,.4,1.4,0l.3-.3v1.8c-1.2.4-2,1.5-2,2.8s1.3,3,3,3,1.4-.3,1.9-.7l2.5,1.8-.6.2c-.5.1-.9.7-.7,1.2.1.4.5.7,1,.7h.3l2.7-.7c.5-.2.8-.7.7-1.3ZM17,18c-.6,0-1-.4-1-1s.4-1,1-1,1,.4,1,1-.4,1-1,1Z"/>
</svg>