<?xml version="1.0" encoding="UTF-8"?>
<svg id="Line" xmlns="http://www.w3.org/2000/svg" version="1.1" viewBox="0 0 64 64">
  <defs>
    <style>
      .cls-1 {
        fill: #208a43;
      }

      .cls-1, .cls-2 {
        stroke-width: 0px;
      }

      .cls-2 {
        fill: #e21119;
      }
    </style>
  </defs>
  <path class="cls-2" d="M19.3,42.6c.5.3,1.1.1,1.4-.4l8.5-14.7c.3.5.7.9,1.2,1.2l4.5,2.6c.9.5,1.9.6,2.9.3.2,1,.8,1.8,1.7,2.3l4.5,2.6c1.8,1,4,.4,5-1.4,0-.1.1-.3.2-.4,4.2-10.5.3-22.5-9.2-27.9C30.5,1.4,18.1,4,11.1,12.8c-1.2,1.6-.9,3.9.7,5.1.1,0,.2.2.4.2l4.5,2.6c.5.3,1.2.5,1.8.5.4,0,.7,0,1-.2.2,1,.9,1.8,1.7,2.3l4.5,2.6c.5.3,1,.4,1.6.5l-8.5,14.7c-.3.5-.1,1.1.4,1.4,0,0,0,0,0,0ZM35.8,29.5l-4.5-2.6c-.8-.5-1.1-1.5-.6-2.2,0,0,0,0,0,0l9-15.5c1.8,1.9,2.1,4.4,1.9,7.9-.4,3.6-1.3,7-2.8,10.3-.6,1.3-1.2,3.1-3,2.2h0ZM47.2,34c-.4.8-1.3,1.2-2.2.9,0,0-.1,0-.2,0l-4.5-2.6c-.8-.4-1-1.4-.6-2.2,2.7-5.5,4.6-11.7,3.5-17.9,5.3,6,6.8,14.4,3.9,21.8h0ZM17.7,19l-4.5-2.6c-.8-.5-1.1-1.5-.6-2.2,0,0,0-.1.1-.2,5-6.3,13-9.2,20.9-7.6-3.6,1.1-7.6,4.1-11.1,8.5-.9,1-1.7,2.2-2.4,3.3-.4.9-1.4,1.2-2.3.8,0,0,0,0,0,0ZM26.8,24.3l-4.5-2.6c-.4-.2-.7-.6-.8-1.1,0-.4,0-.8.2-1.2.7-1.1,1.5-2.2,2.4-3.2,3.1-3.8,7.8-7.7,11.9-8.2.7,0,1.4,0,2,.1l-9,15.5c-.5.8-1.5,1.1-2.2.6Z"/>
  <path class="cls-1" d="M53.7,48.3c-.2-.3-.5-.5-.9-.5H15.7l-4.4-11.1c-.2-.4-.5-.6-.9-.6h-4.8c-.6,0-1,.5-1,1,0,.1,0,.2,0,.4l6.4,16v5.6c0,.6.5,1,1,1,.5,0,1-.4,1-1v-4.8h32.3v4.8c0,.6.4,1,1,1s1-.4,1-1v-4.8h2.3l2.9,5.3c.2.3.5.5.9.5h5.1c.6,0,1-.4,1-1,0-.2,0-.3-.1-.5l-5.6-10.2ZM54,58l-2.9-5.3c-.2-.3-.5-.5-.9-.5H12.7l-5.7-14.2h2.6l4.4,11.1c.2.4.5.6.9.6h37.2l4.5,8.2h-2.8Z"/>
</svg>