<?xml version="1.0" encoding="UTF-8"?>
<svg id="Layer_2" data-name="Layer 2" xmlns="http://www.w3.org/2000/svg" viewBox="0 0 1844.16 1645.3">
  <defs>
    <style>
      .cls-1 {
        fill: #fbc17d;
      }

      .cls-2 {
        fill: #f68089;
      }

      .cls-3 {
        fill: #5ab1e5;
      }

      .cls-4 {
        fill: #8fc8eb;
      }

      .cls-5 {
        stroke: #576678;
      }

      .cls-5, .cls-6, .cls-7, .cls-8, .cls-9, .cls-10, .cls-11, .cls-12, .cls-13, .cls-14, .cls-15, .cls-16, .cls-17, .cls-18, .cls-19, .cls-20, .cls-21, .cls-22 {
        stroke-linecap: round;
        stroke-linejoin: round;
      }

      .cls-5, .cls-7, .cls-9, .cls-10, .cls-11, .cls-12, .cls-15, .cls-17, .cls-18, .cls-19, .cls-21, .cls-22 {
        fill: none;
      }

      .cls-5, .cls-12, .cls-19, .cls-20 {
        stroke-width: 8.87px;
      }

      .cls-6, .cls-8 {
        stroke: #384b72;
      }

      .cls-6, .cls-8, .cls-16 {
        stroke-width: 8.18px;
      }

      .cls-6, .cls-23 {
        fill: #fefefe;
      }

      .cls-24 {
        fill: #a7d5f4;
      }

      .cls-25 {
        fill: #041189;
      }

      .cls-25, .cls-26 {
        fill-rule: evenodd;
      }

      .cls-27 {
        fill: #374b73;
      }

      .cls-28 {
        fill: #babcc6;
      }

      .cls-29 {
        fill: #cee9f8;
      }

      .cls-30 {
        fill: #e9f8fc;
      }

      .cls-7 {
        stroke: #70b2bd;
      }

      .cls-7, .cls-13 {
        stroke-width: 10.01px;
      }

      .cls-8 {
        fill: #79bac5;
      }

      .cls-31 {
        fill: #5ab3e5;
      }

      .cls-26 {
        fill: #fff;
      }

      .cls-9 {
        stroke: #58697a;
      }

      .cls-9, .cls-11, .cls-15, .cls-18 {
        stroke-width: 11.09px;
      }

      .cls-32 {
        fill: #42aadc;
      }

      .cls-10, .cls-14 {
        stroke: #324b6a;
      }

      .cls-10, .cls-14, .cls-22 {
        stroke-width: 11.74px;
      }

      .cls-33 {
        fill: #d2d6dd;
      }

      .cls-34 {
        fill: #fddbb9;
      }

      .cls-11 {
        stroke: #59697b;
      }

      .cls-12, .cls-15 {
        stroke: #596a7b;
      }

      .cls-13 {
        fill: #7cd7f3;
        stroke: #6fb2bc;
      }

      .cls-35 {
        fill: #5784ac;
      }

      .cls-36 {
        fill: #f8cf81;
      }

      .cls-14 {
        fill: #deeefb;
      }

      .cls-37 {
        fill: #cfe8f7;
      }

      .cls-16 {
        fill: #5ec0c2;
        stroke: #374b71;
      }

      .cls-17 {
        stroke: #5e636d;
        stroke-width: 8.49px;
      }

      .cls-38 {
        fill: #feb78c;
      }

      .cls-39 {
        fill: #cedbe6;
      }

      .cls-40 {
        fill: #596a7b;
      }

      .cls-41 {
        fill: #f89e55;
      }

      .cls-42 {
        fill: #58697b;
      }

      .cls-18 {
        stroke: #5b697b;
      }

      .cls-19 {
        stroke: #576677;
      }

      .cls-43 {
        fill: #feffff;
      }

      .cls-44 {
        fill: #5d6a72;
      }

      .cls-20 {
        fill: #fafbfc;
        stroke: #586876;
      }

      .cls-21 {
        stroke: #3b5769;
        stroke-width: 2.88px;
      }

      .cls-22 {
        stroke: #324b69;
      }
    </style>
  </defs>
  <g id="Layer_1-2" data-name="Layer 1">
    <g>
      <path class="cls-26" d="M1096.24,621.55l134.96,221.04,77.39-47.27-134.97-221.04-77.39,47.27h0ZM612.33,843.7l138.9-219.85-76.68-48.45-138.9,219.84,76.68,48.45h0ZM551,322.21c39.29,0,74.87-15.92,100.62-41.67,25.75-25.75,41.67-61.32,41.67-100.61s-15.92-74.87-41.67-100.61c-25.75-25.75-61.32-41.67-100.62-41.67s-74.87,15.93-100.61,41.67c-25.75,25.75-41.67,61.32-41.67,100.61s15.93,74.87,41.67,100.61c25.75,25.75,61.32,41.67,100.61,41.67h0ZM1150.87,179.92c0,39.29,15.93,74.87,41.67,100.61,25.75,25.75,61.32,41.67,100.61,41.67s74.87-15.92,100.61-41.67c25.75-25.75,41.67-61.32,41.67-100.61s-15.92-74.87-41.67-100.61c-25.75-25.75-61.32-41.67-100.61-41.67s-74.87,15.92-100.61,41.67c-25.75,25.75-41.67,61.32-41.67,100.61h0ZM1563.62,722.04c-25.75,25.75-41.67,61.32-41.67,100.62s15.93,74.87,41.67,100.61c25.75,25.75,61.32,41.67,100.61,41.67s74.87-15.93,100.61-41.67c25.75-25.75,41.67-61.32,41.67-100.61s-15.93-74.87-41.67-100.62c-25.74-25.75-61.32-41.67-100.61-41.67s-74.87,15.93-100.61,41.67h0ZM1393.77,1364.76c-25.75-25.75-61.32-41.67-100.61-41.67s-74.87,15.92-100.61,41.67c-25.75,25.75-41.67,61.32-41.67,100.61s15.93,74.87,41.67,100.61c25.75,25.75,61.32,41.67,100.61,41.67s74.87-15.93,100.61-41.67c25.75-25.75,41.67-61.32,41.67-100.61s-15.92-74.87-41.67-100.61h0ZM693.29,1465.38c0-39.29-15.92-74.87-41.67-100.61-25.75-25.75-61.32-41.67-100.62-41.67s-74.87,15.93-100.61,41.67c-25.75,25.75-41.67,61.32-41.67,100.61s15.93,74.87,41.67,100.61c25.75,25.75,61.32,41.67,100.61,41.67s74.87-15.93,100.62-41.67c25.75-25.75,41.67-61.32,41.67-100.61h0ZM179.92,964.94c39.29,0,74.87-15.93,100.62-41.67,25.75-25.75,41.67-61.32,41.67-100.61s-15.93-74.87-41.67-100.62c-25.75-25.74-61.32-41.67-100.62-41.67s-74.87,15.92-100.61,41.67c-25.75,25.75-41.67,61.32-41.67,100.62s15.93,74.87,41.67,100.61c25.75,25.75,61.32,41.67,100.61,41.67Z"/>
      <path class="cls-25" d="M729.95,161.11h384.26c4.38-42.17,23.33-80.01,51.73-108.41,32.56-32.56,77.54-52.7,127.22-52.7s94.66,20.14,127.22,52.7c32.56,32.56,52.7,77.54,52.7,127.22s-20.14,94.66-52.7,127.23c-6.66,6.66-13.85,12.81-21.49,18.37l96.05,166.36c.2.34.38.69.56,1.05l95.46,165.35c22.38-9.99,47.18-15.55,73.27-15.55,49.68,0,94.66,20.14,127.23,52.7,32.56,32.56,52.7,77.54,52.7,127.22s-20.14,94.66-52.7,127.22c-32.56,32.56-77.54,52.7-127.23,52.7-26.09,0-50.89-5.56-73.27-15.55l-192.11,332.74c7.65,5.56,14.85,11.72,21.52,18.39,32.56,32.56,52.7,77.54,52.7,127.22s-20.14,94.66-52.7,127.22c-32.56,32.56-77.54,52.7-127.22,52.7s-94.66-20.14-127.22-52.7c-28.4-28.39-47.34-66.24-51.73-108.4h-384.26c-4.38,42.17-23.33,80.01-51.72,108.4-32.56,32.56-77.54,52.7-127.22,52.7s-94.66-20.14-127.22-52.7c-32.56-32.56-52.7-77.54-52.7-127.22s20.14-94.66,52.7-127.22c6.67-6.67,13.87-12.82,21.52-18.39l-192.11-332.74c-22.38,9.99-47.18,15.55-73.27,15.55-49.68,0-94.66-20.14-127.22-52.7C20.14,917.31,0,872.33,0,822.65s20.14-94.66,52.7-127.22c32.56-32.56,77.54-52.7,127.22-52.7,26.09,0,50.89,5.56,73.27,15.55l96.06-166.38-.03-.02,96.05-166.36c-7.64-5.56-14.83-11.7-21.49-18.37-32.56-32.56-52.7-77.54-52.7-127.23s20.14-94.66,52.7-127.22C456.34,20.14,501.32,0,551,0s94.66,20.14,127.22,52.7c28.4,28.4,47.34,66.24,51.72,108.41h0ZM1219,881.9c.83.28,1.67.53,2.52.73,7.11,1.72,14.88.75,21.58-3.32l101.08-61.73c8.85-5.4,11.65-16.95,6.25-25.8l-154.53-253.08c-5.4-8.85-16.95-11.65-25.8-6.25l-101,61.69c-1.87,1.14-3.56,2.47-5.07,3.94-81.72-15.94-117.22-13.86-160.41,5.38-21.07-2.56-40.23-3.94-60.31-4.32-18.77-.35-37.96.16-59.9,1.4-1.4-1.36-2.96-2.59-4.67-3.67l-100.06-63.21c-8.77-5.52-20.35-2.89-25.88,5.88l-158.94,251.57c-5.52,8.77-2.89,20.35,5.88,25.88l100.06,63.21c6.66,4.21,14.42,5.31,21.56,3.7,2.4-.54,4.73-1.39,6.92-2.53,2.57,2.3,5.17,4.52,7.79,6.65l1.32,1.06c-10.28,8.62-16.11,20.63-17.2,33.03-1.09,12.36,2.54,25.17,11.15,35.44l5.81,6.93c8.62,10.29,20.63,16.11,33.03,17.21l.54.04c.88,10.28,4.82,20.42,11.95,28.92l6.48,7.74c9.24,11.02,22.1,17.26,35.39,18.43,2.8.25,5.62.27,8.43.06,1.75,7.38,5.19,14.47,10.38,20.67l5.46,6.51c.47.63.99,1.24,1.55,1.82,8.85,10.03,20.9,15.71,33.33,16.81,12.11,1.07,24.64-2.24,34.96-10.16,1.65,3.28,3.69,6.41,6.14,9.34l5.13,6.12c.47.64.99,1.25,1.56,1.83,8.55,9.65,20.17,15.13,32.16,16.19,11.93,1.05,24.29-2.3,34.38-10.28.65-.47,1.27-.98,1.87-1.54l4.84-4.05,18.49,13.39c13.43,9.73,29.39,13.48,44.27,11.67,15.46-1.88,29.84-9.64,39.4-22.83,4.67-6.44,7.74-13.58,9.31-20.98,10.08,3.77,20.85,4.75,31.21,3.09,15.51-2.48,30.08-10.83,39.95-24.46,7.82-10.8,11.58-23.36,11.57-35.81,2.81-.06,5.61-.32,8.38-.76,15.14-2.42,29.37-10.43,39.22-23.47.53-.64,1.01-1.31,1.45-2.01,8.57-12.36,11.94-26.9,10.53-40.91-.05-.43-.09-.86-.15-1.3,15.31-2.58,29.65-10.89,39.41-24.34l.02-.03c7.81-10.78,11.57-23.32,11.57-35.76.99-.31,1.98-.64,2.95-.99,2.26-.81,4.49-1.72,6.68-2.74h0ZM1182.34,834.59l-121.45-198.9c-105.07-20.79-125.56-9.19-198.99,32.4-18.04,10.22-39.11,22.15-66.16,36.35-.31.19-.63.37-.96.54l-.29.15v-.03c-7.45,3.99-12.58,10.7-14.89,18.3-2.22,7.33-1.82,15.47,1.68,22.79.48.76.9,1.55,1.27,2.38,4.11,6.97,10.61,11.82,17.9,14.04,7.33,2.24,15.45,1.84,22.76-1.66.86-.54,1.75-1.01,2.69-1.4l136.51-72.73c8.61-4.59,19.18-1.79,24.45,6.19l195.47,141.59h0ZM1308.6,795.31l-134.97-221.04-77.39,47.27,134.96,221.04,77.39-47.27h0ZM786.69,637.96l-135.11,213.85c2.72,2.5,5.44,4.86,8.17,7.07,2.35,1.91,4.73,3.73,7.15,5.45l29.28-24.53c10.28-8.61,23.09-12.24,35.44-11.15,12.4,1.09,24.41,6.92,33.03,17.21l5.81,6.93c3.14,3.75,5.62,7.84,7.45,12.13,8.62-4.2,18.09-5.84,27.32-5.02,13.29,1.17,26.15,7.41,35.39,18.43l5.81,6.94c.55.59,1.05,1.2,1.52,1.84,4.1,5.16,7.07,10.87,8.93,16.82,5.17-1.19,10.47-1.54,15.69-1.08,12.43,1.1,24.48,6.78,33.33,16.81.56.58,1.08,1.19,1.55,1.82l4.79,5.71c.55.59,1.06,1.21,1.52,1.85,8.3,10.45,11.78,23.27,10.69,35.65-.2,2.3-.56,4.59-1.08,6.84.36.16.72.32,1.07.49,6.16,2.93,11.79,7.16,16.39,12.66l5.14,6.12c.56.6,1.07,1.22,1.54,1.87,4.16,5.26,7.07,11.14,8.74,17.25.33-.58.69-1.14,1.1-1.69,6.09-8.4,17.84-10.28,26.24-4.19l40.33,29.21c5.27,3.82,11.63,5.13,17.61,4.18,5.96-.95,11.57-4.18,15.4-9.46,3.52-4.86,4.91-10.65,4.35-16.21-.53-5.3-2.84-10.42-6.76-14.35l-59.65-43.2c-8.4-6.09-10.28-17.84-4.19-26.24,6.09-8.4,17.84-10.28,26.24-4.19l66.89,48.45c5.27,3.82,11.62,5.13,17.61,4.18,5.95-.95,11.55-4.17,15.37-9.43l.02-.03c3.52-4.86,4.91-10.65,4.35-16.21-.52-5.14-2.7-10.1-6.4-13.99-.83-.54-1.65-1.1-2.46-1.69l-66.89-48.45c-8.4-6.09-10.28-17.84-4.19-26.24,6.09-8.4,17.84-10.28,26.24-4.19l66.08,47.86c.48.31.95.65,1.41,1.01,5.15,3.5,11.26,4.68,17.02,3.76,5.73-.92,11.14-3.94,14.94-8.86.27-.4.56-.8.86-1.19,3.5-5.15,4.68-11.26,3.76-17.02-.95-5.96-4.18-11.57-9.46-15.39l-193.64-140.26-126.5,67.4c-16.73,8.88-35.54,10.14-52.37,5.01-16.32-4.97-30.82-15.93-39.82-31.75-.75-1.11-1.37-2.29-1.86-3.5-8.08-16.27-9.1-34.41-4.16-50.71,5.11-16.81,16.56-31.68,33.2-40.54l.09-.05-.02-.03.29-.15c.34-.18.68-.34,1.03-.5,24.33-12.78,45.12-24.52,63.02-34.65-16.64-.27-34.25.22-54.65,1.36h0ZM674.54,575.41l-138.9,219.84,76.68,48.45,138.9-219.85-76.68-48.45h0ZM681.08,901.49c-.4.37-.82.72-1.25,1.05l-18.31,15.34c-2.28,1.91-3.58,4.62-3.83,7.45-.25,2.87.55,5.8,2.47,8.1l5.81,6.93c1.91,2.28,4.63,3.58,7.45,3.83,2.87.25,5.8-.55,8.1-2.47l58.78-49.25c2.28-1.91,3.58-4.62,3.83-7.45.25-2.87-.55-5.8-2.47-8.1l-5.81-6.93c-1.91-2.28-4.63-3.58-7.45-3.83-2.87-.25-5.8.55-8.1,2.47l-39.22,32.86h0ZM934.44,1065.24l10.83,7.85c5.46,3.95,11.88,5.49,17.81,4.76,5.35-.65,10.24-3.22,13.38-7.54,2.89-3.99,3.9-8.93,3.22-13.82-.7-5.08-3.13-10.06-7.1-14.02l-11.04-8c-1.63-1.18-3.02-2.58-4.15-4.13-1.7,10.8-7.02,21.1-15.79,28.86-.59.57-1.19,1.08-1.83,1.56l-5.34,4.47h0ZM897.88,1006.41c-.22.13-.45.26-.67.38l-42.64,35.72-.36.38c-1.98,2.02-3.05,4.65-3.15,7.3-.1,2.66.74,5.37,2.57,7.56l5.81,6.93c1.91,2.28,4.62,3.58,7.45,3.83,2.86.25,5.79-.55,8.09-2.47l41.51-34.78c2.28-1.91,3.58-4.62,3.83-7.45.25-2.87-.55-5.8-2.47-8.09l-5.81-6.94c-1.04-1.24-2.28-2.18-3.6-2.81-1.52-.72-3.12-1.1-4.68-1.13-.65-.01-1.34.04-2.07.16-.5.08-1.11.25-1.83.5v-.02s-.07.02-.07.02c-.41.14-.74.27-.98.39-.22.1-.52.27-.92.51h0ZM749.44,986.83l.2-.17,32-26.82.11-.09,32.75-27.44.07-.06,1.94-1.62.14-.12c2.93-2.52,4.59-6.03,4.91-9.69.33-3.75-.73-7.6-3.26-10.63l-6.49-7.75c-2.52-3.01-6.09-4.73-9.81-5.05-3.76-.33-7.61.73-10.63,3.27l-78.09,65.42c-3.01,2.52-4.73,6.09-5.05,9.81-.33,3.76.73,7.6,3.27,10.63l6.48,7.74c2.53,3.01,6.1,4.73,9.81,5.06,3.76.33,7.61-.73,10.63-3.27l11.01-9.23h0ZM773.62,1015.58c-2.56,2.21-4.02,5.29-4.3,8.5-.29,3.31.64,6.69,2.87,9.35l6.14,7.33c2.21,2.64,5.35,4.14,8.61,4.43,3.3.29,6.69-.64,9.34-2.86l86.25-72.27c2.64-2.21,4.15-5.35,4.43-8.61.29-3.3-.64-6.69-2.86-9.34l-6.15-7.34c-2.22-2.64-5.35-4.14-8.61-4.43-3.31-.29-6.69.64-9.34,2.86l-18.57,15.56c-.52.49-1.07.95-1.63,1.37l-66.19,55.45h0ZM477.77,344.31l-96.06,166.38-.03-.02-96.05,166.36c7.65,5.56,14.85,11.72,21.52,18.39,32.56,32.56,52.7,77.54,52.7,127.22s-20.14,94.66-52.7,127.22c-6.67,6.67-13.87,12.82-21.52,18.39l192.11,332.74c22.38-9.99,47.18-15.55,73.27-15.55,49.68,0,94.66,20.14,127.22,52.7,28.4,28.4,47.34,66.24,51.72,108.41h384.26c4.38-42.17,23.33-80.01,51.73-108.41,32.56-32.56,77.54-52.7,127.22-52.7,26.09,0,50.89,5.56,73.27,15.55l192.11-332.74c-7.65-5.56-14.85-11.71-21.52-18.39-32.56-32.56-52.7-77.54-52.7-127.22s20.14-94.66,52.7-127.22c6.67-6.67,13.87-12.82,21.52-18.39l-95.48-165.38c-.21-.31-.41-.64-.6-.96l-96.06-166.38c-22.37,9.98-47.16,15.53-73.23,15.53-49.68,0-94.66-20.14-127.22-52.7-28.4-28.4-47.34-66.24-51.73-108.41h-384.26c-4.38,42.17-23.33,80.01-51.72,108.41-32.56,32.56-77.54,52.7-127.22,52.7-26.08,0-50.86-5.55-73.23-15.53h0ZM551,322.21c39.29,0,74.87-15.92,100.62-41.67,25.75-25.75,41.67-61.32,41.67-100.61s-15.92-74.87-41.67-100.61c-25.75-25.75-61.32-41.67-100.62-41.67s-74.87,15.93-100.61,41.67c-25.75,25.75-41.67,61.32-41.67,100.61s15.93,74.87,41.67,100.61c25.75,25.75,61.32,41.67,100.61,41.67h0ZM1293.16,322.21c39.29,0,74.87-15.92,100.61-41.67,25.75-25.75,41.67-61.32,41.67-100.61s-15.92-74.87-41.67-100.61c-25.75-25.75-61.32-41.67-100.61-41.67s-74.87,15.92-100.61,41.67c-25.75,25.75-41.67,61.32-41.67,100.61s15.93,74.87,41.67,100.61c25.75,25.75,61.32,41.67,100.61,41.67h0ZM1664.24,964.94c39.29,0,74.87-15.93,100.61-41.67,25.75-25.75,41.67-61.32,41.67-100.61s-15.93-74.87-41.67-100.62c-25.74-25.75-61.32-41.67-100.61-41.67s-74.87,15.93-100.61,41.67c-25.75,25.75-41.67,61.32-41.67,100.62s15.93,74.87,41.67,100.61c25.75,25.75,61.32,41.67,100.61,41.67h0ZM1293.16,1607.67c39.29,0,74.87-15.93,100.61-41.67,25.75-25.75,41.67-61.32,41.67-100.61s-15.92-74.87-41.67-100.61c-25.75-25.75-61.32-41.67-100.61-41.67s-74.87,15.92-100.61,41.67c-25.75,25.75-41.67,61.32-41.67,100.61s15.93,74.87,41.67,100.61c25.75,25.75,61.32,41.67,100.61,41.67h0ZM179.92,964.94c39.29,0,74.87-15.93,100.62-41.67,25.75-25.75,41.67-61.32,41.67-100.61s-15.93-74.87-41.67-100.62c-25.75-25.74-61.32-41.67-100.62-41.67s-74.87,15.92-100.61,41.67c-25.75,25.75-41.67,61.32-41.67,100.62s15.93,74.87,41.67,100.61c25.75,25.75,61.32,41.67,100.61,41.67h0ZM551,1607.67c39.29,0,74.87-15.93,100.62-41.67,25.75-25.75,41.67-61.32,41.67-100.61s-15.92-74.87-41.67-100.61c-25.75-25.75-61.32-41.67-100.62-41.67s-74.87,15.93-100.61,41.67c-25.75,25.75-41.67,61.32-41.67,100.61s15.93,74.87,41.67,100.61c25.75,25.75,61.32,41.67,100.61,41.67Z"/>
      <g id="Generative_Object" data-name="Generative Object">
        <g>
          <path class="cls-38" d="M574.55,214.52c2.97-2.9,10.56-5.87,12.22-11.52l.2-.34c2.48-.99,2.97-2.09,5.38-.29,8.48,6.33,43.68,41.48,49.85,49.93,6.56,8.98-9.84,25.65-19.16,18.49s-42.54-40.18-49.56-49.56c-1.45-1.94-.73-4.61.88-6.33.09-.1.09-.29.18-.37Z"/>
          <g>
            <path class="cls-30" d="M586.97,202.66l-.2.34c-1.66,5.66-9.25,8.62-12.22,11.52l-.26-.27-15.96-16.32-.23-.54c-51.24,39.92-121.75-17.29-93.24-75.65,28.51-58.37,116.98-37.9,116.98,27.05,0,13.64-4.54,26.93-12.89,37.71l.47.34,17.27,15.57.28.25Z"/>
            <path class="cls-13" d="M516.6,100.13c63.85-4.76,71.48,91.95,7.67,97.25-64.08,5.32-72.13-91.9-8.08-97.22.14-.01.27-.02.41-.03Z"/>
          </g>
        </g>
        <g>
          <polyline class="cls-7" points="569.42 186.83 586.69 202.4 586.97 202.66"/>
          <polyline class="cls-7" points="558.33 197.93 574.29 214.25 574.55 214.52"/>
          <path class="cls-7" d="M574.55,214.52l-.18.37c-1.61,1.72-2.33,4.39-.88,6.33,7.02,9.38,40.11,42.3,49.56,49.56s25.72-9.51,19.16-18.49c-6.17-8.44-41.37-43.6-49.85-49.93-2.41-1.8-2.9-.7-5.38.29"/>
          <path class="cls-7" d="M574.55,214.52c2.97-2.9,10.56-5.87,12.22-11.52l.2-.34"/>
          <path class="cls-7" d="M581.84,148.78c0-64.95-88.47-85.41-116.98-27.05-28.51,58.36,42,115.58,93.24,75.65,4.07-3.17,7.7-6.81,10.86-10.89,8.35-10.79,12.89-24.07,12.89-37.71Z"/>
          <path class="cls-43" d="M549.88,145.83c-.88-14.35-13.55-26.02-27.65-27.42-7.2-1.06-6.04-11.51,1.24-10.94,14.21,1.55,27.58,10.53,33.7,23.62,3.35,6.83,4.18,14.54,3.79,22.05-1.79-.21-4.51.1-6.49.09-1.74-.04-3.04.06-3.67-.57-.38-.41-.78-4.89-.92-6.82h0Z"/>
        </g>
      </g>
      <g id="Generative_Object-2" data-name="Generative Object">
        <g>
          <path class="cls-4" d="M1351.91,137.98l-1.24,1.29-90.18,90.18-1.38,1.16c-8.35-8.65-17.13-16.86-25.6-25.42l-1.29-.92c.51-.93.67-2.06,1.5-2.83,30.53-30.11,60.41-60.91,91-90.96l1.12,1.39c8.71,8.68,17.35,17.42,26.07,26.09Z"/>
          <path class="cls-2" d="M1360.81,78.64c7.32-.72,27.36,19.74,30.69,25.93,5.84,10.88-13.67,24.71-20.88,32.1l-1.31-1.04-33.39-33.82-1.29-1.24c5.81-5.63,19.31-21.26,26.19-21.93Z"/>
          <path class="cls-32" d="M1266.74,239.22l-.81-1.58c-2.27-2.35-4.56-4.67-6.82-7.02l1.38-1.16,90.18-90.18,1.24-1.29c2.54,2.53,5.08,5.07,7.62,7.6l1.27.96c-30.18,30.61-60.99,60.61-91.23,91.16-.76.84-1.9,1-2.83,1.51Z"/>
          <path class="cls-34" d="M1259.11,230.62c2.27,2.35,4.55,4.68,6.82,7.02l.81,1.58c-9.4,5.24-25.3,10.75-35.76,14.91h0c-.95.37-1.89.79-2.85,1.16-.13.05-.26.11-.4.16l-.98-1.42-9.36-9.36-1.18-1.06c-.05.13-.09.26-.14.39.05-.13.09-.26.14-.39,4.08-11.28,10.42-29.18,16-39.32l1.29.92c8.47,8.55,17.25,16.76,25.6,25.42Z"/>
          <path class="cls-44" d="M1228.13,255.29c-.13.05-.26.11-.4.16-4.03,1.56-13.27,7.33-16.27,2.73-.6-.92,3.91-12.27,4.6-14.18.05-.13.09-.26.14-.39l1.18,1.06,9.36,9.36.98,1.42c.13-.05.26-.11.4-.16Z"/>
        </g>
        <g>
          <line class="cls-21" x1="1335.91" y1="101.82" x2="1369.31" y2="135.64"/>
          <path class="cls-21" d="M1230.98,254.13c10.46-4.15,26.36-9.66,35.76-14.91.93-.52,2.07-.68,2.83-1.51,30.24-30.55,61.04-60.56,91.23-91.16,3.26-3.3,6.58-6.55,9.82-9.87,7.21-7.39,26.72-21.22,20.88-32.1-3.33-6.2-23.37-26.65-30.69-25.93-6.87.68-20.37,16.3-26.19,21.93-3.35,3.25-6.57,6.65-9.9,9.92-30.6,30.05-60.47,60.84-91,90.96-.83.76-.99,1.9-1.5,2.83-5.58,10.15-11.92,28.04-16,39.32-.05.13-.09.26-.14.39-.69,1.91-5.2,13.26-4.6,14.18,3,4.6,12.24-1.17,16.27-2.73.13-.05.26-.11.4-.16.96-.37,1.9-.79,2.85-1.16h0Z"/>
          <path class="cls-21" d="M1233.5,205.2c8.47,8.55,17.25,16.76,25.6,25.42,2.27,2.35,4.55,4.68,6.82,7.02"/>
          <path class="cls-21" d="M1325.84,111.9c8.71,8.68,17.35,17.42,26.07,26.09,2.54,2.53,5.08,5.07,7.62,7.6"/>
          <line class="cls-21" x1="1332.14" y1="120.35" x2="1241.68" y2="211.23"/>
          <line class="cls-21" x1="1350.67" y1="139.28" x2="1260.48" y2="229.46"/>
          <line class="cls-21" x1="1217.4" y1="244.67" x2="1226.76" y2="254.03"/>
        </g>
      </g>
      <g id="Generative_Object-3" data-name="Generative Object">
        <g>
          <path class="cls-3" d="M1755.59,763.32c4.79,23.85-3.24,61.58.35,86.83.33,6.53-.82,13.35-.99,19.73l-1.76-.67c-4.95-4.02-10.25-5.92-16.36-3.26v-101.54c1.37-4.74,6.38-5.81,10.69-4.58,2.99.85,4.49,4.93,7.9,3.05.03.15.14.29.17.44Z"/>
          <path class="cls-31" d="M1598.07,763.33c.4,2.33-.09,6.16,0,8.76,1.12,30.84,1.25,66.68,0,97.48-1.01.02-1.93-.46-2.8-.88-6.36-3.04-8.44-5.79-15.97-2.75v-101.54c.86-4.43,6.47-5.76,10.25-5.02,3.03.59,4.8,5.19,8.51,3.93Z"/>
          <path class="cls-29" d="M1598.07,763.33c-3.71,1.26-5.48-3.34-8.51-3.93-3.78-.74-9.39.59-10.25,5.02v101.54c-1.73.7-3.36,2.05-4.99,2.99-.83.48-1.59.94-2.53,1.2-1.25-36.08.3-72.45.36-108.56,4.58-14.11,23.34-13.24,25.92,1.75Z"/>
          <path class="cls-37" d="M1755.59,763.32c-.03-.15-.14-.28-.17-.44-3.41,1.87-4.91-2.2-7.9-3.05-4.31-1.23-9.32-.16-10.69,4.58v101.54c-2.26.98-4.1,2.89-6.24,4.09l-.72.4c-.72-32.04-1.56-65.92-.45-97.89.1-2.76-.46-7.25,0-9.65,2.82-14.83,22.59-15.43,26.01,0,.03.15.14.29.17.44Z"/>
          <g>
            <path class="cls-39" d="M1729.41,772.55c-1.11,31.98-.27,65.85.45,97.89l.72-.4-.72.4c.13,5.63-3.33,9.43,5.44,10.26.97-8.04,10.28-10.45,15.93-5.45,1.67,1.48.3,4.24,4.54,3.27-.33,8.91-4.56,13.4-13.26,15.18l-157.08.09c-2.86-.62-5.48-1.14-7.85-3.05,1.71-8.17-1.62-20.2,11.56-17.89,2.96.52,6.71,6.45,8.94,3.93.24-.27-.03-6.1.01-7.2,1.24-30.81,1.12-66.64,0-97.48l131.33.45Z"/>
            <path class="cls-14" d="M1614.12,785.23c11.38,1.67,95.31-2.7,99.07.52,3.08,2.65-.36,72.12.89,81.25v.44s-100.29-.36-100.29-.36l.34-81.85Z"/>
          </g>
        </g>
        <g>
          <line class="cls-22" x1="1599.82" y1="765.51" x2="1727.67" y2="765.06"/>
          <path class="cls-22" d="M1753.19,869.21c-4.95-4.02-10.25-5.92-16.36-3.26-2.26.98-4.1,2.89-6.24,4.09l-.72.4c-.72-32.04-1.56-65.92-.45-97.89.1-2.76-.46-7.25,0-9.65,2.82-14.83,22.59-15.43,26.01,0,.03.15.14.29.17.44,4.79,23.85-3.24,61.58.35,86.83.33,6.53-.82,13.35-.99,19.73-.07,2.63.93,5.47.82,8.63-.33,8.91-4.56,13.4-13.26,15.18l-157.08.09c-2.86-.62-5.48-1.14-7.85-3.05-7.93-6.41-5.47-11.91-5.77-20.6-1.25-36.08.3-72.45.36-108.56,4.58-14.11,23.34-13.24,25.92,1.75.4,2.33-.09,6.16,0,8.76,1.12,30.84,1.25,66.68,0,97.48-.04,1.1.22,6.93-.01,7.2"/>
          <path class="cls-22" d="M1595.66,868.91l-.38-.22c-6.36-3.04-8.44-5.79-15.97-2.75-1.73.7-3.36,2.05-4.99,2.99"/>
          <line class="cls-10" x1="1663.96" y1="865.86" x2="1663.96" y2="846.23"/>
          <line class="cls-10" x1="1664" y1="786.88" x2="1663.46" y2="800.41"/>
          <line class="cls-10" x1="1712.4" y1="825.72" x2="1698.87" y2="825.72"/>
          <line class="cls-10" x1="1615.53" y1="825.27" x2="1680.11" y2="825.26"/>
          <line class="cls-10" x1="1663.96" y1="822.23" x2="1663.96" y2="820.48"/>
        </g>
      </g>
      <g id="Generative_Object-4" data-name="Generative Object">
        <g>
          <path class="cls-41" d="M1268.42,1412.77l.78,1.09c29.54,46.13,64.81,88.25,96.92,132.58.57,1.07.83,2.18.58,3.39-.54,2.64-16.35,13.2-19.57,14.96l-5.01-4.97c-18.02-29.34-35.15-59.41-53.73-88.4-2.84-4.43-22.62-35.46-24.68-36.22-.68-.25-3.99,2.71-4.93,3.09-2.79-3.85-4.94-8.27-8.63-11.41l-.91-1.04c6.24-3.85,13.25-8.72,19.18-13.06Z"/>
          <path class="cls-33" d="M1268.42,1412.77c-5.93,4.35-12.94,9.22-19.18,13.06-1.42.87-5.24,3.99-6.45,4.07-1.89.12-5.65-2.61-9.4-2.68-7.85-.16-10.21,5.49-11.66,11.89l-1.53-1.07c-1.55-2.23-3.03-4.5-4.59-6.73-1.63,1.86-14.55,9.31-14.92,10.28-.51,1.38,7.3,8.68,3.06,9.82-1.27-1.09-18.46-26.05-19.03-27.62-.53-1.45-.91-2.35-.16-3.89l5.44,6.79c4.72-4.19,9.87-7.95,15.9-9.62,2.38,3.5,4.75,7.01,7.15,10.5,2.68-.77-.63-3.74-.84-6-.63-6.79,9.36-8.75,12.34-12.47.52-.65-.27-6.83,1.4-9.07,1.97-2.65,26.32-19.05,30.43-21.27,6.54-3.54,14.98-4.44,22.29-3.82,3.5.29,17.25,4.64,18.16,4.41,1.04-.27,1.73-.79,2-1.91,6.84,3.43,16.68,10.8,21.04,17.06,8.96,12.86-9.82.74-13.88-.83-9.23-3.57-19.78-6.12-29.56-3.35-14.19,4.01-4.65,8.17-.95,16.56.01,1.79-4.1,3.76-5.56,4.87-.47.36-1.01.67-1.5,1.02Z"/>
          <path class="cls-1" d="M1347.13,1564.79c-3.29,1.79-5.26,4.06-8.95.69-27.02-41.73-50.29-86.96-79.4-127.2.94-.38,4.26-3.34,4.93-3.09,2.05.76,21.84,31.79,24.68,36.22,18.58,28.99,35.71,59.06,53.73,88.4l5.01,4.97Z"/>
          <path class="cls-28" d="M1221.73,1439.12c-.38,1.67.99,2.6-.73,4.88-.47.63-12.18,8.6-12.94,8.81-2.59.72-2.66.02-4.31-1.4,4.24-1.14-3.58-8.44-3.06-9.82.36-.97,13.29-8.42,14.92-10.28,1.55,2.23,3.04,4.5,4.59,6.73l1.53,1.07Z"/>
        </g>
        <g>
          <path class="cls-17" d="M1269.93,1411.75c1.45-1.11,5.57-3.08,5.56-4.87-3.7-8.39-13.24-12.54.95-16.56,9.78-2.77,20.33-.22,29.56,3.35,4.06,1.57,22.84,13.69,13.88.83-4.36-6.25-14.2-13.63-21.04-17.06-12.56-6.29-30.23-10.06-43.79-5.02-3.15,1.17-33.83,21.31-35.15,23.08-2.49,3.35,1.94,10.32-6.05,14.95-7.03,4.07-11.29-1.02-15.33-.27-.84.16-13.57,8.95-13.94,9.72-.75,1.54-.37,2.44.16,3.89.58,1.57,17.76,26.53,19.03,27.62,1.65,1.41,1.72,2.12,4.31,1.4.75-.21,12.47-8.19,12.94-8.81,1.71-2.28.35-3.21.73-4.88,1.45-6.4,3.81-12.06,11.66-11.89,3.76.08,7.52,2.81,9.4,2.68,1.22-.08,5.04-3.2,6.45-4.07,6.24-3.85,13.25-8.72,19.18-13.06.49-.36,1.03-.66,1.5-1.02Z"/>
          <path class="cls-17" d="M1201.57,1410.69l4.34,6.37c2.38,3.5,4.75,7.01,7.15,10.5.86,1.25,1.69,2.51,2.55,3.75,1.55,2.23,3.04,4.5,4.59,6.73"/>
          <path class="cls-17" d="M1250.15,1426.87c3.69,3.14,5.84,7.56,8.63,11.41,29.11,40.24,52.38,85.47,79.4,127.2,3.69,3.37,5.66,1.11,8.95-.69,3.23-1.76,19.04-12.32,19.57-14.96.25-1.21-.01-2.32-.58-3.39-32.11-44.33-67.38-86.45-96.92-132.58"/>
        </g>
      </g>
      <g id="Generative_Object-5" data-name="Generative Object">
        <g>
          <path class="cls-24" d="M520.16,1384.17c-.25,2.42-1.16,10.12-.77,11.94l-.1.49c-5.33-.94-21.83-3.85-23.07,3.06l-.18,153.29c.7,3.53,1.51,4.06,5.05,4.59,30.76-3.52,69.31,3.65,99.13-.28,2.18-.29,4.27-.06,4.59-2.94v-155.58c-1.68-5.83-17.8-2.19-22.95-3.21l-1.71.17c.45-3.34.54-8.17.33-11.56l1.84-.08c10.36,1.84,30.85-5.38,34.88,7.8-1.77,52.92,2.84,107.96.46,160.63-.37,8.17.54,14.76-9.64,16.52h-115.2c-5.78-1.06-8.08-3.4-9.18-9.18v-167.06c2.85-14.64,24.36-6.7,34.88-8.72l1.64.11Z"/>
          <path class="cls-23" d="M519.29,1396.6l.2-.02c.18.65,1.76,3.26,2.17,3.54h57.3c1.57-.52,1-2.97,1.19-4.42l1.71-.17c5.15,1.02,21.27-2.62,22.95,3.21v155.58c-.32,2.88-2.41,2.65-4.59,2.94-29.83,3.93-68.37-3.25-99.13.28-3.54-.53-4.35-1.06-5.05-4.59l.18-153.29c1.24-6.91,17.74-4,23.07-3.06Z"/>
          <g>
            <path class="cls-36" d="M580.49,1384.14c.21,3.38.12,8.21-.33,11.56-.2,1.46.37,3.9-1.19,4.42h-57.3c-.41-.28-2-2.9-2.17-3.54l-.2.02.1-.49c-.39-1.83.52-9.52.77-11.94.21-2.07-.01-4.2.48-6.23.93-1.07,13.52.42,14.75-.42,1.11-.76.26-5.21.84-6.78,3.62-9.73,18.4-11.86,25.43-4.96,2.92,2.87,4.2,10.67,5.45,11.57,1.5,1.08,11.48-.5,12.6.59.94.91.67,4.75.77,6.2Z"/>
            <path class="cls-20" d="M548.82,1372.12c4.22-1.82,10.17,4.82,4.59,8.26-5.69,3.51-10.89-5.55-4.59-8.26Z"/>
          </g>
        </g>
        <g>
          <path class="cls-9" d="M518.53,1384.05c-10.52,2.02-32.04-5.92-34.88,8.72v167.06c1.1,5.78,3.4,8.12,9.18,9.18h115.2c10.18-1.76,9.27-8.35,9.64-16.52,2.38-52.67-2.23-107.72-.46-160.63-4.03-13.18-24.52-5.96-34.88-7.8"/>
          <path class="cls-9" d="M521.66,1400.12c-.41-.28-2-2.9-2.17-3.54-.04-.15-.07-.31-.1-.46-.39-1.83.52-9.52.77-11.94.21-2.07-.01-4.2.48-6.23.93-1.07,13.52.42,14.75-.42,1.11-.76.26-5.21.84-6.78,3.62-9.73,18.4-11.86,25.43-4.96,2.92,2.87,4.2,10.67,5.45,11.57,1.5,1.08,11.48-.5,12.6.59.94.91.67,4.75.77,6.2.21,3.38.12,8.21-.33,11.56-.2,1.46.37,3.9-1.19,4.42h-57.3Z"/>
          <path class="cls-9" d="M519.29,1396.6c-5.33-.94-21.83-3.85-23.07,3.06l-.18,153.29c.7,3.53,1.51,4.06,5.05,4.59,30.76-3.52,69.31,3.65,99.13-.28,2.18-.29,4.27-.06,4.59-2.94v-155.58c-1.68-5.83-17.8-2.19-22.95-3.21"/>
          <polyline class="cls-12" points="523.97 1420.6 516.95 1429.4 512.49 1425.77"/>
          <polyline class="cls-12" points="523.97 1445.39 516.94 1454.18 512.88 1451.09"/>
          <path class="cls-42" d="M527.39,1472.13l-7.59,9.02c-1.8,2.2-5.33,2.06-6.98-.24,0,0-2.47-3.37-2.47-3.37-1.95-2.39-5.95-7.15-5.62-10.16,2.05-7.43,9.19,2.15,12.78,4.92l2.47,3.37-6.98-.24,7.59-9.02c3.91-4.37,10.43,1.11,6.79,5.71h0Z"/>
          <path class="cls-40" d="M526.5,1497.07l-6.16,7.26c-1.53,1.8-4.2,2.07-6.06.66l-4.08-3.09c-1.95-1.48-2.34-4.26-.86-6.22,1.48-1.95,4.26-2.34,6.22-.86l4.08,3.09-6.06.66,6.16-7.26c1.3-1.76,2.93-3.86,4.37-5.38,1.06-1.04,1.87-2.03,3.17-2.26,3.43-.15,5,4.33,3.52,7.53-.83,1.37-3.12,4.29-4.28,5.85,0,0,1.17-1.55,0,0Z"/>
          <path class="cls-42" d="M526.03,1521.41l-6.48,7.56c-1.59,1.86-4.4,2.08-6.26.48-.52-.38-2.45-3.12-2.89-3.66-2.1-2.82-6.78-7.99-6.85-11,.67-1.05,2.08-2.24,3.42-3.14,2.23-1.51,3.5.63,5.7,3.05,1.54,1.87,3.11,4.1,4.81,5.74l2.24,2.97-6.91-.21,6.48-7.56c2.15-2.59,4.21-6.16,6.92-7.93,4.43-1.22,6.34,3.66,4.46,7.43-.21.42-2.15,3.02-4.64,6.28h0Z"/>
          <line class="cls-19" x1="537.8" y1="1427.1" x2="589.21" y2="1426.81"/>
          <line class="cls-15" x1="589.66" y1="1450.6" x2="537.8" y2="1450.6"/>
          <line class="cls-18" x1="589.66" y1="1474.47" x2="537.8" y2="1474.47"/>
          <line class="cls-11" x1="589.66" y1="1498.33" x2="537.8" y2="1498.33"/>
          <line class="cls-5" x1="536.43" y1="1522.66" x2="590.58" y2="1522.66"/>
        </g>
      </g>
      <g id="Generative_Object-6" data-name="Generative Object">
        <g>
          <path class="cls-35" d="M231.84,833.51c-.07.12-.09.26-.15.39-4.3,8.17,6.72,18.09,14.79,12.02,11.26-8.47-2.81-24.55-13.1-14.71-.13.13-.26.25-.39.39-2.98-2.27,1.62-6.81,2.7-9.82,1.25-3.49,2.62-7.89,3.08-11.56.35-2.79-.27-13.96,0-14.64.64-1.63,2.86-.89,3.85-.58,29.37,9.33,49.1,43,25.81,68.95-1.95,2.18-9.2,7.75-9.86,9.24-1.3,2.96,5.63,28.07,3.74,29.43l-30.08-18.49c-18.82,4.81-55.55.7-68.95-14.41-.66-.74-2.06-3.07-.96-3.85.43-.3,8.75-.49,10.4-.77,16.32-2.72,33.26-9.53,45.84-20.42,1.92-1.66,9.5-10.73,10.21-10.98.97-.34,2.01-.34,2.93.19.06-.12.09-.27.15-.39Z"/>
          <g>
            <path class="cls-8" d="M154.41,749.38c32.26-.66,79.57,18.62,76.89,57.16-2.55,36.71-47.6,52.18-78.81,51.62-3.22-.06-13.05-1.91-15.02-1.39-8.22,2.16-23.03,16.69-31.59,19.8-.55.2-1.87.71-2.31.46-.93-.52-.96-1.76-1-2.7-.21-4.42,5.45-26.44,4.39-28.89-.72-1.68-11.3-9.9-14.02-13.17-36.14-43.48,18.59-82.01,61.48-82.9Z"/>
            <path class="cls-6" d="M188.72,793.26c13.77-2.24,17.06,18.86,3.17,20.83s-16.71-18.63-3.17-20.83Z"/>
            <path class="cls-6" d="M121.32,793.3c13.8-2.12,16.9,19.02,2.98,20.88-13.64,1.82-16.55-18.79-2.98-20.88Z"/>
            <path class="cls-6" d="M155.21,793.28c13.82-1.86,16.51,19.31,2.58,20.89s-16.16-19.07-2.58-20.89Z"/>
          </g>
          <path class="cls-16" d="M231.84,833.51c.34-.57.77-1.53,1.16-1.93.13-.13.25-.26.39-.39,10.29-9.84,24.35,6.25,13.1,14.71-8.07,6.07-19.09-3.85-14.79-12.02.06-.12.09-.27.15-.39Z"/>
        </g>
        <path class="cls-27" d="M243.86,791.09c29.12,8.94,50.86,42.58,31.62,70.48-1.74,2.44-3.7,5.02-5.94,6.99-2.38,2.12-5.87,5.06-7.34,6.53.1-.18.23-.52.28-.75.02-.1.02-.07.02-.12,0,0,0,.04,0,.12.65,8.73,3.55,17.29,4.21,26.12.06,1.12,0,2.56-.56,3.72-.95,2.22-3.96,3.28-5.99,1.92,0,0-30.08-18.49-30.08-18.49l3.15.48c-21.16,5.02-57.73.98-73.02-15.65-3.78-3.12-7.55-6.57-11.04-10.14,2.47.26,7.84-1.25,10.49-1.27.19,0,.21.07.36.17,2.02,1.63,4.36,4.05,6.3,5.82,3.42,3.8,8.38,6.66,13.63,8.79,15.5,5.98,35.01,7.97,51.25,4.37,1.11-.28,2.25-.08,3.15.48,0,0,30.08,18.49,30.08,18.49l-4.52.16c-.63.44-1.05,1.02-1.29,1.69,0,0-.06.19-.06.19-.05.22-.04.19-.04.19-.53-7.53-2.73-14.84-3.79-22.41-.33-2.71-1.11-6.2.81-8.61,2.92-3.46,6.76-6,9.74-9.03,8.06-8.63,11.51-20.9,7.8-32.24-4.57-14.48-17.4-25.59-31.71-30.18-2.22-.64-4.83-1.33-6.49-2.99-1.58-1.57-2.41-4.02-2.11-8.29,3.74.98,7.44,2.16,11.08,3.49h0Z"/>
      </g>
    </g>
  </g>
</svg>