<?xml version="1.0" encoding="UTF-8"?><svg id="Layer_2" data-name="Layer 2" xmlns="http://www.w3.org/2000/svg" viewBox="0 0 432.27 432.27"><defs><style>.cls-1 {
        fill: #bf1920;
      }

      .cls-2 {
        fill: #fff;
        opacity: .9;
        stroke: #041189;
        stroke-miterlimit: 10;
        stroke-width: 5px;
      }</style></defs><g id="Layer_1-2" data-name="Layer 1"><g><rect class="cls-2" x="2.5" y="2.5" width="427.27" height="427.27" rx="12" ry="12"/><g id="g3"><g id="g5"><g id="g7"><g id="g9"><path id="path11" class="cls-1" d="M115.12,241.4c-13.95,0-25.25-11.31-25.25-25.26s11.3-25.25,25.25-25.25c4.92,0,9.51,1.4,13.38,3.83l-13.38,21.42,25.2-14.55c-2.74-4.36-6.66-8.12-11.41-10.97-6.04-3.62-14.45-5.86-23.74-5.86-13.26,0-24.88,4.82-31.37,12.03-4.8,5.33-7.66,12.04-7.66,19.34s2.86,14.02,7.66,19.36c6.5,7.22,17.96,12.01,30.99,12.01s24.49-4.79,30.99-12.01c.36-.4.7-.8,1.03-1.22l-.98-3.68c-4.57,6.53-12.14,10.8-20.71,10.8"/><path id="path13" class="cls-1" d="M198.65,245.99l-10.58-39.45c-1.7-6.38-7.5-11.06-14.42-11.06-1.79,0-3.51.32-5.1.9l-22.77,8.28h23.42l4,14.94c-3.88-3.34-8.94-5.37-14.47-5.37-10.99,0-19.89,7.37-19.89,16.45s8.9,16.46,19.89,16.46c7.91,0,14.91-3.87,19.23-9.82l2.32,8.67h18.37M166.4,239.86c-5.07,0-9.18-4.11-9.18-9.18s4.11-9.18,9.18-9.18,9.18,4.11,9.18,9.18-4.11,9.18-9.18,9.18Z"/><path id="path15" class="cls-1" d="M241.77,195.49c-1.39,0-2.7.31-3.87.86l-14.62,6.81c-.72-4.35-4.5-7.67-9.06-7.67-1.38,0-2.7.31-3.88.86l-17.85,8.32h12.55v41.33h18.37v-36.73c0-2.53,2.05-4.6,4.59-4.6s4.59,2.06,4.59,4.6v36.73h18.36v-41.33c0-5.07-4.11-9.17-9.18-9.17"/><path id="path17" class="cls-1" d="M356.96,195.49c-1.39,0-2.71.31-3.9.86l-14.6,6.81c-.72-4.35-4.5-7.67-9.06-7.67-1.38,0-2.7.31-3.88.86l-17.84,8.32h12.54v41.33h18.36v-36.73c0-2.53,2.05-4.6,4.6-4.6s4.59,2.06,4.59,4.6v36.73h18.38v-41.33c0-5.07-4.12-9.17-9.18-9.17"/><path id="path19" class="cls-1" d="M310.64,221.5c0,14.37-11.64,26.01-26.01,26.01s-26.03-11.64-26.03-26.01,11.65-26.01,26.03-26.01,26.01,11.65,26.01,26.01M285.71,203.38c-.82-3.06-3.96-4.88-7.02-4.05-3.06.82-4.88,3.97-4.06,7.03l8.92,33.26c.83,3.06,3.96,4.88,7.02,4.07,3.06-.83,4.88-3.98,4.06-7.03l-8.92-33.27Z"/></g></g></g></g></g></g></svg>