<?xml version="1.0" encoding="UTF-8"?><svg xmlns="http://www.w3.org/2000/svg" xmlns:xlink="http://www.w3.org/1999/xlink" viewBox="0 0 432.27 432.27"><defs><style>.cls-1 {
        mask: url(#mask);
      }

      .cls-2, .cls-3 {
        fill-rule: evenodd;
      }

      .cls-2, .cls-4 {
        fill: #fff;
      }

      .cls-5 {
        fill: #1f9cf0;
      }

      .cls-6 {
        fill: #0065a9;
      }

      .cls-7 {
        isolation: isolate;
      }

      .cls-8 {
        mix-blend-mode: overlay;
        opacity: .25;
      }

      .cls-9 {
        fill: #007acc;
      }

      .cls-3 {
        fill: url(#linear-gradient);
      }

      .cls-4 {
        opacity: .9;
        stroke: #041189;
        stroke-miterlimit: 10;
        stroke-width: 5px;
      }</style><mask id="mask" x="66.14" y="67" width="300" height="298.27" maskUnits="userSpaceOnUse"><g id="mask0"><path class="cls-2" d="M278.93,364c4.72,1.84,10.11,1.72,14.87-.57l61.73-29.7c6.49-3.12,10.61-9.69,10.61-16.89V115.44c0-7.2-4.12-13.77-10.61-16.89l-61.73-29.7c-6.26-3.01-13.58-2.27-19.07,1.72-.78.57-1.53,1.21-2.23,1.91l-118.17,107.81-51.47-39.07c-4.79-3.64-11.49-3.34-15.94.71l-16.51,15.02c-5.44,4.95-5.45,13.52-.01,18.48l44.64,40.72-44.64,40.72c-5.44,4.96-5.43,13.52.01,18.48l16.51,15.02c4.45,4.05,11.15,4.35,15.94.71l51.47-39.07,118.17,107.81c1.87,1.87,4.06,3.28,6.42,4.2ZM291.23,148.07l-89.66,68.06,89.66,68.06v-136.12Z"/></g></mask><linearGradient id="linear-gradient" x1="216.05" y1="-1574.92" x2="216.05" y2="-1873.19" gradientTransform="translate(0 -1507.92) scale(1 -1)" gradientUnits="userSpaceOnUse"><stop offset="0" stop-color="#fff"/><stop offset="1" stop-color="#fff" stop-opacity="0"/></linearGradient></defs><g class="cls-7"><g id="Layer_2" data-name="Layer 2"><g id="Layer_1-2" data-name="Layer 1"><g><rect class="cls-4" x="2.5" y="2.5" width="427.27" height="427.27" rx="12" ry="12"/><g class="cls-1"><g><path class="cls-6" d="M355.53,98.6l-61.78-29.74c-7.15-3.44-15.7-1.99-21.31,3.62l-202.23,184.39c-5.44,4.96-5.43,13.52.01,18.47l16.52,15.02c4.45,4.05,11.16,4.35,15.95.71l243.53-184.75c8.17-6.2,19.91-.37,19.91,9.88v-.72c0-7.2-4.12-13.76-10.61-16.88Z"/><path class="cls-9" d="M355.53,333.68l-61.78,29.74c-7.15,3.44-15.7,1.99-21.31-3.62L70.21,175.41c-5.44-4.96-5.43-13.52.01-18.48l16.52-15.02c4.45-4.05,11.16-4.35,15.95-.71l243.53,184.75c8.17,6.2,19.91.37,19.91-9.88v.72c0,7.2-4.12,13.76-10.61,16.88Z"/><path class="cls-5" d="M293.75,363.43c-7.15,3.44-15.7,1.99-21.31-3.63,6.91,6.91,18.74,2.02,18.74-7.76V80.24c0-9.78-11.82-14.68-18.74-7.76,5.61-5.61,14.16-7.07,21.31-3.63l61.77,29.7c6.49,3.12,10.62,9.69,10.62,16.89v201.4c0,7.2-4.13,13.77-10.62,16.89l-61.76,29.7Z"/><g class="cls-8"><path class="cls-3" d="M278.74,364c4.72,1.84,10.11,1.72,14.87-.57l61.73-29.7c6.49-3.12,10.61-9.69,10.61-16.89V115.44c0-7.2-4.12-13.77-10.61-16.89l-61.73-29.7c-6.25-3.01-13.58-2.27-19.07,1.72-.78.57-1.53,1.21-2.23,1.91l-118.17,107.81-51.47-39.07c-4.79-3.64-11.49-3.34-15.94.71l-16.51,15.02c-5.44,4.95-5.45,13.52-.01,18.48l44.64,40.72-44.64,40.72c-5.44,4.96-5.43,13.52.01,18.47l16.51,15.02c4.45,4.05,11.15,4.35,15.94.71l51.47-39.07,118.17,107.81c1.87,1.87,4.06,3.28,6.42,4.2ZM291.05,148.07l-89.66,68.06,89.66,68.06v-136.12Z"/></g></g></g></g></g></g></g></svg>