<?xml version="1.0" encoding="UTF-8"?><svg id="Layer_2" data-name="Layer 2" xmlns="http://www.w3.org/2000/svg" viewBox="0 0 432.27 432.27"><defs><style>.cls-1 {
        fill: #fff;
        opacity: .9;
        stroke: #041189;
        stroke-miterlimit: 10;
        stroke-width: 5px;
      }</style></defs><g id="Layer_1-2" data-name="Layer 1"><g><rect class="cls-1" x="2.5" y="2.5" width="427.27" height="427.27" rx="12" ry="12"/><path id="path" d="M227.48,204.16h4.63v23.96h-5.9l-6.86-11.02c-1.17-1.93-2.18-3.98-2.18-3.98h-.07v15h-4.65v-23.96h5.45l8.13,13.05c.54.86,1.01,1.76,1.4,2.7h0v-15.76h.05ZM254.11,213.97h-8.07v-9.82h-5.88v23.96h5.88v-10.22h8.07v10.22h5.91v-23.96h-5.91v9.82ZM168,217.7h7.64v-3.6h-7.64v-6.24h10.23v-3.7h-16.13v23.96h16.31v-3.99h-10.41v-6.42h0ZM146.77,209.61c-.38-.45-.33-1.12.12-1.51.21-.18.48-.27.76-.25h8.77v-3.69h-10.38c-2.77-.09-5.11,2.05-5.27,4.81,0,1.41.11,2.43,2.21,4.64l7.81,8.18c.55.48.61,1.32.13,1.87-.26.3-.64.46-1.03.46h-9.63v3.99h11.01c3.13.11,5.75-2.34,5.86-5.47,0-.05,0-.1,0-.16,0-1.59-.38-2.65-2.46-4.81l-7.9-8.07ZM199.79,219.89h0c-.39-.94-.85-1.85-1.4-2.7l-8.13-13.05h-5.45v23.99h4.63v-14.97h.07s.96,2.08,2.18,3.98l6.87,11.02h5.9v-23.99h-4.63v15.74h-.04ZM329.84,217.7h7.64v-3.6h-7.64v-6.24h10.23v-3.7h-16.13v23.96h16.31v-3.99h-10.41v-6.42h0ZM366.14,228.12h-6.4l-4.6-9.84h-2.58v9.84h-5.89v-23.96h10.74c5.18,0,7.59,3.22,7.59,6.95,0,2.93-1.86,5.53-4.62,6.49l5.77,10.52ZM359.95,211.27c0-1.11-.64-3.41-3.75-3.41h-3.65v6.82h3.58c3.23,0,3.82-2.39,3.82-3.41ZM308.52,209.62c-.38-.45-.33-1.12.12-1.51.21-.18.48-.27.76-.25h8.77v-3.7h-10.42c-2.77-.09-5.11,2.05-5.27,4.81,0,1.41.11,2.43,2.21,4.64l7.81,8.18c.58.45.69,1.28.24,1.86-.27.34-.68.53-1.11.51h-9.66v3.99h11.01c3.13.11,5.75-2.34,5.86-5.47,0-.05,0-.1,0-.16,0-1.59-.38-2.65-2.46-4.81l-7.86-8.11ZM273.96,217.71h7.64v-3.61h-7.63v-6.24h10.23v-3.7h-16.13v23.96h16.31v-3.99h-10.41v-6.42h0ZM290.78,228.13h5.9v-23.97h-5.9v23.96h0ZM66.14,195.92v40.43h53.91v-40.43h-53.91ZM95.8,199.65h0c-3.21,1.23-6.29,3.95-8.77,9.4-.72,1.58-2.08,4.63-2.7,6-5,10.96-7.56,13.32-15.09,13.32v-29.41h26.42c.2-.01.36.14.38.33,0,.16-.09.31-.24.36h0ZM116.98,203.9v29.42h-26.47c-.2,0-.36-.15-.37-.35,0-.16.09-.3.24-.35h0c3.21-1.23,6.29-3.95,8.77-9.4.72-1.58,2.08-4.63,2.7-6,4.99-10.96,7.55-13.32,15.08-13.32h.05Z"/></g></g></svg>