<?xml version="1.0" encoding="UTF-8"?><svg id="Layer_2" data-name="Layer 2" xmlns="http://www.w3.org/2000/svg" viewBox="0 0 432.27 432.27"><defs><style>.cls-1 {
        fill: #c560b3;
      }

      .cls-2 {
        fill: #fff;
        opacity: .9;
        stroke: #041189;
        stroke-miterlimit: 10;
        stroke-width: 5px;
      }</style></defs><g id="Layer_1-2" data-name="Layer 1"><g><rect class="cls-2" x="2.5" y="2.5" width="427.27" height="427.27" rx="12" ry="12"/><g><path class="cls-1" d="M216.14,66.14c-82.72,0-150,67.28-150,150s67.28,150,150,150,150-67.28,150-150-67.28-150-150-150ZM360.3,216.14c0,38.53-14.99,74.74-42.2,101.96-27.21,27.21-63.42,42.2-101.96,42.2s-74.74-14.99-101.96-42.2c-27.22-27.21-42.2-63.43-42.2-101.96s14.99-74.74,42.2-101.96c27.21-27.22,63.43-42.2,101.96-42.2s74.74,14.99,101.96,42.2c27.21,27.21,42.2,63.42,42.2,101.96Z"/><path class="cls-1" d="M219.56,226.15c-2.42-1.52-5.45-2.86-9.04-3.98-3.55-1.12-7.71-2.25-12.37-3.37-3.23-.73-6.02-1.46-8.29-2.16-2.24-.69-4.11-1.47-5.55-2.32-1.4-.83-2.4-1.81-3-2.93-.61-1.12-.91-2.63-.91-4.48,0-2.23.44-4.18,1.33-5.81.89-1.63,2.11-3,3.67-4.07,1.56-1.07,3.41-1.87,5.47-2.37,2.1-.5,4.41-.76,6.86-.76,4.11,0,8.12.7,11.92,2.07,3.77,1.37,7.01,3.43,9.65,6.16l.46.47,5.37-6.5-.35-.37c-2.85-3.04-6.64-5.51-11.28-7.35-4.62-1.84-9.83-2.78-15.48-2.78-3.77,0-7.38.48-10.74,1.42-3.37.95-6.35,2.37-8.87,4.23-2.53,1.87-4.58,4.27-6.06,7.13-1.48,2.87-2.24,6.21-2.24,9.93,0,2.98.51,5.5,1.53,7.48,1.03,2,2.6,3.7,4.68,5.05,2.04,1.33,4.66,2.53,7.77,3.57,3.07,1.03,6.76,2.07,10.98,3.09,3.58.83,6.81,1.65,9.56,2.44,2.7.78,4.96,1.68,6.74,2.67,1.74.98,3.06,2.12,3.93,3.4.86,1.25,1.29,2.86,1.29,4.79,0,4.23-1.63,7.39-5,9.68-3.39,2.3-8.01,3.47-13.75,3.47-4.76,0-9.28-.83-13.45-2.47-4.17-1.65-8.33-4.17-12.39-7.47l-.49-.41-4.98,7.39.37.34c3.96,3.58,8.74,6.36,14.21,8.24,5.45,1.88,11.12,2.84,16.86,2.84,8.78,0,15.86-2.02,21.08-6,5.27-4.03,7.94-9.55,7.94-16.44,0-3.16-.64-5.9-1.89-8.14-1.26-2.23-3.14-4.13-5.59-5.67h.02Z"/><path class="cls-1" d="M267.57,250.47c-1.17.45-2.46.82-3.83,1.1-1.35.27-2.54.41-3.52.41-2.53,0-4.52-.72-5.88-2.14-1.38-1.42-2.08-3.43-2.08-5.96v-86.31h-10.69v89.53c0,4.62,1.33,8.28,3.96,10.86,2.63,2.58,6.24,3.88,10.77,3.88,1.89,0,4.17-.23,6.76-.71,2.6-.48,4.83-1.1,6.64-1.86l.44-.19-1.93-8.85-.63.25h-.01Z"/></g></g></g></svg>