<?xml version="1.0" encoding="UTF-8"?><svg id="Layer_2" data-name="Layer 2" xmlns="http://www.w3.org/2000/svg" viewBox="0 0 432.27 432.27"><defs><style>.cls-1, .cls-2 {
        fill: #fff;
      }

      .cls-3 {
        fill: #b30b00;
      }

      .cls-2 {
        opacity: .9;
        stroke: #041189;
        stroke-miterlimit: 10;
        stroke-width: 5px;
      }</style></defs><g id="Layer_1-2" data-name="Layer 1"><g><rect class="cls-2" x="2.5" y="2.5" width="427.27" height="427.27" rx="12" ry="12"/><g><path class="cls-3" d="M119.14,70.13h194c29,0,53,24,53,53v186c0,29.5-24,53-53,53H119.14c-29,.5-53-23.5-53-52.5V123.13c0-29,24-53,53-53Z"/><path class="cls-1" d="M307.14,239.63c-6-6.5-17.5-9.5-34-9.5-9,0-18.5,1-27.5,2.5-6-5.5-11-12-16-18.5-3.5-5-7-10-10-15.5,5-14,8-29,9-44,0-13.5-5.5-28-20.5-28-5,0-10,3-12.5,7.5-6.5,11-4,33.5,6.5,57-3.5,10.5-7.5,21-12,32.5-4,10-8.5,19.5-14,28.5-15.5,6-48,21-51,37.5-1,5,.5,10,4.5,13,3.5,3,8.5,5,13.5,4.5,19.5,0,39-27,52.5-50.5,7.5-2.5,15-5,23-7,8.5-2,16.5-4,24-5.5,21,18,39.5,21,48.5,21,12.5,0,17.5-5.5,19-10,2-5.5,1-11.5-3-15.5ZM293.64,249.13c-.5,3.5-4.5,6-9.5,6-1.5,0-3,0-4.5-.5-10-2.5-19.5-7.5-27.5-14,6.5-1,13.5-1.5,20-1.5,4.5,0,9,.5,13.5,1,4.5,1,9.5,3,8,9ZM204.14,138.63c1-1.5,2.5-2.5,4.5-3,5,0,6,5.5,6,10.5-.5,11.5-2.5,22.5-6,33.5-8.5-21.5-7.5-36-4.5-41ZM232.14,234.63c-5.5,1-11,2.5-16.5,4-4,1-8,2.5-12.5,3.5,2-4.5,4-9,6-13,2.5-5.5,4.5-11,6.5-16.5,2,3,3.5,5.5,5.5,8,3.5,5,7.5,9.5,11,14ZM171.64,263.63c-12.5,20-25,33-32,33-1,0-2.5-.5-3-1-1.5-1-2-3-1.5-4.5,1-7.5,15.5-18,36.5-27.5Z"/></g></g></g></svg>