<?xml version="1.0" encoding="UTF-8"?><svg id="Layer_2" data-name="Layer 2" xmlns="http://www.w3.org/2000/svg" xmlns:xlink="http://www.w3.org/1999/xlink" viewBox="0 0 432.27 432.27"><defs><style>.cls-1 {
        fill: url(#linear-gradient-2);
      }

      .cls-2, .cls-3 {
        fill: #fff;
      }

      .cls-4 {
        fill: url(#linear-gradient-4);
      }

      .cls-5 {
        fill: url(#linear-gradient-3);
      }

      .cls-6 {
        fill: url(#linear-gradient-5);
      }

      .cls-7 {
        fill: #000f33;
      }

      .cls-8 {
        fill: url(#linear-gradient-6);
      }

      .cls-9 {
        fill: url(#linear-gradient);
      }

      .cls-3 {
        opacity: .9;
        stroke: #041189;
        stroke-miterlimit: 10;
        stroke-width: 5px;
      }</style><linearGradient id="linear-gradient" x1="208.89" y1="-2725.26" x2="294.53" y2="-2763.06" gradientTransform="translate(0 -2594.31) scale(1 -1)" gradientUnits="userSpaceOnUse"><stop offset="0" stop-color="#f2b344"/><stop offset="1" stop-color="#f05480"/></linearGradient><linearGradient id="linear-gradient-2" x1="291.13" y1="-2857.51" x2="291.13" y2="-2767.44" gradientTransform="translate(0 -2594.31) scale(1 -1)" gradientUnits="userSpaceOnUse"><stop offset="0" stop-color="#b156cd"/><stop offset="1" stop-color="#f05480"/></linearGradient><linearGradient id="linear-gradient-3" x1="300.43" y1="-2849.9" x2="208.61" y2="-2899.98" gradientTransform="translate(0 -2594.31) scale(1 -1)" gradientUnits="userSpaceOnUse"><stop offset="0" stop-color="#b157ce"/><stop offset="1" stop-color="#5da5fb"/></linearGradient><linearGradient id="linear-gradient-4" x1="135.57" y1="-2856.88" x2="217.99" y2="-2893.26" gradientTransform="translate(0 -2594.31) scale(1 -1)" gradientUnits="userSpaceOnUse"><stop offset="0" stop-color="#74e6a7"/><stop offset="1" stop-color="#5da5fb"/></linearGradient><linearGradient id="linear-gradient-5" x1="141.13" y1="-2763.94" x2="141.13" y2="-2854.11" gradientTransform="translate(0 -2594.31) scale(1 -1)" gradientUnits="userSpaceOnUse"><stop offset="0" stop-color="#c8ed5b"/><stop offset="1" stop-color="#74e6a7"/></linearGradient><linearGradient id="linear-gradient-6" x1="140.12" y1="-2762.46" x2="219.01" y2="-2726.89" gradientTransform="translate(0 -2594.31) scale(1 -1)" gradientUnits="userSpaceOnUse"><stop offset="0" stop-color="#c8ed5b"/><stop offset="1" stop-color="#f2b344"/></linearGradient></defs><g id="Layer_1-2" data-name="Layer 1"><g><rect class="cls-3" x="2.5" y="2.5" width="427.27" height="427.27" rx="12" ry="12"/><g><g><path class="cls-9" d="M216.14,66.14v150.01l131.14-72.73c-25.58-46.06-74.7-77.28-131.14-77.28Z"/><path class="cls-1" d="M216.14,216.14l128.54,77.24c27.11-45.21,29.58-103.35,1.36-152.23l-129.91,74.99h.01Z"/><path class="cls-5" d="M213.51,366.08c52.71.87,104.3-26.06,132.53-74.95l-129.91-74.98-2.62,149.95h0Z"/><path class="cls-4" d="M84.97,288.84c25.6,46.08,74.72,77.29,131.16,77.29v-149.99l-131.16,72.7Z"/><path class="cls-6" d="M86.24,291.14l129.9-75-128.54-77.24c-27.11,45.21-29.59,103.36-1.36,152.23h0Z"/><path class="cls-8" d="M86.24,141.14l129.9,74.99,2.62-149.94c-.83-.02-1.65-.03-2.48-.03-51.85,0-102.26,26.85-130.04,74.97Z"/></g><path class="cls-7" d="M334.56,216.15c0,65.39-53.02,118.42-118.43,118.42s-118.42-53.03-118.42-118.43,53.01-118.42,118.42-118.42,118.42,53.01,118.42,118.42h.01Z"/><g><path class="cls-2" d="M291.98,214.36c-7,0-13.05,4.92-14.41,11.78-6.56,32.39-38.14,53.33-70.53,46.77-29.27-5.93-49.69-32.53-47.85-62.34,1.88-30.61,27.35-55.17,58.01-56.02,7.28-.21,14.53.91,21.4,3.31,6.47,2.26,13.66-.13,17.13-6.04l.63-1.07c3.94-6.76,1.66-15.43-5.1-19.37-.79-.46-1.63-.85-2.49-1.15-10.6-3.77-21.83-5.5-33.08-5.09-46.42,1.62-84.3,39.43-86.01,85.85-1.9,49.26,36.5,90.74,85.76,92.64,43.89,1.69,82.49-28.8,91.01-71.89,1.78-9.02-5.29-17.39-14.48-17.39"/><path class="cls-2" d="M240.48,205.45c-10.61,0-19.2,8.6-19.2,19.2s8.6,19.2,19.2,19.2,19.2-8.6,19.2-19.2-8.6-19.2-19.2-19.2"/></g></g></g></g></svg>