<?xml version="1.0" encoding="UTF-8"?>
<svg id="Layer_2" data-name="Layer 2" xmlns="http://www.w3.org/2000/svg" xmlns:xlink="http://www.w3.org/1999/xlink" viewBox="0 0 432.27 432.27">
  <defs>
    <style>
      .cls-1 {
        fill: #5690ff;
        isolation: isolate;
        opacity: .47;
      }

      .cls-2 {
        fill: url(#linear-gradient);
      }

      .cls-3 {
        fill: #fff;
        opacity: .9;
        stroke: #041189;
        stroke-miterlimit: 10;
        stroke-width: 5px;
      }
    </style>
    <linearGradient id="linear-gradient" x1="66.14" y1="353.97" x2="366.14" y2="353.97" gradientTransform="translate(0 570.11) scale(1 -1)" gradientUnits="userSpaceOnUse">
      <stop offset="0" stop-color="#5690ff" stop-opacity=".99"/>
      <stop offset="1" stop-color="#0052e0"/>
    </linearGradient>
  </defs>
  <g id="Layer_1-2" data-name="Layer 1">
    <g>
      <rect class="cls-3" x="2.5" y="2.5" width="427.27" height="427.27" rx="12" ry="12"/>
      <g>
        <path class="cls-1" d="M349.57,200.32l-68.26-45.02L94.2,40.16c14.11,15.84,25.12,34.18,32.48,54.07,4.92,12.9,8.34,26.31,10.2,39.99l140.24,87.92c2.51,1.73,4.22,4.39,4.77,7.38.55,3-.12,6.09-1.85,8.59l-.53.67-.53.6-.6.6h-.29l-.97.75-135.52,82.53c-.88.6-1.88,1.03-2.92,1.24-1.05.22-2.13.22-3.18.02-1.05-.2-2.05-.61-2.94-1.2-.89-.59-1.66-1.35-2.25-2.24-.92-1.35-1.42-2.95-1.43-4.58v-188.22c-1.9-11.62-4.94-23.01-9.08-34.03-9.77-27.26-26.79-51.35-49.24-69.65l-4.42-2.92v354.24c.01,6.26,1.72,12.4,4.94,17.76,3.22,5.37,7.82,9.77,13.33,12.74,5.51,2.97,11.72,4.39,17.97,4.12,6.25-.27,12.31-2.23,17.55-5.66l229.64-143.13c5.09-3.35,9.27-7.91,12.16-13.27,2.89-5.36,4.41-11.36,4.41-17.45s-1.51-12.09-4.41-17.45c-2.89-5.36-7.07-9.92-12.16-13.27Z"/>
        <path class="cls-2" d="M349.57,200.32l-68.26-45.02c5.44,4.42,9.95,9.87,13.28,16.04,3.33,6.17,5.4,12.94,6.09,19.91.7,6.97,0,14.02-2.03,20.72-2.04,6.71-5.38,12.94-9.84,18.35-2.64,3.27-5.66,6.21-9,8.75l-.53.6-.6.6-.97.75-97.53,57.46-37.52,25.39c-.89.7-1.93,1.2-3.03,1.47-1.1.27-2.25.31-3.37.11-1.12-.2-2.18-.63-3.12-1.26-.94-.63-1.74-1.46-2.34-2.42-.92-1.35-1.42-2.95-1.43-4.58v-188.56c-2.03-11.75-5.25-23.26-9.61-34.36-9.76-27.27-26.77-51.36-49.21-69.67l-4.42-2.92v354.24c.01,6.26,1.72,12.4,4.94,17.76,3.22,5.37,7.82,9.77,13.33,12.74,5.51,2.97,11.72,4.39,17.97,4.12,6.25-.27,12.31-2.23,17.55-5.66l229.64-143.13c5.09-3.35,9.27-7.91,12.16-13.27,2.89-5.36,4.41-11.36,4.41-17.45s-1.51-12.09-4.41-17.45c-2.89-5.36-7.07-9.92-12.16-13.27Z"/>
      </g>
    </g>
  </g>
</svg>