<?xml version="1.0" encoding="UTF-8"?><svg id="Layer_2" data-name="Layer 2" xmlns="http://www.w3.org/2000/svg" xmlns:xlink="http://www.w3.org/1999/xlink" viewBox="0 0 432.27 432.27"><defs><style>.cls-1, .cls-2 {
        fill: #fff;
      }

      .cls-3 {
        fill: none;
      }

      .cls-4 {
        fill: #d8ebf6;
      }

      .cls-5 {
        fill: url(#linear-gradient);
      }

      .cls-6 {
        clip-path: url(#clippath);
      }

      .cls-2 {
        opacity: .9;
        stroke: #041189;
        stroke-miterlimit: 10;
        stroke-width: 5px;
      }</style><clipPath id="clippath"><rect class="cls-3" x="66.14" y="66.14" width="300" height="300"/></clipPath><linearGradient id="linear-gradient" x1="216.14" y1="1246.82" x2="216.14" y2="946.82" gradientTransform="translate(0 1312.95) scale(1 -1)" gradientUnits="userSpaceOnUse"><stop offset="0" stop-color="#68b0db"/><stop offset="1" stop-color="#468cc3"/></linearGradient></defs><g id="Layer_1-2" data-name="Layer 1"><g><rect class="cls-2" x="2.5" y="2.5" width="427.27" height="427.27" rx="12" ry="12"/><g class="cls-6"><g><path class="cls-5" d="M336.84,66.14H95.43c-16.18,0-29.3,13.12-29.3,29.3v241.41c0,16.18,13.12,29.3,29.3,29.3h241.41c16.18,0,29.3-13.12,29.3-29.3V95.43c0-16.18-13.12-29.3-29.3-29.3Z"/><path class="cls-4" d="M166.92,148.17h-45.7v45.7h45.7v-45.7Z"/><path class="cls-4" d="M311.06,239.57h-44.53v44.53h44.53v-44.53Z"/><path class="cls-1" d="M157.4,285.52l-35.4,36.33c-.64.66-1.08,1.5-1.25,2.4-.17.91-.07,1.84.29,2.69.36.85.96,1.57,1.73,2.08.77.51,1.67.78,2.59.78h139.84c.63,0,1.24-.13,1.82-.37.58-.24,1.1-.6,1.53-1.05l42.5-44.28h-150.3c-.63,0-1.24.13-1.82.37-.58.24-1.1.6-1.53,1.05Z"/><path class="cls-1" d="M274.98,146.75l35.39-36.33c.64-.66,1.08-1.5,1.25-2.4s.07-1.84-.29-2.69c-.36-.85-.96-1.57-1.73-2.08-.77-.51-1.67-.78-2.59-.78h-139.83c-.63,0-1.25.12-1.83.37s-1.1.6-1.54,1.05l-42.6,44.29h150.4c.63,0,1.25-.12,1.83-.37s1.1-.6,1.54-1.05Z"/><path class="cls-1" d="M265.18,193.87H121.21l42.6,44.28c.44.45.96.81,1.54,1.05.58.24,1.2.37,1.83.37h143.88l-42.52-44.29c-.44-.45-.96-.81-1.54-1.05-.58-.24-1.2-.37-1.83-.37Z"/></g></g></g></g></svg>