<?xml version="1.0" encoding="UTF-8"?><svg id="Layer_2" data-name="Layer 2" xmlns="http://www.w3.org/2000/svg" viewBox="0 0 432.27 432.27"><defs><style>.cls-1 {
        fill: #cbfbeb;
      }

      .cls-2 {
        fill: #012d2c;
      }

      .cls-3 {
        fill: #fff;
        opacity: .9;
        stroke: #041189;
        stroke-miterlimit: 10;
        stroke-width: 5px;
      }</style></defs><g id="Layer_1-2" data-name="Layer 1"><g><rect class="cls-3" x="2.5" y="2.5" width="427.27" height="427.27" rx="12" ry="12"/><g><path class="cls-2" d="M323.52,72.95c22.08,6.41,36.21,20.54,42.61,42.61v201.14c-6.41,22.07-20.54,36.21-42.61,42.61H108.75c-22.07-6.41-36.21-20.54-42.61-42.61V115.57c6.41-22.08,20.54-36.21,42.61-42.61h214.77ZM173.51,171.81c-1.32-14.6,6.27-26.83-12.78-28.97-53.71-6.03-83.39,30.88-77.37,82.49,5.05,43.32,49.16,64.47,87.62,48.78l.82-23.88c-33.28,10.81-64.23-3.98-63.17-41.78,1.08-38.2,32.9-46.76,64.88-36.64ZM349.08,182.04c-1.48-11.31,5.69-23.86-9.34-25.59-46.04-5.31-79.89,21.03-75.85,69.04,3.64,43.26,46.2,63.58,84.37,48.63l.83-20.48c-33.11,6.97-63.04-2.97-59.72-41.83,2.78-32.53,32.92-38.22,59.71-29.76ZM182.05,193.12v117.61c0,4.26,19.73.75,23.12-.74l.76-32.49c28.39,4.56,52.47-20.18,52.46-48.58,0-44.07-42.8-54.34-76.34-35.8Z"/><path class="cls-1" d="M173.51,171.81c-31.97-10.12-63.8-1.56-64.88,36.64-1.06,37.8,29.89,52.59,63.17,41.78l-.82,23.88c-38.46,15.69-82.57-5.47-87.62-48.78-6.02-51.6,23.66-88.52,77.37-82.49,19.05,2.14,11.46,14.37,12.78,28.97Z"/><path class="cls-1" d="M182.05,193.12c33.55-18.55,76.34-8.27,76.34,35.8,0,28.4-24.08,53.14-52.46,48.58l-.76,32.49c-3.39,1.49-23.12,5.01-23.12.74v-117.61ZM205.91,257.05c37.29,4.58,39.17-59.85,0-49.43v49.43Z"/><path class="cls-1" d="M349.08,182.04c-26.8-8.46-56.93-2.77-59.71,29.76-3.32,38.86,26.61,48.8,59.72,41.83l-.83,20.48c-38.16,14.96-80.73-5.37-84.37-48.63-4.04-48.01,29.82-74.35,75.85-69.04,15.03,1.73,7.85,14.28,9.34,25.59Z"/><path class="cls-2" d="M205.91,257.05v-49.43c39.17-10.42,37.29,54.01,0,49.43Z"/></g></g></g></svg>