<?xml version="1.0" encoding="UTF-8"?><svg id="Layer_2" data-name="Layer 2" xmlns="http://www.w3.org/2000/svg" xmlns:xlink="http://www.w3.org/1999/xlink" viewBox="0 0 432.27 432.27"><defs><style>.cls-1 {
        fill: #f60;
      }

      .cls-2 {
        fill: none;
      }

      .cls-3 {
        clip-path: url(#clippath);
      }

      .cls-4 {
        fill: #fff;
        opacity: .9;
        stroke: #041189;
        stroke-miterlimit: 10;
        stroke-width: 5px;
      }</style><clipPath id="clippath"><rect class="cls-2" x="66.14" y="66.14" width="300" height="300"/></clipPath></defs><g id="Layer_1-2" data-name="Layer 1"><g><rect class="cls-4" x="2.5" y="2.5" width="427.27" height="427.27" rx="12" ry="12"/><g class="cls-3"><g><path class="cls-1" d="M216.14,66.14c-82.7,0-150,67.28-150,150s67.3,150,150,150,150-67.28,150-150-67.28-150-150-150ZM216.14,360.3c-38.53,0-74.74-14.99-101.96-42.2-27.21-27.21-42.2-63.42-42.2-101.96s14.99-74.74,42.2-101.96c27.21-27.22,63.43-42.2,101.96-42.2s74.74,14.99,101.96,42.2c27.22,27.21,42.2,63.42,42.2,101.96s-14.99,74.74-42.2,101.96c-27.21,27.22-63.42,42.2-101.96,42.2Z"/><path class="cls-1" d="M203.37,182.91h-2.38c-4.88,0-9.48,1.76-13.68,5.25-3.57,2.96-6.6,6.63-8.99,10.9v-15.72h-10.13v74.15h10.69v-45.88c1.91-5.7,5.23-10.23,9.84-13.48,4.65-3.28,10.19-5.03,16.49-5.22h.57v-9.75l-.47-.09c-.51-.11-1.16-.15-1.94-.15h-.01Z"/><path class="cls-1" d="M263.27,222.64c-2.42-1.52-5.45-2.86-9.04-3.98-3.55-1.12-7.7-2.25-12.37-3.37-3.23-.74-6.02-1.46-8.29-2.16-2.24-.69-4.11-1.47-5.54-2.32-1.4-.83-2.4-1.81-3-2.93-.61-1.12-.91-2.63-.91-4.48,0-2.23.44-4.18,1.33-5.81.89-1.63,2.11-3,3.67-4.07,1.56-1.07,3.41-1.87,5.47-2.37,2.1-.5,4.41-.76,6.86-.76,4.11,0,8.12.7,11.92,2.07,3.77,1.37,7.02,3.43,9.65,6.16l.46.47,5.37-6.5-.35-.37c-2.85-3.04-6.64-5.51-11.28-7.35-4.62-1.84-9.83-2.78-15.48-2.78-3.77,0-7.38.48-10.74,1.42-3.37.95-6.35,2.37-8.87,4.23-2.53,1.87-4.58,4.27-6.06,7.13-1.48,2.87-2.24,6.21-2.24,9.93,0,2.98.51,5.5,1.53,7.48,1.03,2,2.6,3.7,4.68,5.05,2.04,1.33,4.66,2.53,7.77,3.57,3.07,1.03,6.76,2.07,10.98,3.09,3.58.83,6.81,1.65,9.56,2.44,2.7.78,4.96,1.68,6.74,2.67,1.74.98,3.06,2.12,3.93,3.4.86,1.25,1.3,2.86,1.3,4.79,0,4.23-1.63,7.39-5,9.68-3.39,2.3-8.01,3.47-13.75,3.47-4.76,0-9.28-.83-13.45-2.47-4.17-1.65-8.33-4.17-12.39-7.47l-.49-.41-4.98,7.39.37.34c3.96,3.58,8.74,6.36,14.21,8.24,5.45,1.88,11.12,2.84,16.86,2.84,8.78,0,15.86-2.02,21.08-6,5.26-4.03,7.94-9.55,7.94-16.44,0-3.16-.64-5.89-1.89-8.14-1.26-2.23-3.14-4.13-5.59-5.67h.02Z"/></g></g></g></g></svg>