<?xml version="1.0" encoding="UTF-8"?><svg id="Layer_2" data-name="Layer 2" xmlns="http://www.w3.org/2000/svg" viewBox="0 0 432.27 432.27"><defs><style>.cls-1 {
        fill: #e72429;
      }

      .cls-2 {
        fill: #fff;
        opacity: .9;
        stroke: #041189;
        stroke-miterlimit: 10;
        stroke-width: 5px;
      }</style></defs><g id="Layer_1-2" data-name="Layer 1"><g><rect class="cls-2" x="2.5" y="2.5" width="427.27" height="427.27" rx="12" ry="12"/><path class="cls-1" d="M215.81,322.8c21.86,0,40.36,16.35,43.03,38.09-28.25,7.3-57.86,7.3-86.05,0,2.71-21.73,21.16-38.09,43.03-38.09ZM291.26,291.3c15.48-15.45,40.06-16.96,57.3-3.52-14.78,25.11-35.74,46.04-60.82,60.88-13.42-17.26-11.91-41.86,3.52-57.36ZM83.26,287.63c17.29-13.43,41.82-11.92,57.3,3.52,15.43,15.5,16.94,40.1,3.52,57.36-25.08-14.79-46.04-35.77-60.82-60.88ZM215.86,283.91c7.49,0,13.57,6.14,13.57,13.63,0,7.5-6.08,13.59-13.62,13.59-7.49,0-13.57-6.09-13.57-13.64,0-7.5,6.08-13.58,13.62-13.58ZM263.81,263.83c5.33-5.28,13.92-5.28,19.25,0,5.33,5.33,5.33,13.94,0,19.27-5.33,5.33-13.92,5.33-19.25,0-5.33-5.33-5.33-13.94,0-19.27ZM148.71,263.68c5.33-5.28,13.92-5.28,19.25,0,5.33,5.33,5.33,13.94,0,19.27-5.33,5.33-13.92,5.33-19.25,0-5.33-5.33-5.33-13.94,0-19.27ZM71.6,172.77c21.71,2.67,38.05,21.13,38.05,43.07s-16.34,40.4-38.05,43.07c-7.29-28.28-7.29-57.91,0-86.14ZM360.67,172.77c7.29,28.28,7.29,57.91,0,86.14-21.71-2.67-38.05-21.13-38.05-43.07s16.34-40.4,38.05-43.07ZM134.84,202.2c7.54,0,13.62,6.09,13.62,13.63s-6.08,13.63-13.62,13.63-13.62-6.09-13.62-13.63,6.08-13.63,13.62-13.63ZM297.29,202.2c7.49,0,13.57,6.14,13.57,13.63,0,7.5-6.08,13.59-13.62,13.59-7.49,0-13.57-6.09-13.57-13.64,0-7.5,6.08-13.58,13.62-13.58ZM148.86,148.77c5.33-5.28,13.92-5.28,19.25,0,5.33,5.33,5.33,13.94,0,19.27-5.33,5.33-13.92,5.33-19.25,0-5.33-5.33-5.33-13.94,0-19.27ZM263.76,148.67c5.28-5.28,13.88-5.33,19.2,0,5.28,5.28,5.33,13.88,0,19.22-5.28,5.33-13.88,5.33-19.2,0-5.28-5.28-5.28-13.88,0-19.22ZM144.18,83.21c13.47,17.31,11.96,41.86-3.52,57.36-15.48,15.45-40.06,17.01-57.3,3.52,14.78-25.11,35.74-46.09,60.82-60.88ZM287.64,83.06c25.08,14.79,45.99,35.72,60.82,60.83-17.24,13.48-41.82,11.97-57.3-3.47-15.43-15.5-16.94-40.1-3.52-57.36ZM215.86,121.2c7.49,0,13.57,6.09,13.57,13.59,0,7.5-6.13,13.58-13.62,13.58-7.49,0-13.57-6.09-13.57-13.63,0-7.26,5.71-13.2,12.92-13.57l.7.03ZM172.84,71.39c28.25-7.3,57.85-7.3,86.05,0-2.71,21.74-21.16,38.09-43.03,38.09-21.86,0-40.31-16.35-43.03-38.09Z"/></g></g></svg>