<?xml version="1.0" encoding="UTF-8"?><svg id="Layer_2" data-name="Layer 2" xmlns="http://www.w3.org/2000/svg" xmlns:xlink="http://www.w3.org/1999/xlink" viewBox="0 0 432.27 432.27"><defs><style>.cls-1 {
        fill: url(#linear-gradient-2);
      }

      .cls-2 {
        fill: url(#radial-gradient-3);
        fill-opacity: .1;
      }

      .cls-3, .cls-4 {
        fill: #fff;
      }

      .cls-5 {
        fill: url(#radial-gradient-5);
      }

      .cls-6 {
        fill: url(#radial-gradient);
      }

      .cls-7 {
        fill: url(#radial-gradient-4);
        fill-opacity: .8;
      }

      .cls-8 {
        fill: url(#radial-gradient-2);
        fill-opacity: .6;
      }

      .cls-9 {
        fill: url(#radial-gradient-6);
        fill-opacity: .65;
      }

      .cls-10 {
        fill: url(#linear-gradient);
      }

      .cls-4 {
        opacity: .9;
        stroke: #041189;
        stroke-miterlimit: 10;
        stroke-width: 5px;
      }</style><radialGradient id="radial-gradient" cx="-3582.74" cy="-712.51" fx="-3582.74" fy="-712.51" r="8.57" gradientTransform="translate(170806.57 14725.45) scale(47.57 20.15)" gradientUnits="userSpaceOnUse"><stop offset=".18" stop-color="#1657f4"/><stop offset=".57" stop-color="#0036c4"/></radialGradient><linearGradient id="linear-gradient" x1="108.99" y1="1188.71" x2="305.88" y2="1188.71" gradientTransform="translate(0 -964)" gradientUnits="userSpaceOnUse"><stop offset="0" stop-color="#66c0ff"/><stop offset=".26" stop-color="#0094f0"/></linearGradient><radialGradient id="radial-gradient-2" cx="-3712.18" cy="-875.47" fx="-3712.18" fy="-875.47" r="8.57" gradientTransform="translate(-120636.18 35552.59) rotate(133.55) scale(29.36 72.32)" gradientUnits="userSpaceOnUse"><stop offset=".14" stop-color="#d471ff"/><stop offset=".83" stop-color="#509df5" stop-opacity="0"/></radialGradient><radialGradient id="radial-gradient-3" cx="-3559.87" cy="-856.17" fx="-3559.87" fy="-856.17" r="8.57" gradientTransform="translate(-86690.53 66522.42) rotate(90) scale(18.62 101.65)" gradientUnits="userSpaceOnUse"><stop offset=".28" stop-color="#4f006f" stop-opacity="0"/><stop offset="1" stop-color="#4f006f"/></radialGradient><linearGradient id="linear-gradient-2" x1="108.99" y1="1101.1" x2="366.14" y2="1105.38" gradientTransform="translate(0 -964)" gradientUnits="userSpaceOnUse"><stop offset="0" stop-color="#9deaff"/><stop offset=".2" stop-color="#3bd5ff"/></linearGradient><radialGradient id="radial-gradient-4" cx="-3784.51" cy="-854.95" fx="-3784.51" fy="-854.95" r="8.57" gradientTransform="translate(-122060.79 -33384.23) rotate(166.85) scale(29.49 70.64)" gradientUnits="userSpaceOnUse"><stop offset=".06" stop-color="#e4a7fe"/><stop offset=".54" stop-color="#e4a7fe" stop-opacity="0"/></radialGradient><radialGradient id="radial-gradient-5" cx="-3490.07" cy="-872.74" fx="-3490.07" fy="-872.74" r="9.59" gradientTransform="translate(41938.25 69991.82) rotate(45) scale(22.63)" gradientUnits="userSpaceOnUse"><stop offset=".08" stop-color="#367af2"/><stop offset=".87" stop-color="#001a8f"/></radialGradient><radialGradient id="radial-gradient-6" cx="-3484.91" cy="-1115.58" fx="-3484.91" fy="-1115.58" r="8.57" gradientTransform="translate(-14086.9 39320.48) rotate(90) scale(11.2 12.77)" gradientUnits="userSpaceOnUse"><stop offset=".59" stop-color="#2763e5" stop-opacity="0"/><stop offset=".97" stop-color="#58aafe"/></radialGradient></defs><g id="Layer_1-2" data-name="Layer 1"><g><rect class="cls-4" x="2.5" y="2.5" width="427.27" height="427.27" rx="12" ry="12"/><g><path class="cls-6" d="M108.99,294.05l120-146.49,137.14,95.23v97.63c0,16.54-13.46,30-30,30h-175.71c-28.37,0-51.43-23.06-51.43-51.43v-24.94Z"/><path class="cls-10" d="M108.99,190.76c0-21.34,17.23-38.57,38.57-38.57h174.77l43.8-21.77v107.14c0,16.54-13.46,30-30,30h-175.71c-28.37,0-51.43,23.06-51.43,51.43v-128.23Z"/><path class="cls-8" d="M108.99,190.76c0-21.34,17.23-38.57,38.57-38.57h174.77l43.8-21.77v107.14c0,16.54-13.46,30-30,30h-175.71c-28.37,0-51.43,23.06-51.43,51.43v-128.23Z"/><path class="cls-2" d="M108.99,190.76c0-21.34,17.23-38.57,38.57-38.57h174.77l43.8-21.77v107.14c0,16.54-13.46,30-30,30h-175.71c-28.37,0-51.43,23.06-51.43,51.43v-128.23Z"/><path class="cls-1" d="M108.99,113.28c0-28.37,23.06-51.43,51.43-51.43h175.71c16.54,0,30,13.46,30,30v42.86c0,16.54-13.46,30-30,30h-175.71c-28.37,0-51.43,23.06-51.43,51.43v-102.86Z"/><path class="cls-7" d="M108.99,113.28c0-28.37,23.06-51.43,51.43-51.43h175.71c16.54,0,30,13.46,30,30v42.86c0,16.54-13.46,30-30,30h-175.71c-28.37,0-51.43,23.06-51.43,51.43v-102.86Z"/><rect class="cls-5" x="66.14" y="207.56" width="137.14" height="137.14" rx="3.25" ry="3.25"/><rect class="cls-9" x="66.14" y="207.56" width="137.14" height="137.14" rx="3.25" ry="3.25"/><path class="cls-3" d="M181.76,236.96l-16.89,78.34h-20.14l-9.94-46.97-10.46,47.06h-20.4l-16.2-78.34h16.63l10.03,51.69,9.94-51.69h20.4l10.37,51.69,9.77-51.69h16.89v-.09Z"/></g></g></g></svg>