<?xml version="1.0" encoding="UTF-8"?><svg id="Layer_2" data-name="Layer 2" xmlns="http://www.w3.org/2000/svg" viewBox="0 0 432.27 432.27"><defs><style>.cls-1 {
        fill: #03f2c4;
      }

      .cls-2 {
        isolation: isolate;
      }

      .cls-3 {
        fill: #012d2d;
      }

      .cls-4 {
        fill: #fff;
        opacity: .9;
        stroke: #041189;
        stroke-miterlimit: 10;
        stroke-width: 5px;
      }</style></defs><g id="Layer_1-2" data-name="Layer 1"><g><rect class="cls-4" x="2.5" y="2.5" width="427.27" height="427.27" rx="12" ry="12"/><g><path class="cls-3" d="M119.26,69.88h193.76c29.37,0,53.12,23.75,53.12,53.12v186.27c0,29.37-23.75,53.12-53.12,53.12H119.26c-29.37,0-53.12-23.75-53.12-53.12V123c0-29.37,23.75-53.12,53.12-53.12Z"/><g class="cls-2"><path class="cls-1" d="M208.3,248.55v21.29c0,1.52-.59,2.57-1.64,2.93-6.9,2.46-16.5,3.74-28.78,3.63-20.83,0-37.91-5.97-51.25-18.02-13.34-12.05-20.01-28.78-20.01-50.43s6.79-38.73,20.24-51.72c13.46-12.87,31.59-19.42,54.41-19.42,12.75,0,21.76,1.17,26.91,3.51.94.35,1.4,1.17,1.52,2.46v22.58c0,1.52-.59,1.99-1.87,1.4-6.08-3.04-15.56-4.56-28.32-4.56-12.99.12-23.4,4.1-31.47,12.05-7.96,7.96-12.05,18.95-12.05,33.11s4.56,24.92,13.57,32.41c8.89,7.37,19.07,11.12,30.3,11.12s20.12-1.05,26.79-3.28c1.05-.47,1.64-.12,1.64.94Z"/><path class="cls-1" d="M273.59,169.57c16.97,0,29.95,4.8,38.85,14.51,8.89,9.71,13.46,21.53,13.46,35.69,0,17.78-6.2,31.71-18.6,41.65-12.4,9.95-27.26,14.98-44.7,14.98-1.64,0-2.93-.12-3.86-.23v35.22c0,1.05-.82,1.64-2.46,1.87-4.1.35-9.24.82-15.21,1.52-6.08.7-9.24,1.05-9.71,1.05-.94,0-1.4-.47-1.4-1.52v-121.57c0-2.93-.23-7.49-.59-13.57,0-.59.23-.82.82-1.05,16.97-5.62,31.36-8.54,43.41-8.54ZM271.01,193.91c-4.56,0-8.66.59-12.29,1.76v56.4c1.05.23,3.28.35,6.55.35,8.31,0,15.56-2.57,21.76-7.72,6.2-5.15,9.24-12.4,9.24-22s-2.11-16.73-6.44-21.65c-4.45-4.68-10.65-7.14-18.84-7.14Z"/></g></g></g></g></svg>