<?xml version="1.0" encoding="UTF-8"?><svg id="Layer_2" data-name="Layer 2" xmlns="http://www.w3.org/2000/svg" viewBox="0 0 432.27 432.27"><defs><style>.cls-1 {
        fill: #fff;
        opacity: .9;
        stroke: #041189;
        stroke-miterlimit: 10;
        stroke-width: 5px;
      }</style></defs><g id="Layer_1-2" data-name="Layer 1"><g><rect class="cls-1" x="2.5" y="2.5" width="427.27" height="427.27" rx="12" ry="12"/><path d="M346.35,188.56c6.9-20.7,4.52-43.38-6.51-62.21-16.59-28.88-49.94-43.74-82.51-36.75-14.49-16.32-35.31-25.61-57.13-25.47-33.29-.08-62.83,21.36-73.07,53.04-21.39,4.38-39.85,17.77-50.65,36.74-16.71,28.81-12.9,65.12,9.43,89.82-6.9,20.7-4.52,43.38,6.51,62.21,16.59,28.88,49.94,43.74,82.51,36.75,14.48,16.32,35.31,25.61,57.13,25.46,33.31.09,62.86-21.37,73.1-53.07,21.39-4.38,39.85-17.77,50.65-36.74,16.69-28.81,12.87-65.09-9.44-89.8v.02ZM232.07,348.28c-13.33.02-26.24-4.65-36.47-13.19.47-.25,1.27-.69,1.8-1.02l60.54-34.96c3.1-1.76,5-5.05,4.98-8.62v-85.35l25.59,14.77c.28.13.46.4.49.7v70.68c-.04,31.43-25.49,56.91-56.92,56.98h0ZM109.66,296c-6.68-11.53-9.08-25.05-6.79-38.18.45.27,1.24.75,1.8,1.07l60.54,34.96c3.07,1.8,6.87,1.8,9.95,0l73.91-42.68v29.55c.02.3-.12.6-.36.79l-61.2,35.33c-27.26,15.7-62.07,6.37-77.83-20.86h0ZM93.73,163.85c6.65-11.55,17.15-20.39,29.65-24.98,0,.52-.03,1.44-.03,2.09v69.94c-.02,3.55,1.88,6.85,4.97,8.61l73.91,42.67-25.59,14.77c-.26.17-.58.2-.86.08l-61.21-35.36c-27.2-15.75-36.53-50.56-20.86-77.8h0ZM303.95,212.77l-73.91-42.68,25.59-14.76c.26-.17.58-.2.86-.08l61.21,35.33c27.25,15.74,36.59,50.6,20.85,77.85-6.66,11.53-17.15,20.37-29.64,24.97v-72.03c.03-3.55-1.86-6.84-4.94-8.61h0ZM329.41,174.44c-.45-.28-1.24-.75-1.8-1.07l-60.54-34.96c-3.07-1.8-6.87-1.8-9.95,0l-73.91,42.68v-29.55c-.02-.3.12-.6.36-.79l61.2-35.31c27.26-15.72,62.11-6.37,77.82,20.9,6.64,11.52,9.05,25,6.79,38.1h.02ZM169.31,227.11l-25.6-14.77c-.28-.13-.46-.4-.49-.7v-70.68c.02-31.47,25.55-56.97,57.02-56.95,13.31,0,26.19,4.67,36.43,13.19-.47.25-1.26.69-1.8,1.02l-60.54,34.96c-3.1,1.76-5,5.05-4.98,8.61l-.04,85.31v.02ZM183.21,197.14l32.92-19.01,32.92,19v38.01l-32.92,19-32.92-19v-38Z"/></g></g></svg>