<?xml version="1.0" encoding="UTF-8"?><svg id="Layer_2" data-name="Layer 2" xmlns="http://www.w3.org/2000/svg" viewBox="0 0 432.27 432.27"><defs><style>.cls-1 {
        fill: #ef652a;
      }

      .cls-2 {
        fill: #264de4;
      }

      .cls-3, .cls-4 {
        fill: #fff;
      }

      .cls-5 {
        fill: #f0be25;
      }

      .cls-6 {
        fill: #e4a126;
      }

      .cls-7 {
        fill: #ebebeb;
      }

      .cls-8 {
        fill: #2965f1;
      }

      .cls-9 {
        fill: #e34f26;
      }

      .cls-10 {
        fill: #eaebec;
      }

      .cls-4 {
        opacity: .9;
        stroke: #041189;
        stroke-miterlimit: 10;
        stroke-width: 5px;
      }</style></defs><g id="Layer_1-2" data-name="Layer 1"><rect class="cls-4" x="2.5" y="2.5" width="427.27" height="427.27" rx="12" ry="12"/><g><g><path class="cls-9" d="M174.95,193.16l-8.34-101.93,99.6.2-8.82,101.72-40.61,11.76-41.84-11.76Z"/><path class="cls-1" d="M216.79,195.07v-94.14l41.02.14-7.31,84.22-33.7,9.78Z"/><path class="cls-3" d="M246.52,124.45l1.16-12.44h-63.1l3.49,38.15h43.55l-1.71,16.27-13.95,3.76-14.15-4.1-.75-9.71h-12.51l1.71,19.83,25.7,7.18,25.91-7.18,3.49-38.69h-45.73l-1.3-13.06h48.2Z"/></g><g id="group1"><path id="path4" class="cls-3" d="M266.31,227.37l.02,1.26c0,.69,2.02,23.69,4.46,51.1l4.45,49.83,19.99,5.61c10.99,3.08,20.22,5.62,20.49,5.64.28.02,9.62-2.49,20.76-5.58,17.86-4.96,20.28-5.7,20.4-6.31.18-.85,8.93-99.73,8.92-100.78v-.76h-99.49Z"/><path id="path3" class="cls-10" d="M295.39,335.48l-20.17-5.65-.26-1.49c-.23-1.33-8.98-99.18-8.98-100.45,0-.47,5.11-.52,50.08-.52,47.47,0,50.08.03,50.08.59-.02,2.41-9.07,101.55-9.29,101.75-.28.25-39.31,11.14-40.61,11.33-.37.05-9.75-2.44-20.84-5.55v-.02ZM328.77,315.53c6.78-1.87,12.42-3.5,12.54-3.62.12-.12.91-8.17,1.76-17.89.85-9.72,1.63-18.32,1.74-19.11l.19-1.43h-29.27v12.46h15.81l-.16.76c-.09.42-.42,4-.75,7.96-.34,4.2-.75,7.36-.98,7.59-.21.21-3.43,1.2-7.16,2.2l-6.77,1.81v6.34c0,4.33.12,6.34.36,6.34.2,0,5.91-1.53,12.69-3.41h-.01ZM344.8,265.65c-.22-1.65-2.2-23.78-2.2-24.61,0-.51-1.16-.56-13.28-.56h-13.28v13.03l5.97.23c3.28.13,6.74.32,7.67.43l1.71.2.41,5.1c.23,2.8.5,5.66.6,6.36l.19,1.26h12.39l-.2-1.43Z"/><path id="path2" class="cls-5" d="M295.22,335.16l-19.99-5.61-4.45-49.83c-2.45-27.42-4.45-50.4-4.46-51.1l-.02-1.26h99.48v.76c.02,1.06-8.73,99.93-8.91,100.78-.13.61-2.54,1.36-20.4,6.31-11.14,3.09-20.49,5.6-20.76,5.58-.28-.02-9.5-2.56-20.49-5.64h0ZM328.77,315.78c6.91-1.92,12.66-3.66,12.78-3.85.12-.19.95-8.66,1.83-18.8.89-10.15,1.69-18.72,1.78-19.04.15-.56-1.02-.59-21.3-.59h-21.47l.91-9.68c.5-5.32.93-9.69.94-9.71.01-.02,3.16-.12,7-.22,6.29-.17,19.26.33,19.69.76.16.16,1.23,10.64,1.23,12.07,0,.71.1.72,6.51.72h6.51l-.15-1.43c-.08-.79-.64-6.89-1.23-13.55l-1.07-12.12-25.11-.09c-19.98-.07-25.11,0-25.11.34,0,.23-.15,1.71-.33,3.28-.43,3.81-3.71,40.61-3.71,41.64v.8h42.74l-.19,1.26c-.1.69-.44,4.22-.74,7.83-.3,3.61-.64,6.66-.76,6.77-.31.3-12.88,3.67-13.67,3.66-.36,0-3.61-.81-7.22-1.8l-6.55-1.8-.24-2.83c-.13-1.55-.33-3.77-.45-4.93l-.21-2.1h-12.72v1.26c.04,2.36,1.57,18.27,1.79,18.49.26.26,24.68,7.14,25.44,7.16.28,0,6.16-1.56,13.07-3.48h0Z"/><path id="path1" class="cls-6" d="M295.22,335.16l-19.99-5.61-4.45-49.83c-2.45-27.42-4.45-50.4-4.46-51.1l-.02-1.26h99.48v.76c.02,1.06-8.73,99.93-8.91,100.78-.13.61-2.54,1.36-20.4,6.31-11.14,3.09-20.49,5.6-20.76,5.58-.28-.02-9.5-2.56-20.49-5.64h0ZM332.5,327.66c8.79-2.43,16.15-4.59,16.35-4.8.31-.32,7.91-83.7,7.88-86.48v-.93h-40.67v4.71h-11.76c-9.18,0-11.76.09-11.77.42,0,.23-.15,1.71-.33,3.28-.43,3.81-3.71,40.61-3.71,41.64v.8h27.57v9.76c0,7.59-.09,9.76-.42,9.76-.23,0-3.37-.81-6.97-1.8l-6.55-1.8-.24-2.83c-.13-1.55-.33-3.77-.45-4.93l-.21-2.1h-12.72v1.26c.05,3.61,1.61,18.35,1.98,18.58.22.14,6.07,1.82,12.99,3.74l12.59,3.49v6.33c0,3.48.1,6.33.23,6.33s7.42-1.99,16.22-4.42v-.02ZM303.28,263.91c.48-5.27.94-9.65,1.02-9.72.08-.07,2.75-.21,5.94-.29l5.8-.16v19.76h-13.65l.88-9.59Z"/></g><g><path class="cls-2" d="M75.26,329.68l-9.12-102.32h100.24l-9.13,102.31-41.05,11.38-40.94-11.36Z"/><path class="cls-8" d="M149.43,323.15l7.8-87.43h-40.98v96.62l33.17-9.2Z"/><path class="cls-7" d="M87.05,273.68l1.12,12.55h28.08v-12.55h-29.21ZM85.93,260.82h30.33v-12.55h-31.47l1.14,12.55ZM116.26,306.27h-.06s-13.98-3.76-13.98-3.76l-.89-10.01h-12.6l1.76,19.7,25.71,7.14.06-.02v-13.06Z"/><path class="cls-3" d="M116.21,273.68v12.55h15.45l-1.46,16.28-14,3.78v13.06l25.73-7.13.19-2.12,2.95-33.04.31-3.37,2.27-25.4h-31.44v12.55h17.68l-1.14,12.85h-16.54Z"/></g></g></g></svg>