<?xml version="1.0" encoding="UTF-8"?><svg id="Layer_2" data-name="Layer 2" xmlns="http://www.w3.org/2000/svg" xmlns:xlink="http://www.w3.org/1999/xlink" viewBox="0 0 432.27 432.27"><defs><style>.cls-1 {
        fill: #7d2ae7;
      }

      .cls-2, .cls-3 {
        fill: #fff;
      }

      .cls-4 {
        fill: url(#radial-gradient);
      }

      .cls-5 {
        fill: url(#radial-gradient-3);
      }

      .cls-6 {
        fill: url(#radial-gradient-2);
      }

      .cls-7 {
        fill: url(#radial-gradient-4);
      }

      .cls-3 {
        opacity: .9;
        stroke: #041189;
        stroke-miterlimit: 10;
        stroke-width: 5px;
      }</style><radialGradient id="radial-gradient" cx="1806.42" cy="-683.84" fx="1806.42" fy="-683.84" r=".59" gradientTransform="translate(-665179.89 364292.54) rotate(-49.42) scale(392.62 -392.62)" gradientUnits="userSpaceOnUse"><stop offset="0" stop-color="#6420ff"/><stop offset="1" stop-color="#6420ff" stop-opacity="0"/></radialGradient><radialGradient id="radial-gradient-2" cx="1813.54" cy="-690.25" fx="1813.54" fy="-690.25" r=".59" gradientTransform="translate(-214382.22 -831821.59) rotate(54.7) scale(442.75 -442.75)" gradientUnits="userSpaceOnUse"><stop offset="0" stop-color="#00c4cc"/><stop offset="1" stop-color="#00c4cc" stop-opacity="0"/></radialGradient><radialGradient id="radial-gradient-3" cx="1806.3" cy="-683.97" fx="1806.3" fy="-683.97" r=".59" gradientTransform="translate(-580150.86 411439.89) rotate(-45.2) scale(387.86 -178.38)" xlink:href="#radial-gradient"/><radialGradient id="radial-gradient-4" cx="1814.87" cy="-688.15" fx="1814.87" fy="-688.15" r=".59" gradientTransform="translate(133774.6 -848744) rotate(66.52) scale(399.66 -669.53)" gradientUnits="userSpaceOnUse"><stop offset="0" stop-color="#00c4cc" stop-opacity=".73"/><stop offset="0" stop-color="#00c4cc"/><stop offset="1" stop-color="#00c4cc" stop-opacity="0"/></radialGradient></defs><g id="Layer_1-2" data-name="Layer 1"><g><rect class="cls-3" x="2.5" y="2.5" width="427.27" height="427.27" rx="12" ry="12"/><g><g><circle class="cls-1" cx="216.14" cy="216.14" r="150"/><circle class="cls-4" cx="216.14" cy="216.14" r="150"/><circle class="cls-6" cx="216.14" cy="216.14" r="150"/><circle class="cls-5" cx="216.14" cy="216.14" r="150"/><circle class="cls-7" cx="216.14" cy="216.14" r="150"/></g><path class="cls-2" d="M330.15,229.74c-.39,0-.75.25-.94.79-2.37,6.76-5.57,10.79-8.21,10.79-1.51,0-2.13-1.69-2.13-4.34,0-6.62,3.97-20.67,5.97-27.08.23-.78.38-1.47.38-2.06,0-1.86-1.02-2.78-3.54-2.78-2.72,0-5.64,1.06-8.49,6.05-.98-4.39-3.95-6.31-8.11-6.31-4.8,0-9.43,3.09-13.25,8.09-3.82,5.01-8.3,6.65-11.68,5.84,2.43-5.94,3.33-10.38,3.33-13.68,0-5.17-2.56-8.29-6.68-8.29-6.28,0-9.9,5.99-9.9,12.29,0,4.87,2.21,9.87,7.06,12.3-4.07,9.2-10.01,17.53-12.27,17.53-2.91,0-3.77-14.26-3.61-24.45.1-5.85.59-6.15.59-7.92,0-1.02-.66-1.71-3.31-1.71-6.17,0-8.08,5.23-8.37,11.23-.09,2.28-.45,4.54-1.06,6.74-2.58,9.2-7.9,16.19-11.37,16.19-1.61,0-2.05-1.61-2.05-3.71,0-6.62,3.71-14.9,3.71-21.97,0-5.19-2.28-8.47-6.57-8.47-5.05,0-11.74,6.01-18.06,17.27,2.08-8.63,2.94-16.97-3.23-16.97-1.34.02-2.65.36-3.83.99-.81.38-1.3,1.21-1.25,2.1.59,9.18-7.4,32.7-14.97,32.7-1.38,0-2.05-1.49-2.05-3.9,0-6.64,3.95-20.65,5.94-27.07.25-.83.39-1.55.39-2.17,0-1.76-1.09-2.66-3.55-2.66-2.71,0-5.64,1.03-8.47,6.01-.99-4.39-3.97-6.31-8.12-6.31-6.81,0-14.42,7.2-17.76,16.59-4.47,12.53-13.49,24.64-25.63,24.64-11.02,0-16.83-9.17-16.83-23.66,0-20.92,15.35-38,26.74-38,5.45,0,8.05,3.47,8.05,8.79,0,6.44-3.6,9.43-3.6,11.89,0,.75.62,1.49,1.86,1.49,4.95,0,10.78-5.82,10.78-13.75s-6.44-13.74-17.83-13.74c-18.82,0-37.76,18.94-37.76,43.21,0,19.31,9.53,30.95,26,30.95,11.24,0,21.05-8.74,26.35-18.94.6,8.45,4.44,12.87,10.29,12.87,5.2,0,9.41-3.1,12.63-8.54,1.24,5.7,4.52,8.49,8.79,8.49,4.89,0,8.98-3.1,12.88-8.86-.06,4.52.97,8.78,4.89,8.78,1.85,0,4.06-.43,4.45-2.05,4.13-17.07,14.33-31,17.45-31,.92,0,1.18.89,1.18,1.94,0,4.64-3.27,14.14-3.27,20.21,0,6.56,2.79,10.89,8.54,10.89,6.38,0,12.87-7.82,17.19-19.24,1.35,10.67,4.28,19.29,8.86,19.29,5.62,0,15.6-11.83,21.64-24.35,2.37.3,5.93.22,9.35-2.2-1.46,3.69-2.31,7.72-2.31,11.76,0,11.62,5.55,14.88,10.32,14.88,5.19,0,9.4-3.1,12.63-8.54,1.06,4.91,3.78,8.47,8.78,8.47,7.82,0,14.6-7.99,14.6-14.54,0-1.73-.74-2.79-1.61-2.79h0ZM167.92,240.7c-3.16,0-4.39-3.18-4.39-7.92,0-8.23,5.63-21.98,11.59-21.98,2.6,0,3.58,3.06,3.58,6.81,0,8.36-5.35,23.09-10.78,23.09h0ZM276.04,216.13c-1.88-2.24-2.57-5.3-2.57-8.01,0-3.35,1.23-6.19,2.69-6.19s1.92,1.45,1.92,3.46c0,3.36-1.2,8.28-2.05,10.74ZM300.51,240.7c-3.16,0-4.39-3.65-4.39-7.92,0-7.94,5.63-21.98,11.63-21.98,2.6,0,3.53,3.04,3.53,6.81,0,8.36-5.26,23.09-10.76,23.09h0Z"/></g></g></g></svg>