<?xml version="1.0" encoding="UTF-8"?><svg id="Layer_2" data-name="Layer 2" xmlns="http://www.w3.org/2000/svg" viewBox="0 0 432.27 432.27"><defs><style>.cls-1 {
        fill: none;
      }

      .cls-1, .cls-2, .cls-3, .cls-4, .cls-5 {
        stroke: #000;
        stroke-miterlimit: 3.86;
        stroke-width: 6px;
      }

      .cls-2 {
        fill: #f3632e;
      }

      .cls-3 {
        fill: #3d87cf;
      }

      .cls-4 {
        fill: #912697;
      }

      .cls-5 {
        fill: #fac705;
      }

      .cls-6 {
        fill-rule: evenodd;
      }

      .cls-7 {
        fill: #fff;
        opacity: .9;
        stroke: #041189;
        stroke-miterlimit: 10;
        stroke-width: 5px;
      }</style></defs><g id="Layer_1-2" data-name="Layer 1"><g><rect class="cls-7" x="2.5" y="2.5" width="427.27" height="427.27" rx="12" ry="12"/><g><g><path class="cls-3" d="M278.83,156.14l-62.24,32.05-62.27-32.05v-41.94l62.27-32.05,62.24,32.05v41.94Z"/><path class="cls-1" d="M279.89,113.13l-63.38,31.82-62.6-31.56"/><path class="cls-2" d="M191.07,207.41l-62.27,32.05-62.27-32.05v-41.9l62.27-32.08,62.27,32.05v41.94Z"/><path class="cls-1" d="M128.6,191.02v50.49M192.14,164.4l-63.41,31.85-62.6-31.59"/><path class="cls-4" d="M365.09,207.67l-62.3,32.01-62.24-32.01v-41.97l62.24-32.01,62.27,32.01.03,41.97Z"/><path class="cls-1" d="M302.63,191.24v47.56M366.14,164.63l-63.41,31.85-62.56-31.59"/><path class="cls-5" d="M278.83,208.62l-62.24,32.05-62.27-32.05v-41.94l62.27-32.05,62.24,32.05v41.94Z"/><path class="cls-1" d="M279.89,165.61l-63.38,31.85-62.6-31.59M216.38,192.22v49.03"/></g><g><path d="M109.18,318.42c1.29,4.34,5.51,6.75,12.22,6.75,7.41,0,11.91-3.33,11.91-7.75,0-1.82-.73-3.37-2.16-4.55-1.75-1.43-3.82-1.72-6.35-2.15-4.36-.71-6.55-.54-6.54-1.89.01-.73.87-1.51,2.63-1.51,2.16,0,3.54.71,4.36,2.05l7.08-1.13c-1.56-3.75-5.38-5.82-10.98-5.82-7,0-11.04,3.2-11.04,7.5,0,1.84.97,3.61,2.62,4.79,2.08,1.47,4.38,1.82,7,2.24,3.26.54,5,.39,5.14,1.59.11.84-1.14,1.47-3.3,1.47-3.04,0-4.74-.84-5.16-2.44l-7.44.84"/><path d="M155.18,302.84h-8.61v13.42c0,2.04-.97,3.1-2.48,3.1s-2.18-1.01-2.18-3.06v-13.47h-8.6v14.36c0,5.51,2.04,8.06,7.38,8.06,3.03,0,5.26-1.27,6.5-3.69v3.1h7.99v-21.82"/><path d="M180.21,324.71h9.63v-29.49h-9.63v29.49Z"/><path class="cls-6" d="M171.17,324.67h8.69c-.5-.94-.72-2.25-.72-4v-9.97c0-6.03-3.03-8.45-11.01-8.45-7,0-11.1,2.21-12.35,6.83l8.21.77c.13-1.52,1.51-2.58,3.56-2.58s2.94.72,2.94,2.37v.68c-10.16.29-15.29,3.14-15.29,8.35,0,4.03,3.03,6.63,8.2,6.63,3.4,0,5.89-1.32,7.31-3.74.09,1.19.22,2.21.45,3.1h0ZM170.5,314.23v2.42c0,2.21-1.33,3.43-3.48,3.43-1.73,0-2.58-.68-2.58-2.12,0-1.91,2.1-3.3,6.06-3.73"/><path d="M100.17,301.32h9.21l-.04-5.89h-9.15l-.02,5.89"/><path d="M100.17,324.66h9.21v-21.82h-9.21v21.82Z"/><path d="M81.26,324.63h9.44l9.87-29.21h-7.92l-5.79,19.62-5.47-19.62h-9.87l9.74,29.21"/><path class="cls-6" d="M237.28,324.68h8.69c-.5-.93-.72-2.25-.72-4v-9.97c0-6.03-3.03-8.45-11.01-8.45-7,0-11.09,2.21-12.34,6.83l8.2.77c.13-1.52,1.51-2.58,3.56-2.58s2.94.72,2.94,2.37v.68c-10.16.3-15.29,3.14-15.29,8.35,0,4.03,3.03,6.63,8.21,6.63,3.39,0,5.87-1.32,7.3-3.74.09,1.19.22,2.21.45,3.1h0ZM236.61,314.24v2.42c0,2.21-1.33,3.43-3.47,3.43-1.75,0-2.6-.67-2.6-2.12,0-1.91,2.1-3.3,6.06-3.73"/><path d="M245,318.42c1.3,4.34,5.52,6.75,12.23,6.75,7.41,0,11.91-3.33,11.91-7.75,0-1.82-.74-3.37-2.16-4.55-1.76-1.43-3.82-1.72-6.35-2.15-4.36-.71-6.55-.54-6.54-1.89.01-.73.87-1.51,2.62-1.51,2.17,0,3.55.71,4.38,2.05l7.08-1.13c-1.57-3.75-5.38-5.82-10.99-5.82-6.98,0-11.03,3.2-11.03,7.5,0,1.84.97,3.61,2.62,4.79,2.08,1.47,4.36,1.82,7,2.24,3.26.54,5,.39,5.14,1.59.11.84-1.14,1.47-3.31,1.47-3.03,0-4.73-.84-5.14-2.44l-7.46.84"/><path d="M269.17,301.32h9.22v-5.91h-9.22v5.91Z"/><path d="M269.17,324.66h9.22v-21.82h-9.22v21.82Z"/><path d="M294.71,315.85c-.21,1.65-1.01,3.3-3.1,3.3-3.15,0-4.19-3.44-4.19-5.53,0-1.96.98-5.52,4.05-5.52,2.14,0,2.74,1.62,2.98,3.23l8.42-.4c-.73-5.57-5.58-8.79-11.7-8.79-7.62,0-12.78,4.92-12.78,11.62,0,3.17,1.17,6.17,3.69,8.43,2.63,2.3,5.54,3.04,9.13,3.04,6.31,0,10.88-3.04,11.75-8.79l-8.26-.6"/><path class="cls-6" d="M204.43,306.49v-4.92h4.51c1.86,0,2.98.88,2.98,2.47s-1.12,2.45-2.98,2.45h-4.51ZM204.43,318.17v-5.39h4.64c2.1,0,3.34,1.01,3.34,2.71s-1.24,2.68-3.34,2.68h-4.64ZM195.65,324.66h15.06c7.13,0,10.83-2.84,10.83-8.19,0-3.82-2.05-6.24-6.02-7.04,3.43-.85,5.26-3.19,5.26-6.58,0-2.37-.99-4.46-2.68-5.77-2.14-1.7-4.46-1.88-7.44-1.88h-15.02v29.46"/><path d="M88.37,284.91v-23.05h-4.22l-6.81,18.43-6.91-18.43h-4.29v23.05h2.45v-20.11l7.54,20.11h1.97l7.47-20.11v20.11h2.81"/><path class="cls-6" d="M92.9,284.91h2.67v-17.03h-2.67v17.03ZM92.8,264.79h2.87v-2.94h-2.87v2.94Z"/><path d="M109.75,278.93c-.54,2.81-1.99,4.26-4.14,4.26-2.84,0-4.49-2.56-4.49-6.84s1.72-6.75,4.53-6.75c2.28,0,3.66,1.38,4.11,4.22l2.39-.46c-.7-3.87-2.97-5.93-6.46-5.93-4.44,0-7.34,3.59-7.34,8.98s2.84,8.95,7.2,8.95c1.9,0,3.39-.58,4.6-1.83,1.1-1.11,1.58-2.11,2.01-4.18l-2.39-.42"/><path d="M117.38,284.91v-9.02c.07-3.62,2.52-6.18,5.73-5.91v-2.52c-.38-.02-.75-.06-1-.06-1.27,0-2.56.58-3.31,1.47-.63.77-.93,1.29-1.77,2.98v-3.99h-2.31v17.05h2.67"/><path class="cls-6" d="M130.83,267.42c-2.49,0-4.42.9-5.98,2.83-1.24,1.52-1.86,3.56-1.86,6.09,0,2.38.55,4.39,1.69,6.04,1.39,2.01,3.26,2.97,5.75,2.97,4.64,0,7.88-3.66,7.88-8.88s-3.04-9.05-7.47-9.05h0ZM130.56,269.6c1.42,0,2.76.7,3.62,1.83.84,1.18,1.22,2.74,1.22,4.94,0,4.29-1.77,6.82-4.78,6.82s-4.73-2.49-4.73-6.89c0-2.06.41-3.73,1.18-4.84.75-1.1,2.17-1.86,3.49-1.86"/><path d="M138.88,280.48c.41,1.49.86,2.22,1.76,2.97,1.45,1.29,3.4,1.9,5.82,1.9,4.22,0,7.02-2.1,7.02-5.21,0-2.77-1.7-4.42-5.19-5.05l-3.35-.59c-1.84-.34-2.67-1.11-2.67-2.42,0-1.49,1.49-2.49,3.67-2.49s3.56.83,4.35,2.67l2.42-.52c-.83-2.83-3.14-4.32-6.7-4.32-3.87,0-6.43,1.99-6.43,5,0,2.43,1.69,4.15,4.59,4.71l3.6.66c1.93.38,2.94,1.24,2.94,2.62,0,1.66-1.62,2.77-3.98,2.77-1.65,0-3.21-.48-4.21-1.29-.55-.45-.84-.97-1.11-1.93l-2.52.52"/><path class="cls-6" d="M162.64,267.42c-2.49,0-4.42.9-5.98,2.83-1.25,1.52-1.86,3.56-1.86,6.09,0,2.38.55,4.39,1.69,6.04,1.39,2.01,3.26,2.97,5.75,2.97,4.64,0,7.88-3.66,7.88-8.88s-3.04-9.05-7.47-9.05h0ZM162.37,269.6c1.42,0,2.76.7,3.62,1.83.84,1.18,1.22,2.74,1.22,4.94,0,4.29-1.77,6.82-4.78,6.82s-4.73-2.49-4.73-6.89c0-2.06.41-3.73,1.18-4.84.75-1.1,2.17-1.86,3.49-1.86"/><path d="M180.06,267.86h-4.15c0-1.86,0-1.96.32-2.72.38-1.07,1.52-1.63,3.21-1.63.55,0,.91.04,1.63.25v-2.15c-1.2-.18-1.79-.24-2.56-.24-2.17,0-3.9,1.04-4.49,2.69-.38,1-.48,1.7-.55,3.8h-3.01v2.08h3.01v14.97h2.45v-14.97h4.15v-2.08"/><path d="M190.93,283.08c-.94.18-1.43.21-2.05.21-1.83,0-2.76-.91-2.76-2.67v-10.69h3.83v-2.08h-3.83v-4.48l-2.49.2-.11,4.28h-3.01v2.08h3.01v10.27c0,3.42,1.66,5.18,4.87,5.18.8,0,1.36-.04,2.54-.2v-2.11"/><path d="M198.18,333.44h-3.03c0-1.37,0-1.44.22-1.99.28-.79,1.12-1.19,2.36-1.19.4,0,.65.02,1.18.18v-1.57c-.88-.13-1.31-.18-1.86-.18-1.59,0-2.87.75-3.29,1.97-.27.73-.35,1.24-.4,2.78h-2.21v1.52h2.21v10.95h1.79v-10.95h3.03v-1.52"/><path class="cls-6" d="M205.54,333.11c-1.83,0-3.23.66-4.38,2.08-.91,1.11-1.37,2.61-1.37,4.45,0,1.75.41,3.21,1.24,4.42,1.01,1.46,2.38,2.17,4.2,2.17,3.39,0,5.77-2.68,5.77-6.49s-2.23-6.63-5.46-6.63h0ZM205.34,334.7c1.03,0,2.02.51,2.65,1.34.6.86.88,1.99.88,3.61,0,3.14-1.3,4.98-3.49,4.98s-3.47-1.82-3.47-5.03c0-1.52.31-2.74.86-3.54.55-.81,1.59-1.37,2.56-1.37"/><path d="M216.6,345.91v-6.61c.05-2.65,1.84-4.52,4.2-4.32v-1.85c-.28-.02-.55-.05-.74-.05-.93,0-1.86.42-2.42,1.09-.46.55-.68.93-1.29,2.18v-2.91h-1.7v12.47h1.95"/><path class="cls-6" d="M242.31,345.91l-5.49-16.87h-2.43l-5.46,16.87h1.77l1.5-4.93h6.24l1.7,4.93h2.17ZM237.99,339.38h-5.19l2.61-8.09,2.58,8.09"/><path class="cls-6" d="M247.44,350.12v-6.11c1.06,1.62,2.06,2.22,3.68,2.22,2.96,0,4.99-2.65,4.99-6.57s-2.01-6.55-4.95-6.55c-1.75,0-2.94.84-3.93,2.76v-2.43h-1.75v16.68h1.96ZM247.44,337.88c.5-1.92,1.77-3.08,3.3-3.08,2.03,0,3.24,1.84,3.24,4.98,0,1.66-.31,2.88-.94,3.69-.53.68-1.46,1.16-2.3,1.16-1.59,0-3.01-1.36-3.3-3.26v-3.49"/><path class="cls-6" d="M261.68,350.12v-6.11c1.06,1.62,2.08,2.22,3.69,2.22,2.96,0,4.98-2.65,4.98-6.57s-1.99-6.55-4.95-6.55c-1.73,0-2.93.84-3.92,2.76v-2.43h-1.75v16.68h1.95ZM261.68,337.88c.51-1.92,1.77-3.08,3.31-3.08,2.02,0,3.23,1.84,3.23,4.98,0,1.66-.31,2.88-.93,3.69-.53.68-1.46,1.16-2.3,1.16-1.59,0-3.01-1.36-3.31-3.26v-3.49"/><path d="M273.98,345.91h1.95v-16.87h-1.95v16.87Z"/><path class="cls-6" d="M280.52,345.91h1.95v-12.47h-1.95v12.47ZM280.45,331.19h2.1v-2.15h-2.1v2.15Z"/><path d="M294.44,341.53c-.4,2.04-1.46,3.1-3.03,3.1-2.08,0-3.29-1.86-3.29-5s1.26-4.93,3.31-4.93c1.66,0,2.68,1.01,3.01,3.09l1.75-.33c-.51-2.83-2.17-4.35-4.73-4.35-3.23,0-5.36,2.63-5.36,6.57s2.06,6.55,5.26,6.55c1.38,0,2.47-.42,3.35-1.33.81-.81,1.17-1.55,1.47-3.07l-1.75-.29"/><path class="cls-6" d="M309.39,345.91c-.2-.77-.27-1.52-.27-2.43v-5.28c0-1.82-.22-2.81-.84-3.65-.73-.98-1.99-1.46-3.87-1.46-2.08,0-3.65.51-4.62,1.52-.53.53-.75,1-.93,1.95l1.79.3c.33-1.49,1.46-2.24,3.36-2.24,1.59,0,2.63.5,2.98,1.44.2.53.25.88.25,2.15-.78-.05-1.16-.05-1.64-.05-2.1,0-3.74.27-4.88.86-1.33.65-2.19,1.99-2.19,3.46,0,2.23,1.77,3.76,4.34,3.76,2.12,0,3.37-.73,4.38-2.57.11,1.42.11,1.64.24,2.25h1.91ZM307.24,339.66c.02.33.02.59.02.81,0,2.43-1.75,4.27-4.03,4.27-1.58,0-2.63-.88-2.63-2.23,0-1.84,1.77-2.9,4.87-2.9.41,0,1.04.02,1.77.05"/><path d="M319.4,344.56c-.68.13-1.04.15-1.5.15-1.33,0-2.02-.66-2.02-1.95v-7.81h2.81v-1.52h-2.81v-3.29l-1.82.15-.08,3.14h-2.19v1.52h2.19v7.5c0,2.5,1.22,3.79,3.56,3.79.58,0,.99-.02,1.85-.14v-1.55"/><path class="cls-6" d="M322.28,345.91h1.95v-12.47h-1.95v12.47ZM322.2,331.19h2.1v-2.15h-2.1v2.15Z"/><path class="cls-6" d="M333.58,333.11c-1.82,0-3.23.66-4.36,2.08-.92,1.11-1.37,2.61-1.37,4.45,0,1.75.4,3.21,1.24,4.42,1.01,1.46,2.37,2.17,4.2,2.17,3.39,0,5.76-2.68,5.76-6.49s-2.22-6.63-5.46-6.63h0ZM333.38,334.7c1.04,0,2.03.51,2.65,1.34.61.86.88,1.99.88,3.61,0,3.14-1.29,4.98-3.48,4.98s-3.47-1.82-3.47-5.03c0-1.52.31-2.74.86-3.54.55-.81,1.59-1.37,2.55-1.37"/><path d="M352.54,345.91v-7.21c0-1.77-.13-2.71-.4-3.34-.66-1.39-2.05-2.25-3.65-2.25-1.72,0-2.7.66-3.99,2.63v-2.3h-1.79v12.47h1.93v-6.85c0-2.45,1.47-4.27,3.49-4.27,1.68,0,2.58,1.09,2.58,3.1v8.02h1.82"/><path d="M355.46,342.66c.31,1.09.64,1.62,1.29,2.17,1.07.94,2.49,1.39,4.25,1.39,3.09,0,5.14-1.53,5.14-3.81,0-2.03-1.24-3.24-3.8-3.69l-2.45-.44c-1.33-.25-1.95-.8-1.95-1.77,0-1.09,1.1-1.82,2.68-1.82s2.61.6,3.2,1.95l1.77-.38c-.61-2.08-2.31-3.16-4.91-3.16-2.83,0-4.71,1.47-4.71,3.67,0,1.77,1.24,3.03,3.36,3.43l2.63.48c1.42.28,2.15.91,2.15,1.92,0,1.21-1.18,2.02-2.9,2.02-1.22,0-2.36-.35-3.09-.93-.4-.33-.6-.71-.8-1.42l-1.85.38"/></g></g></g></g></svg>