<?xml version="1.0" encoding="UTF-8"?><svg id="Layer_2" data-name="Layer 2" xmlns="http://www.w3.org/2000/svg" xmlns:xlink="http://www.w3.org/1999/xlink" viewBox="0 0 432.27 432.27"><defs><style>.cls-1 {
        fill: url(#linear-gradient-2);
      }

      .cls-2, .cls-3 {
        fill: #fff;
      }

      .cls-4 {
        fill: url(#linear-gradient-4);
      }

      .cls-5 {
        fill: url(#radial-gradient-5);
      }

      .cls-6 {
        fill: url(#radial-gradient);
      }

      .cls-7 {
        fill: url(#radial-gradient-3);
      }

      .cls-8 {
        fill: url(#linear-gradient-3);
      }

      .cls-9 {
        fill: url(#radial-gradient-2);
      }

      .cls-10 {
        fill: url(#radial-gradient-4);
      }

      .cls-11 {
        fill: url(#radial-gradient-6);
      }

      .cls-12 {
        fill: url(#radial-gradient-7);
      }

      .cls-13 {
        fill: url(#linear-gradient);
      }

      .cls-3 {
        opacity: .9;
        stroke: #041189;
        stroke-miterlimit: 10;
        stroke-width: 5px;
      }</style><linearGradient id="linear-gradient" x1="127.59" y1="643.82" x2="261" y2="818.91" gradientTransform="translate(0 -578)" gradientUnits="userSpaceOnUse"><stop offset="0" stop-color="#00e3df"/><stop offset=".41" stop-color="#0097a8"/><stop offset="1" stop-color="#007791"/></linearGradient><radialGradient id="radial-gradient" cx="-3719.75" cy="137.83" fx="-3719.75" fy="137.83" r=".6" gradientTransform="translate(-423183.51 -856600.03) rotate(-112.48) scale(256.36 461.43) skewX(-.11)" gradientUnits="userSpaceOnUse"><stop offset=".29" stop-color="#003b5d" stop-opacity=".2"/><stop offset=".61" stop-color="#004a6c" stop-opacity=".14"/><stop offset=".97" stop-color="#006f94" stop-opacity="0"/></radialGradient><radialGradient id="radial-gradient-2" cx="-3728.77" cy="142.85" fx="-3728.77" fy="142.85" r=".6" gradientTransform="translate(-354703.56 -726508.05) rotate(-112.09) scale(216.37 388.98) skewX(-.11)" gradientUnits="userSpaceOnUse"><stop offset=".26" stop-color="#002a42" stop-opacity=".31"/><stop offset=".61" stop-color="#004261" stop-opacity=".21"/><stop offset=".97" stop-color="#006f94" stop-opacity="0"/></radialGradient><radialGradient id="radial-gradient-3" cx="-3685.8" cy="16.27" fx="-3685.8" fy="16.27" r=".6" gradientTransform="translate(-375235.2 551811.19) rotate(124.49) scale(181.07 181.17) skewX(.08)" gradientUnits="userSpaceOnUse"><stop offset="0" stop-color="#78edff" stop-opacity=".7"/><stop offset="1" stop-color="#2ccfca" stop-opacity="0"/></radialGradient><linearGradient id="linear-gradient-2" x1="229.56" y1="741.09" x2="340.74" y2="887" gradientTransform="translate(0 -578)" gradientUnits="userSpaceOnUse"><stop offset="0" stop-color="#00e3df"/><stop offset=".48" stop-color="#00a2b8"/><stop offset=".95" stop-color="#00637c"/></linearGradient><radialGradient id="radial-gradient-4" cx="-3679.23" cy="168.16" fx="-3679.23" fy="168.16" r=".6" gradientTransform="translate(159256.58 -613897.84) rotate(-70.77) scale(171.87 310.04) skewX(.1)" gradientUnits="userSpaceOnUse"><stop offset="0" stop-color="#003b5d" stop-opacity=".5"/><stop offset=".49" stop-color="#004c6c" stop-opacity=".36"/><stop offset=".97" stop-color="#007a86" stop-opacity="0"/></radialGradient><radialGradient id="radial-gradient-5" cx="-3689.15" cy="-2.33" fx="-3689.15" fy="-2.33" r=".6" gradientTransform="translate(-315175.2 458774.93) rotate(124.49) scale(150.89 150.97) skewX(.08)" xlink:href="#radial-gradient-3"/><linearGradient id="linear-gradient-3" x1="168.41" y1="819.12" x2="239.27" y2="960.82" gradientTransform="translate(0 -578)" gradientUnits="userSpaceOnUse"><stop offset=".05" stop-color="#75fff6"/><stop offset=".51" stop-color="#00c7d1"/><stop offset=".96" stop-color="#0096ad"/></linearGradient><linearGradient id="linear-gradient-4" x1="261.1" y1="970.32" x2="223.22" y2="917.17" gradientTransform="translate(0 -578)" gradientUnits="userSpaceOnUse"><stop offset=".26" stop-color="#0e5a5d" stop-opacity=".32"/><stop offset=".54" stop-color="#126c6b" stop-opacity=".22"/><stop offset=".97" stop-color="#1c948a" stop-opacity="0"/></linearGradient><radialGradient id="radial-gradient-6" cx="-3617.42" cy="92.33" fx="-3617.42" fy="92.33" r=".6" gradientTransform="translate(826945.89 784815.96) rotate(44.96) scale(314.99) skewX(-.09)" gradientUnits="userSpaceOnUse"><stop offset=".06" stop-color="#00b6bd"/><stop offset=".89" stop-color="#00495c"/></radialGradient><radialGradient id="radial-gradient-7" cx="-3623.24" cy="21.76" fx="-3623.24" fy="21.76" r=".6" gradientTransform="translate(3996.78 564753.91) rotate(90) scale(155.79 177.62)" gradientUnits="userSpaceOnUse"><stop offset=".57" stop-color="#1e8581" stop-opacity="0"/><stop offset=".97" stop-color="#1ecbe6" stop-opacity=".6"/></radialGradient></defs><g id="Layer_1-2" data-name="Layer 1"><g><rect class="cls-3" x="2.5" y="2.5" width="427.27" height="427.27" rx="12" ry="12"/><g id="surface1"><path class="cls-13" d="M191.33,249.47c55.32,0,100.15-44.77,100.15-100s-44.85-100-100.15-100-100.15,44.77-100.15,100,44.84,100,100.15,100Z"/><path class="cls-6" d="M191.33,249.47c55.32,0,100.15-44.77,100.15-100s-44.85-100-100.15-100-100.15,44.77-100.15,100,44.84,100,100.15,100Z"/><path class="cls-9" d="M191.33,249.47c55.32,0,100.15-44.77,100.15-100s-44.85-100-100.15-100-100.15,44.77-100.15,100,44.84,100,100.15,100Z"/><path class="cls-7" d="M191.33,249.47c55.32,0,100.15-44.77,100.15-100s-44.85-100-100.15-100-100.15,44.77-100.15,100,44.84,100,100.15,100Z"/><path class="cls-1" d="M282.68,316.14c46.09,0,83.46-37.31,83.46-83.33s-37.37-83.33-83.46-83.33-83.46,37.31-83.46,83.33,37.37,83.33,83.46,83.33Z"/><path class="cls-10" d="M282.68,316.14c46.09,0,83.46-37.31,83.46-83.33s-37.37-83.33-83.46-83.33-83.46,37.31-83.46,83.33,37.37,83.33,83.46,83.33Z"/><path class="cls-5" d="M282.68,316.14c46.09,0,83.46-37.31,83.46-83.33s-37.37-83.33-83.46-83.33-83.46,37.31-83.46,83.33,37.37,83.33,83.46,83.33Z"/><path class="cls-8" d="M203.84,382.8c39.18,0,70.94-31.71,70.94-70.83s-31.76-70.83-70.94-70.83-70.94,31.71-70.94,70.83,31.76,70.83,70.94,70.83Z"/><path class="cls-4" d="M203.84,382.8c39.18,0,70.94-31.71,70.94-70.83s-31.76-70.83-70.94-70.83-70.94,31.71-70.94,70.83,31.76,70.83,70.94,70.83Z"/><path class="cls-11" d="M93.24,207.8h79.32c14.97,0,27.11,12.14,27.11,27.11v79.12c0,14.97-12.14,27.11-27.11,27.11h-79.32c-14.97,0-27.11-12.14-27.11-27.11v-79.12c0-14.97,12.14-27.11,27.11-27.11Z"/><path class="cls-12" d="M93.24,207.8h79.32c14.97,0,27.11,12.14,27.11,27.11v79.12c0,14.97-12.14,27.11-27.11,27.11h-79.32c-14.97,0-27.11-12.14-27.11-27.11v-79.12c0-14.97,12.14-27.11,27.11-27.11Z"/><path class="cls-2" d="M104.14,297.57l14.48-7.55c1.64,3.29,3.76,5.72,6.39,7.28,2.66,1.56,5.57,2.34,8.73,2.34,3.51,0,6.19-.71,8.03-2.13,1.85-1.45,2.77-3.63,2.77-6.53,0-2.27-.89-4.18-2.66-5.74-1.77-1.59-4.91-2.8-9.42-3.61-8.59-1.56-14.83-4.29-18.73-8.18-3.87-3.9-5.8-8.76-5.8-14.56,0-7.23,2.55-13,7.67-17.33,5.1-4.32,11.85-6.48,20.23-6.48,5.64,0,10.61,1.15,14.9,3.45,4.29,2.3,7.7,5.6,10.22,9.89l-14.15,7.28c-1.56-2.41-3.25-4.15-5.05-5.21-1.81-1.1-4.08-1.65-6.81-1.65-3.27,0-5.75.71-7.45,2.13-1.67,1.42-2.5,3.26-2.5,5.53,0,1.95.8,3.67,2.39,5.15,1.63,1.45,4.89,2.64,9.79,3.56,8.23,1.56,14.37,4.39,18.41,8.51,4.08,4.07,6.12,9.23,6.12,15.47,0,7.58-2.43,13.59-7.29,18.01-4.86,4.43-11.8,6.64-20.81,6.64-6.53,0-12.42-1.42-17.67-4.25-5.21-2.87-9.13-6.88-11.76-12.02h-.01Z"/></g></g></g></svg>