<?xml version="1.0" encoding="UTF-8"?>
<svg id="Layer_2" data-name="Layer 2" xmlns="http://www.w3.org/2000/svg" viewBox="0 0 365.83 234.12">
  <defs>
    <style>
      .cls-1 {
        opacity: .9;
      }

      .cls-2, .cls-3 {
        fill: none;
      }

      .cls-4 {
        fill: #fff;
        stroke-miterlimit: 10;
        stroke-width: 5px;
      }

      .cls-4, .cls-3 {
        stroke: #041189;
      }

      .cls-3 {
        stroke-linecap: round;
        stroke-linejoin: round;
        stroke-width: 3px;
      }

      .cls-5 {
        fill: #041189;
      }
    </style>
  </defs>
  <g id="Layer_1-2" data-name="Layer 1">
    <g>
      <g>
        <g class="cls-1">
          <rect class="cls-4" x="88.13" y="56.4" width="189.57" height="121.32"/>
        </g>
        <g>
          <line class="cls-3" x1="198.29" y1="71.37" x2="208.86" y2="81.94"/>
          <path class="cls-3" d="M165.6,119.57s.08-.03.11-.04c3.54-1.24,7.38-2.35,10.65-4.09l37.66-38.01c.4-.87.63-1.93.29-2.86-.37-.99-6.61-7.4-7.7-8.15-1.23-.86-2.94-.77-4.17.02l-37.62,37.46c-1.83,3.51-3.04,7.5-4.4,11.26-.86,2.37-1.79,4.72-2.55,7.12,2.42-.74,4.78-1.66,7.17-2.5.19-.07.38-.14.57-.2Z"/>
          <path class="cls-3" d="M165.31,104.54c2.97,3.26,7.2,7.63,10.5,10.5"/>
          <line class="cls-3" x1="195.79" y1="73.99" x2="206.23" y2="84.44"/>
          <line class="cls-3" x1="198.01" y1="77.09" x2="170.91" y2="104.31"/>
          <line class="cls-3" x1="203.02" y1="82.22" x2="176.04" y2="109.19"/>
          <path class="cls-3" d="M164.52,119.24c-1.23-1.17-2.46-2.39-3.62-3.62"/>
        </g>
        <g>
          <path class="cls-5" d="M222.41,115.25h8.58v4.68h21.84v-4.68h8.58v48.39h-39v-48.39h0ZM241.99,109c1.25,0,2.26,1.09,2.26,2.34,0,1.33-1.01,2.34-2.34,2.34s-2.34-1.01-2.34-2.34,1.01-2.34,2.42-2.34h0ZM217.73,113.68v51.51c0,1.72,1.4,3.12,3.12,3.12h42.12c1.72,0,3.12-1.4,3.12-3.12v-51.51c0-1.72-1.4-3.12-3.12-3.12h-13.26v-1.56c0-1.72-1.4-3.12-3.12-3.12h-9.36c-1.72,0-3.12,1.4-3.12,3.12v1.56h-13.26c-1.72,0-3.12,1.4-3.12,3.12h0Z"/>
          <polygon class="cls-5" points="227.09 126.17 240.35 126.17 240.35 129.29 227.09 129.29 227.09 126.17 227.09 126.17"/>
          <polygon class="cls-5" points="227.09 135.54 240.35 135.54 240.35 138.66 227.09 138.66 227.09 135.54 227.09 135.54"/>
          <polygon class="cls-5" points="227.09 144.9 240.35 144.9 240.35 148.02 227.09 148.02 227.09 144.9 227.09 144.9"/>
          <polygon class="cls-5" points="227.09 154.27 240.35 154.27 240.35 157.39 227.09 157.39 227.09 154.27 227.09 154.27"/>
          <polygon class="cls-5" points="245.74 127.58 247.37 125.94 249.4 127.97 254.55 122.82 256.19 124.45 249.4 131.24 245.74 127.58 245.74 127.58"/>
          <polygon class="cls-5" points="245.74 136.94 247.37 135.3 249.4 137.33 254.55 132.18 256.19 133.82 249.4 140.61 245.74 136.94 245.74 136.94"/>
          <polygon class="cls-5" points="245.74 146.31 247.37 144.67 249.4 146.7 254.55 141.55 256.19 143.18 249.4 149.97 245.74 146.31 245.74 146.31"/>
          <polygon class="cls-5" points="245.74 155.67 247.37 154.03 249.4 156.06 254.55 150.91 256.19 152.55 249.4 159.34 245.74 155.67 245.74 155.67"/>
        </g>
        <g>
          <path class="cls-5" d="M99.74,148.09l17.26-9v3.84c0,.29-.07.56-.22.8-.15.24-.39.45-.72.62l-7.91,4.05c-.33.17-.69.32-1.06.45s-.77.24-1.19.34c.42.1.82.21,1.19.34s.72.27,1.06.45l7.91,4.08c.33.17.57.38.72.62.15.24.22.5.22.8v3.84l-17.26-9.02v-2.18Z"/>
          <path class="cls-5" d="M126.74,163.94c-.13.33-.3.62-.5.87-.2.25-.44.45-.7.62-.26.17-.54.29-.83.38-.29.09-.57.13-.85.13h-2.27l12.73-32.57c.25-.61.6-1.08,1.07-1.41.46-.33,1.02-.49,1.68-.49h2.29l-12.62,32.46Z"/>
          <path class="cls-5" d="M143.86,159.3v-3.84c0-.29.07-.56.22-.8.15-.24.38-.45.72-.62l7.91-4.08c.64-.32,1.39-.58,2.25-.79-.42-.1-.82-.21-1.19-.34s-.72-.27-1.06-.45l-7.91-4.05c-.33-.17-.57-.38-.72-.62-.15-.24-.22-.5-.22-.8v-3.84l17.26,9v2.18l-17.26,9.02Z"/>
        </g>
      </g>
      <g class="cls-1">
        <rect class="cls-2" width="365.83" height="234.12"/>
      </g>
    </g>
  </g>
</svg>